<svg version="1.0" xmlns="http://www.w3.org/2000/svg"
 width="512.000000pt" height="512.000000pt" viewBox="0 0 512.000000 512.000000"
 preserveAspectRatio="xMidYMid meet">

<g transform="translate(0.000000,512.000000) scale(0.100000,-0.100000)"
fill="currentColor" stroke="none">
<path d="M1105 5106 c-84 -21 -147 -57 -211 -121 -65 -65 -105 -136 -123 -223
-6 -31 -11 -159 -11 -307 l0 -255 -150 0 -150 0 0 -150 0 -150 150 0 150 0 0
-300 0 -300 -150 0 -150 0 0 -150 0 -150 150 0 150 0 0 -300 0 -300 -150 0
-150 0 0 -150 0 -150 150 0 150 0 0 -300 0 -300 -150 0 -150 0 0 -150 0 -150
150 0 150 0 0 -395 c0 -256 4 -413 11 -447 37 -172 175 -310 347 -347 38 -8
535 -11 1797 -11 l1745 0 0 2560 0 2560 -1752 -1 c-1368 -1 -1764 -3 -1803
-13z m3255 -2246 l0 -1960 -1622 -3 c-893 -2 -1635 -7 -1650 -11 l-28 -8 0
161 0 161 150 0 150 0 0 150 0 150 -150 0 -150 0 0 300 0 300 150 0 150 0 0
150 0 150 -150 0 -150 0 0 300 0 300 150 0 150 0 0 150 0 150 -150 0 -150 0 0
300 0 300 150 0 150 0 0 150 0 150 -150 0 -150 0 0 253 c1 285 4 300 76 343
l39 24 1593 0 1592 0 0 -1960z m0 -2410 l0 -150 -1591 0 -1591 0 -40 22 c-101
57 -102 194 -2 254 l39 24 1593 0 1592 0 0 -150z"/>
<path d="M2740 4045 c-8 -2 -49 -9 -90 -15 -358 -58 -694 -309 -862 -645 -89
-177 -122 -320 -123 -530 0 -163 11 -239 56 -377 97 -300 319 -557 607 -702
85 -43 216 -87 317 -107 103 -21 349 -18 455 5 423 91 768 399 899 804 44 136
56 215 56 372 0 83 -6 175 -14 215 -95 479 -451 849 -921 956 -78 18 -338 35
-380 24z m345 -325 c313 -81 560 -328 646 -645 18 -65 22 -107 22 -225 0 -118
-4 -160 -22 -225 -86 -317 -329 -561 -646 -646 -105 -29 -325 -32 -428 -6
-328 82 -580 328 -668 652 -32 115 -32 335 0 450 92 341 366 595 709 660 104
20 282 13 387 -15z"/>
<path d="M2710 3300 l0 -150 150 0 150 0 0 150 0 150 -150 0 -150 0 0 -150z"/>
<path d="M2710 2550 l0 -300 150 0 150 0 0 300 0 300 -150 0 -150 0 0 -300z"/>
</g>
</svg>
