<?xml version="1.0" encoding="utf-8"?>
<!-- Generator: Adobe Illustrator 22.0.0, SVG Export Plug-In . SVG Version: 6.00 Build 0)  -->
<svg version="1.1" id="Calque_1" xmlns="http://www.w3.org/2000/svg" xmlns:xlink="http://www.w3.org/1999/xlink" x="0px" y="0px"
	 viewBox="0 0 274.2 279.6" style="enable-background:new 0 0 274.2 279.6;" xml:space="preserve">
<style type="text/css">
	.st0{fill:none;}
	.st1{fill:#E0007A;}
	.st2{fill:#85177E;}
	.st3{fill:#00408F;}
	.st4{fill:#008CCF;}
	.st5{fill:#00958B;}
	.st6{fill:#4EA729;}
	.st7{fill:#0D3082;}
	.st8{fill:#37A8DB;}
</style>
<g>
	<polygon class="st0" points="9.5,253.6 5.5,264 13.5,264 	"/>
	<polygon class="st0" points="118.6,113.2 137.6,113.2 128,88.6 	"/>
	<path class="st0" d="M177.7,85.1h-13.1v20.7h13.4c5.6,0,9.6-4.6,9.6-10.4C187.6,89.5,183.5,85.1,177.7,85.1z"/>
	<path class="st0" d="M173,265.5h-4.8c-2.2,0-3.7,0.9-3.7,2.9c0,1.8,1.2,2.9,3.9,2.9c2.4,0,4.6-1.5,4.6-4.3L173,265.5L173,265.5z"/>
	<path class="st0" d="M100.7,258.9c-2.9,0-4.6,1.9-4.8,4.9h9.1C105,261.4,104.2,258.9,100.7,258.9z"/>
	<path class="st0" d="M85.2,258.9c-2.9,0-4.6,1.9-4.8,4.9h9.1C89.6,261.4,88.7,258.9,85.2,258.9z"/>
	<path class="st0" d="M123.2,252.1h-5.6v8.8h5.7c2.4,0,4.1-1.9,4.1-4.4C127.4,254,125.7,252.1,123.2,252.1z"/>
	<path class="st0" d="M134.2,265.1c0,4.3,1.8,6.2,4.9,6.2c3.1,0,4.9-1.9,4.9-6.2c0-4.3-1.8-6.2-4.9-6.2S134.2,260.8,134.2,265.1z"/>
	<path class="st0" d="M53.1,258.9c-2.9,0-4.6,1.9-4.8,4.9h9.1C57.5,261.4,56.6,258.9,53.1,258.9z"/>
	<path class="st0" d="M253.3,258.9c-3,0-4.6,1.9-4.8,4.9h9.1C257.6,261.4,256.8,258.9,253.3,258.9z"/>
	<path class="st1" d="M261.3,151.1c-18.8,17.8-41.8,25.4-67.1,26.7c-31.5,1.6-60.5-6.9-87.2-23.5c-1.3-0.8-5.5-3.2-6.3-3.3
		c0.7,1.7,1.2,3,1.8,4.3c14.8,35.8,48.4,56.9,88.6,55.6c40.7-1.3,69.3-34.7,79.8-61.4c1.8-4.6,3.3-12.1,3.3-12.7
		c-0.2,0.2-6.8,7.7-7.2,8.1C265.3,147.1,263.3,149.2,261.3,151.1z"/>
	<path class="st2" d="M125.6,206.5c-32.8-18.3-51.7-46.9-61.1-82.6c-0.2-0.8-1.9-6.7-2.1-7.1c-14.8,28.4-9.6,71.3,22.8,96.7
		c31.1,24.3,73,19.9,94.9,1.7C156,218,142.5,216,125.6,206.5z"/>
	<path class="st3" d="M38.9,137.9c0.2-25.3,8.8-47.9,23.9-68.7c-23.6,5.7-52.8,32.1-49.2,73.1c3.1,34.3,30.6,57,54.8,60.8
		C46.4,186,38.7,163.4,38.9,137.9z"/>
	<path class="st4" d="M18.4,50.1c-21,22.3-18.6,54.9-9.1,67.4C7.7,80.1,45,44.7,93.6,41.2C71.8,25.4,37.6,29.8,18.4,50.1z"/>
	<path class="st5" d="M79.5,0c-19.3,1.9-39.8,17.3-41,30.2C72.8,6.4,103.1,17.9,132,41.4C128.6,18.9,111.1,2.6,87.6,0L79.5,0L79.5,0
		z"/>
	<path class="st6" d="M115.9,2.6c27.1,6.6,41.4,31.2,38.1,64.8c11.6-8.4,15.2-29.4,7.7-44.6C153.4,6,134.2-2.7,115.9,2.6z"/>
	<path class="st7" d="M128,79.5c-1.4,0-2.2,0.9-2.6,1.9l-19.6,49.5c-0.2,0.3-0.2,0.9-0.2,1.2c0,1.4,1.2,2.7,2.7,2.7
		c1.4,0,2.3-0.9,2.6-1.9l5.9-14.7h22.4l5.8,14.8c0.4,1,1.3,1.8,2.6,1.8c1.7,0,2.8-1.3,2.8-2.7c0-0.2-0.1-0.8-0.2-1.2l-19.6-49.5
		C130.3,80.4,129.4,79.5,128,79.5z M118.6,113.2l9.5-24.5l9.5,24.5H118.6z"/>
	<path class="st7" d="M193.1,95.4c0-8.6-6.4-15.3-15.3-15.3h-16c-1.5,0-2.7,1.2-2.7,2.7V132c0,1.5,1.2,2.7,2.7,2.7s2.7-1.2,2.7-2.7
		v-21.3h8.1l16.3,22.7c0.6,1,1.5,1.3,2.3,1.3c1.5,0,2.7-1.2,2.7-2.7c0-0.6-0.2-1.2-0.6-1.7l-14.7-19.6
		C187.4,110.4,193.1,103.7,193.1,95.4z M177.9,105.8h-13.4V85.1h13.1c5.8,0,9.9,4.4,9.9,10.4C187.6,101.2,183.5,105.8,177.9,105.8z"
		/>
	<path class="st8" d="M205.9,79.5c-2.6,0-4.6,2.1-4.6,4.6v32.3c0,9.1,4,18.8,20.2,18.8s20.2-9.6,20.2-18.8V84.1
		c0-2.6-2.1-4.6-4.6-4.6c-2.6,0-4.6,2.1-4.6,4.6v32.3c0,4.9-1.8,10.6-10.9,10.6c-9.1,0-10.9-5.7-10.9-10.6V84.1
		C210.6,81.6,208.5,79.5,205.9,79.5z"/>
	<path class="st8" d="M264.3,134.8c2.5,0,4.6-2.1,4.6-4.6V84.1c0-2.5-2.1-4.6-4.6-4.6c-1.2,0-1.9,0.4-2.8,1L250,87.9
		c-1.1,0.7-1.9,2.1-1.9,3.7c0,2.4,2,4.4,4.4,4.4c1,0,1.9-0.3,2.6-0.9l4.6-3.1v38.2C259.7,132.7,261.8,134.8,264.3,134.8z"/>
	<path class="st7" d="M0,272c0,0.6,0.5,1.1,1.1,1.1c0.6,0,0.9-0.4,1.1-0.8l2.5-6.2h9.5l2.4,6.2c0.2,0.4,0.5,0.8,1.1,0.8
		c0.7,0,1.2-0.5,1.2-1.1c0-0.1,0-0.3-0.1-0.5l-8.3-20.9c-0.2-0.4-0.5-0.8-1.1-0.8c-0.6,0-0.9,0.4-1.1,0.8l-8.3,20.9
		C0,271.6,0,271.8,0,272z M9.5,253.6l4,10.4h-8L9.5,253.6z"/>
	<path class="st7" d="M26.6,259.5c0.6,0,1-0.4,1-1s-0.4-1-1-1h-2.2v-3.6c0-0.6-0.5-1.1-1.1-1.1c-0.6,0-1.1,0.5-1.1,1.1v3.6h-1.3
		c-0.6,0-1,0.4-1,1s0.4,1,1,1h1.3v9.4c0,2.5,1.5,4.3,4.1,4.3c0.6,0,1.1-0.4,1.1-1s-0.5-1-1.1-1c-1.1,0-2-0.8-2-2.2v-9.4L26.6,259.5
		L26.6,259.5z"/>
	<path class="st7" d="M42.3,273.1c0.6,0,1.1-0.5,1.1-1.1v-9c0-2.9-1-6-6.2-6c-2.2,0-3.9,1.1-4.5,2.4v-9.6c0-0.6-0.5-1.1-1.1-1.1
		s-1.1,0.5-1.1,1.1V272c0,0.6,0.5,1.1,1.1,1.1s1.1-0.5,1.1-1.1v-8.4c0-2.7,1.1-4.8,4.5-4.8c3.3,0,4.1,1.8,4.1,4.5v8.6
		C41.3,272.6,41.7,273.1,42.3,273.1z"/>
	<path class="st7" d="M52.4,255.1l3.3-3.3c0.4-0.4,0.4-0.8-0.1-1.3c-0.5-0.5-1-0.3-1.3,0l-3,3.7c-0.2,0.3-0.3,0.7,0.1,1
		C51.8,255.5,52.1,255.4,52.4,255.1z"/>
	<path class="st7" d="M59.6,263.6c0-2.3-1.1-6.6-6.5-6.6c-4.4,0-7,2.9-7,8.1c0,5.7,2.8,8.2,7.3,8.2c3,0,4.8-1.4,5.3-1.9
		c0.2-0.2,0.4-0.4,0.4-0.8c0-0.5-0.4-1-1-1c-0.3,0-0.4,0.1-0.6,0.2c-0.9,0.7-2.1,1.5-4.1,1.5c-3.2,0-5.1-2.2-5.1-5.5h9.9
		C59.6,265.7,59.6,264.6,59.6,263.6z M48.3,263.8c0.2-3,1.8-4.9,4.8-4.9c3.5,0,4.3,2.5,4.3,4.9H48.3z"/>
	<path class="st7" d="M74.4,273.1c0.6,0,1.1-0.5,1.1-1.1v-9c0-2.9-1-6-6.2-6c-2.2,0-3.9,1.1-4.5,2.4v-1.1c0-0.6-0.5-1.1-1.1-1.1
		s-1.1,0.5-1.1,1.1V272c0,0.6,0.5,1.1,1.1,1.1s1.1-0.5,1.1-1.1v-8.4c0-2.7,1.1-4.8,4.5-4.8c3.3,0,4.1,1.8,4.1,4.5v8.6
		C73.4,272.6,73.8,273.1,74.4,273.1z"/>
	<path class="st7" d="M91.7,263.6c0-2.3-1.1-6.6-6.5-6.6c-4.4,0-7,2.9-7,8.1c0,5.7,2.8,8.2,7.3,8.2c3,0,4.8-1.4,5.3-1.9
		c0.2-0.2,0.4-0.4,0.4-0.8c0-0.5-0.4-1-1-1c-0.3,0-0.4,0.1-0.6,0.2c-0.9,0.7-2.1,1.5-4.1,1.5c-3.2,0-5.1-2.2-5.1-5.5h9.9
		C91.7,265.7,91.7,264.6,91.7,263.6z M80.4,263.8c0.2-3,1.8-4.9,4.8-4.9c3.5,0,4.3,2.5,4.3,4.9H80.4z"/>
	<path class="st7" d="M84.5,255.1l3.3-3.3c0.4-0.4,0.4-0.8-0.1-1.3c-0.5-0.5-1-0.3-1.3,0l-3,3.7c-0.2,0.3-0.3,0.7,0.1,1
		C83.9,255.5,84.2,255.4,84.5,255.1z"/>
	<path class="st7" d="M107.1,263.6c0-2.3-1-6.6-6.5-6.6c-4.4,0-7,2.9-7,8.1c0,5.7,2.8,8.2,7.3,8.2c3,0,4.8-1.4,5.3-1.9
		c0.2-0.2,0.4-0.4,0.4-0.8c0-0.5-0.4-1-1-1c-0.3,0-0.4,0.1-0.6,0.2c-1,0.7-2.1,1.5-4.1,1.5c-3.2,0-5.1-2.2-5.1-5.5h9.9
		C107.1,265.7,107.1,264.6,107.1,263.6z M95.9,263.8c0.2-3,1.8-4.9,4.8-4.9c3.5,0,4.3,2.5,4.3,4.9H95.9z"/>
	<path class="st7" d="M129.7,256.5c0-3.6-2.7-6.5-6.5-6.5h-6.8c-0.6,0-1.1,0.5-1.1,1.1v20.8c0,0.6,0.5,1.1,1.1,1.1
		c0.6,0,1.1-0.5,1.1-1.1v-9h3.4l6.9,9.6c0.3,0.4,0.6,0.5,1,0.5c0.6,0,1.1-0.5,1.1-1.1c0-0.2-0.1-0.5-0.2-0.7l-6.2-8.3
		C127.3,262.8,129.7,260,129.7,256.5z M123.3,260.9h-5.7v-8.8h5.6c2.4,0,4.2,1.9,4.2,4.4C127.4,258.9,125.7,260.9,123.3,260.9z"/>
	<path class="st7" d="M132,265.1c0,5.6,2.8,8.2,7.1,8.2c4.4,0,7.1-2.6,7.1-8.2c0-5.6-2.7-8.1-7.1-8.1C134.7,257,132,259.5,132,265.1
		z M144,265.1c0,4.3-1.8,6.2-4.9,6.2c-3.1,0-4.9-1.9-4.9-6.2c0-4.3,1.8-6.2,4.9-6.2C142.2,258.9,144,260.8,144,265.1z"/>
	<path class="st7" d="M147.8,277.6c-0.6,0-1,0.4-1,1s0.4,1,1,1c3.2,0,5-1.7,6.3-5l6.7-15.9c0-0.1,0.1-0.2,0.1-0.5
		c0-0.6-0.5-1.1-1.1-1.1s-0.9,0.4-1,0.7l-4.8,11.7l-4.8-11.7c-0.1-0.3-0.4-0.7-1-0.7s-1.1,0.5-1.1,1.1c0,0.2,0.1,0.4,0.1,0.5
		l5.7,13.5C151.5,275.6,150.7,277.6,147.8,277.6z"/>
	<path class="st7" d="M174,273.1c0.6,0,1-0.5,1-1v-9.3c0-3.5-2.2-5.8-6.1-5.8c-2.9,0-4.7,1.2-5.6,2.7c-0.1,0.2-0.2,0.3-0.2,0.6
		c0,0.5,0.4,1,1,1c0.3,0,0.5-0.1,0.9-0.5c1-1.2,2.1-1.7,3.9-1.7c2.5,0,4,1.4,4,3.7v0.9h-4.8c-3.7,0-5.9,1.8-5.9,4.8
		c0,3.1,2.3,4.9,5.9,4.9c2,0,4-0.9,4.9-2.4v1.2C173,272.6,173.4,273.1,174,273.1z M168.3,271.3c-2.6,0-3.9-1.1-3.9-2.9
		c0-2,1.5-2.9,3.7-2.9h4.8v1.4C173,269.9,170.7,271.3,168.3,271.3z"/>
	<path class="st7" d="M179.9,248.7c-0.6,0-1.1,0.5-1.1,1.1v19.4c0,2.6,1.3,4,3.5,4c0.5,0,1-0.4,1-1s-0.5-1-1-1
		c-0.9,0-1.4-0.6-1.4-1.9v-19.4C181,249.2,180.5,248.7,179.9,248.7z"/>
	<path class="st8" d="M192.2,249.7c-0.6,0-1.1,0.5-1.1,1.1v15c0,3.7,1.6,7.4,8,7.4s7.9-3.7,7.9-7.4v-15c0-0.6-0.5-1.1-1.1-1.1
		c-0.6,0-1.1,0.5-1.1,1.1v15c0,2.7-1,5.3-5.6,5.3c-4.7,0-5.7-2.6-5.7-5.3v-15C193.4,250.3,192.8,249.7,192.2,249.7z"/>
	<path class="st8" d="M217.3,258.9c2.2,0,3.1,1,3.7,1.6c0.2,0.3,0.5,0.4,0.8,0.4c0.5,0,1-0.4,1-1c0-0.2-0.1-0.4-0.2-0.6
		c-0.5-0.8-2.2-2.3-5.2-2.3c-4.4,0-7,2.6-7,8.1c0,5.6,2.6,8.2,7,8.2c2.8,0,4.4-1.2,5.1-1.8c0.3-0.3,0.4-0.5,0.4-0.9c0-0.5-0.4-1-1-1
		c-0.2,0-0.4,0.1-0.6,0.2c-0.8,0.6-2,1.5-3.9,1.5c-3.1,0-4.8-2-4.8-6.2C212.5,260.9,214.2,258.9,217.3,258.9z"/>
	<path class="st8" d="M231.9,258.9c2.2,0,3.1,1,3.7,1.6c0.2,0.3,0.5,0.4,0.8,0.4c0.5,0,1-0.4,1-1c0-0.2-0.1-0.4-0.2-0.6
		c-0.5-0.8-2.2-2.3-5.2-2.3c-4.4,0-7,2.6-7,8.1c0,5.6,2.6,8.2,7,8.2c2.8,0,4.4-1.2,5.1-1.8c0.3-0.3,0.4-0.5,0.4-0.9c0-0.5-0.4-1-1-1
		c-0.2,0-0.4,0.1-0.6,0.2c-0.8,0.6-2,1.5-3.9,1.5c-3.1,0-4.8-2-4.8-6.2C227.1,260.9,228.8,258.9,231.9,258.9z"/>
	<path class="st8" d="M241.3,248.7c-0.6,0-1.1,0.5-1.1,1.1v19.4c0,2.6,1.3,4,3.5,4c0.5,0,1-0.4,1-1s-0.5-1-1-1
		c-0.9,0-1.4-0.6-1.4-1.9v-19.4C242.4,249.2,241.9,248.7,241.3,248.7z"/>
	<path class="st8" d="M259.8,263.6c0-2.3-1-6.6-6.5-6.6c-4.4,0-7,2.9-7,8.1c0,5.7,2.8,8.2,7.3,8.2c3,0,4.8-1.4,5.3-1.9
		c0.2-0.2,0.4-0.4,0.4-0.8c0-0.5-0.4-1-1-1c-0.3,0-0.4,0.1-0.6,0.2c-1,0.7-2.1,1.5-4.1,1.5c-3.2,0-5.1-2.2-5.1-5.5h9.9
		C259.8,265.7,259.8,264.6,259.8,263.6z M248.5,263.8c0.2-3,1.8-4.9,4.8-4.9c3.5,0,4.3,2.5,4.3,4.9H248.5z"/>
	<path class="st8" d="M273,273.1c0.6,0,1.1-0.5,1.1-1.1v-21.1c0-0.6-0.5-1.1-1.1-1.1c-0.2,0-0.4,0.1-0.7,0.2l-5.3,3.7
		c-0.3,0.2-0.5,0.6-0.5,0.9c0,0.6,0.5,1.1,1.1,1.1c0.2,0,0.4-0.1,0.6-0.2l3.6-2.6V272C271.9,272.6,272.4,273.1,273,273.1z"/>
</g>
</svg>
