<svg xmlns="http://www.w3.org/2000/svg"
         width="512.000000pt" height="512.000000pt" viewBox="0 0 512.000000 512.000000"
         preserveAspectRatio="xMidYMid meet">

        <g fill="currentColor" transform="translate(0.000000,512.000000) scale(0.100000,-0.100000)"
            stroke="none">
            <path d="M361 5109 c-172 -34 -318 -182 -351 -358 -14 -74 -14 -4308 0 -4382
    34 -180 179 -325 359 -359 74 -14 4308 -14 4382 0 180 34 325 179 359 359 14
    74 14 4308 0 4382 -34 180 -179 325 -359 359 -67 12 -4325 12 -4390 -1z m4379
    -309 c26 -13 47 -34 60 -60 19 -37 20 -58 20 -430 l0 -390 -2260 0 -2260 0 0
    390 c0 372 1 393 20 430 12 24 35 47 58 59 36 20 66 20 2180 21 2128 0 2143 0
    2182 -20z m80 -2780 c0 -1585 0 -1601 -20 -1640 -13 -26 -34 -47 -60 -60 -39
    -20 -54 -20 -2180 -20 -2126 0 -2141 0 -2180 20 -26 13 -47 34 -60 60 -20 39
    -20 55 -20 1640 l0 1600 2260 0 2260 0 0 -1600z"/>
            <path d="M678 4499 c-43 -22 -78 -81 -78 -129 0 -76 74 -150 150 -150 76 0
    150 74 150 150 0 50 -35 107 -80 130 -49 25 -94 25 -142 -1z"/>
            <path d="M1278 4499 c-43 -22 -78 -81 -78 -129 0 -50 35 -107 80 -130 21 -11
    53 -20 70 -20 76 0 150 74 150 150 0 50 -35 107 -80 130 -49 25 -94 25 -142
    -1z"/>
            <path d="M1878 4499 c-43 -22 -78 -81 -78 -129 0 -50 35 -107 80 -130 21 -11
    53 -20 70 -20 76 0 150 74 150 150 0 50 -35 107 -80 130 -49 25 -94 25 -142
    -1z"/>
            <path d="M678 3299 c-23 -12 -46 -35 -58 -59 -19 -38 -20 -58 -20 -680 0 -622
    1 -642 20 -680 13 -26 34 -47 60 -60 38 -20 57 -20 820 -20 763 0 782 0 820
    20 26 13 47 34 60 60 19 38 20 58 20 680 0 622 -1 642 -20 680 -13 26 -34 47
    -60 60 -38 20 -57 20 -822 20 -760 -1 -784 -1 -820 -21z m1422 -739 l0 -460
    -600 0 -600 0 0 460 0 460 600 0 600 0 0 -460z"/>
            <path d="M2778 2689 c-43 -22 -78 -81 -78 -129 0 -50 35 -107 80 -130 38 -20
    57 -20 830 -20 773 0 792 0 830 20 45 23 80 80 80 130 0 50 -35 107 -80 130
    -38 20 -57 20 -832 20 -770 -1 -794 -1 -830 -21z"/>
            <path d="M2778 2079 c-43 -22 -78 -81 -78 -129 0 -50 35 -107 80 -130 38 -20
    57 -20 830 -20 773 0 792 0 830 20 45 23 80 80 80 130 0 50 -35 107 -80 130
    -38 20 -57 20 -832 20 -770 -1 -794 -1 -830 -21z"/>
            <path d="M678 1479 c-43 -22 -78 -81 -78 -129 0 -50 35 -107 80 -130 39 -20
    55 -20 1880 -20 1825 0 1841 0 1880 20 45 23 80 80 80 130 0 50 -35 107 -80
    130 -39 20 -54 20 -1882 20 -1815 -1 -1844 -1 -1880 -21z"/>
            <path d="M678 879 c-43 -22 -78 -81 -78 -129 0 -50 35 -107 80 -130 39 -20 55
    -20 1880 -20 1825 0 1841 0 1880 20 45 23 80 80 80 130 0 50 -35 107 -80 130
    -39 20 -54 20 -1882 20 -1815 -1 -1844 -1 -1880 -21z"/>
        </g>
</svg>
