<?xml version="1.0" encoding="utf-8"?><svg xmlns="http://www.w3.org/2000/svg" xmlns:xlink="http://www.w3.org/1999/xlink"><symbol fill="currentColor" viewBox="0 0 512 512" id="admin" xmlns="http://www.w3.org/2000/svg"><path d="M120.4 1.9c-4.3 2.6-5.4 6.6-5.4 19.7v11.2l-3.7 1.3c-2.1.7-6 2.2-8.7 3.5l-5 2.3-9.1-8.8c-9.4-9.1-12.6-10.7-17.4-9-3.9 1.5-32.9 30.8-34.2 34.6-1.5 4.7.6 8.6 9.8 17.6l8 7.8-3.6 9-3.6 8.9H36.2c-20.8 0-21.2.6-21.2 30.5 0 29.7-.1 29.5 20.1 29.5h12.1l1.1 3.2c.7 1.7 2.4 5.7 3.8 8.7l2.6 5.6-8.7 9c-9.5 9.9-11 13.2-8.6 18.8.7 1.8 8.3 10.1 16.9 18.4C69.4 238.6 69.9 239 74 239c4 0 4.8-.5 13.6-9.2l9.4-9.2 3.3 1.2c1.9.7 3.6 1.2 3.9 1.2.3 0 .8-5.1 1.2-11.3.3-6.1 1.2-14.2 1.9-17.8l1.3-6.6-5.5-4.4c-16-12.8-25.2-31.8-25.2-52.5 0-30 17.5-54.1 46.9-64.6 3.9-1.4 9.3-2.2 17.2-2.5 9.8-.5 12.7-.2 19.5 1.6 16.8 4.6 32.4 15.9 40.2 29.1l1.7 2.9 12-.2c6.7-.1 15.4.2 19.4.6l7.2.8-2.1-5.3c-4.9-12-5.4-9.8 4.4-19.6 6.9-6.9 8.9-9.6 9.4-12.4.8-5.2-1.3-8.1-17.9-24.4-19.1-18.8-20-18.9-34.2-5.4-8.8 8.5-9.2 8.8-11.6 7.5-1.4-.8-5.3-2.4-8.7-3.6l-6.3-2.3V19.8c0-12.7 0-12.8-2.9-16L169.2.5 146.3.2c-21.1-.2-23-.1-25.9 1.7z"/><path d="M133 81.1c-27.2 7.3-43.5 35.3-36.4 62.4 2.2 8.8 9.5 20.4 15 24 2.2 1.4 2.3 1.3 7.3-8.8 13.2-26.8 34-45.8 60.8-55.6l6.3-2.3-2.1-2.7c-5.7-7.2-16.5-14-26.6-16.6-6.3-1.7-18.8-1.8-24.3-.4zM257 102.4c3.6 1.3 9 3.5 12 5 5.8 2.7 7.2 2.2 5-1.9-1.8-3.4-5.6-4.7-15-5.1l-8.5-.4 6.5 2.4zM209 122.1c-43.3 5-73.9 40.2-77.9 89.4-3.4 42.5 11.2 89.2 37.4 119.9 10.1 12 26 22.6 38 25.5 15.3 3.8 32.6-.1 46.9-10.3 25.8-18.5 45-54 52.8-97.6 2-11.5 1.7-41.5-.5-51.8-6.6-30-21.8-52.1-44.7-65-8.4-4.7-22.6-9.1-33.1-10.2-5.2-.5-9.8-.9-10.4-.9-.5.1-4.4.5-8.5 1zM330.5 180.3c-1.7 1.3-1.7 1.7-.1 9.8 3.1 15.4 4 29.7 2.7 45.6-.6 8-.9 14.8-.7 15 .2.2 2.8-.3 5.8-1.2 8.5-2.6 22-3 31.8-1.1 23.3 4.8 41 18.3 51 39.1 2.6 5.5 5.3 12 5.8 14.5 4.3 18 1.3 38.2-7.9 53.7-3.9 6.4-14.2 17.9-19.4 21.4-1.9 1.3-3.5 2.6-3.5 2.9 0 .3 2.1 3 4.6 6 9.8 11.8 19.4 27.8 25.4 42.2 5.4 13.3 8 12.4 30.2-10 9.1-9.2 16.9-17.8 17.3-19 1.6-5.4-.3-9.1-9.9-19.1l-9.3-9.6 3.8-9 3.8-9 14-.5 14.1-.5 3.2-3.3 3.3-3.2.3-24.5c.4-33.5.9-32.7-21.2-33.5l-13.9-.5-1.7-5c-1-2.8-2.7-7-3.9-9.4l-2.3-4.3 9.5-9.7c15-15.3 14.9-16-4.6-35.9-17-17.3-20.7-20.2-25.7-20.2-4.5 0-8.7 3-18.4 12.8l-6.9 7.1-3.8-2c-2.1-1-6.3-2.8-9.4-4l-5.5-2v-12.5c0-14.2-1.2-18.4-5.9-20.8-4.1-2.2-49.7-2.4-52.6-.3z"/><path d="M345 265.6c-3.5.7-8.9 2.6-11.9 4.1l-5.4 2.8-4.6 14c-2.6 8.3-7.4 19.8-11.6 28.1l-7.1 14.2 10.5 2.7c22.3 5.8 46.7 18.2 62.9 31.8 2.4 2.1 4.8 3.7 5.4 3.7 1.8 0 10.6-7 14.9-11.8 6.3-7.2 11.6-19.1 13-29.3 1-7.2.9-9.8-.5-16.5-3.6-17.7-14.3-31.8-29.9-39.3-12.5-6-22.8-7.3-35.7-4.5zM137 355.1c-27.7 5.8-50.3 18.1-70.6 38.4-18.5 18.4-26.5 32.3-37.9 65.5-5.6 16.5-6.6 20.5-6.6 26 .1 10.9 5.1 18.8 15.5 24.3l4.1 2.2 175.4.3c199.6.3 182.4 1 191.7-8.2 6.2-6.3 9-13.7 8.1-21.7-.8-6.7-13-41.7-18.3-52.2-20.1-40.5-60-69.7-103.9-75.8l-8.4-1.2-5.8 5.3c-12.4 11.3-25.5 19.1-38.8 23.1-10.9 3.2-28.6 3.7-39.9 1-15.8-3.8-29.1-11.1-42.3-23.3-7.2-6.7-7.6-6.8-22.3-3.7z"/></symbol><symbol viewBox="0 0 512 512" id="arrow" xmlns="http://www.w3.org/2000/svg"><path d="M456.5 48.7c-2.7.2-11.1 1-18.5 1.9-148.7 17.2-272.1 126.1-308 271.7-6.1 24.9-8.5 42.5-10.6 76.1l-.6 9.8-38.7-38.5c-41.5-41.4-42.1-41.9-50.5-40.3-11 2.1-16.4 16.1-9.7 25.2 1.6 2.1 26 26.9 54.2 55.1 35.4 35.3 52.6 51.7 55.1 52.8 4.4 1.8 8.3 1.9 12 .2 1.6-.7 27.3-25.7 57.3-55.6 58.5-58.4 57.5-57.2 55.9-65.7-.8-4.1-4.4-8.8-8.5-10.9-3.8-2-11.8-1.9-14.9.1-1.4.9-19.9 19-41.3 40.3-21.3 21.2-38.7 37.9-38.7 37.1 0-.8.5-8.9 1-18 3.9-61.3 22.7-116.5 56.8-166.5 10.9-16 21-28.2 35.7-43.4C298.1 125 368 90.6 444 82c5.2-.6 16.8-1.4 25.7-1.8 17.6-.8 19-1.3 23.7-7.6 2.9-3.9 2.9-13.3 0-17.2-4.6-6.2-6.5-6.9-19.7-7-6.7-.1-14.4 0-17.2.3z" fill="currentColor"/></symbol><symbol viewBox="0 0 512 512" id="bin" xmlns="http://www.w3.org/2000/svg"><g fill="currentColor"><path d="M187.1 1.1c-12.8 2.5-25.7 12.5-31.1 24.1-3.7 7.9-5 14.6-5 25.9V60h-38.9c-22.2 0-41.1.4-44.2 1-18.7 3.6-33 18.4-36.1 37.6-3 18.1 6.6 37.1 23.1 45.8l6.9 3.6.6 5.8c.4 3.1 6.5 76.3 13.6 162.7 7.2 86.3 13.4 158.7 13.9 160.8 3.6 15.5 17.7 29.5 33.5 33.2 9.1 2.2 256.1 2.2 265.2 0 15.8-3.7 29.9-17.7 33.5-33.2.5-2.1 6.7-74.5 13.9-160.8 7.1-86.4 13.2-159.6 13.6-162.7l.6-5.8 6.9-3.6c16.5-8.7 26.1-27.7 23.1-45.8-3.1-19.2-17.4-34-36.1-37.6-3.1-.6-22-1-44.2-1H361v-8.9c0-4.8-.5-11.2-1-14.2-3.4-18-17.9-32.5-35.9-35.9-6.6-1.2-130.6-1.2-137 .1zM323 32c6 3.1 8 7.8 8 19v9H181v-9c0-11 2-15.9 7.8-18.9 3.6-1.9 6-2 67-2.1 61.5 0 63.4.1 67.2 2zm120 60c4.5 2.3 8 8 8 13s-3.5 10.7-8 13c-3.9 2-5.5 2-187 2s-183.1 0-187-2c-4.5-2.3-8-8-8-13 0-4.8 3.5-10.7 7.8-12.9 3.6-2 6.5-2 187-2.1 181.8 0 183.3 0 187.2 2zm-23.6 62.2c-.2 2.4-6.3 74.7-13.4 160.6-14 169.4-12.9 159.8-19.3 164.6l-2.8 2.1H128.1l-2.8-2.1c-6.4-4.8-5.3 4.8-19.3-164.6-7.1-85.9-13.2-158.2-13.4-160.6L92 150h328l-.6 4.2z"/><path d="M158.7 182.1c-2.5 1.3-4.5 3.4-5.8 6.2l-2.1 4.3 7.6 123.4c8.5 138.1 7.6 129.9 15.5 134 5.1 2.5 9.1 2.5 14.2 0 2.7-1.4 4.6-3.4 6-6.3l2.1-4.3-7.6-123.4c-8.5-138.1-7.6-129.9-15.5-134-5-2.5-9.5-2.5-14.4.1zM248.8 182.1c-2.3 1.2-4.6 3.5-5.8 5.9-2 3.9-2 5.7-2 128 0 122.4 0 124.1 2 128 2.3 4.5 8 8 13 8s10.7-3.5 13-8c2-3.9 2-5.6 2-128s0-124.1-2-128c-3.7-7.3-12.7-9.9-20.2-5.9zM338.7 182.1c-7.7 4.1-6.8-3.7-15.3 133.9l-7.6 123.4 2.1 4.3c1.4 2.9 3.3 4.9 6 6.3 5.1 2.5 9.1 2.5 14.2 0 7.9-4.1 7 4.1 15.5-134l7.6-123.4-2.1-4.3c-3.7-7.5-12.7-10.3-20.4-6.2z"/></g></symbol><symbol fill="currentColor" id="blog" viewBox="0 0 122.88 100.72" xmlns="http://www.w3.org/2000/svg"><defs><style>.dcls-1{fill-rule:evenodd}</style></defs><path class="dcls-1" d="M111.34 93.69a7.56 7.56 0 01-7.52 7H7.54A7.56 7.56 0 010 93.18V19.51c0-3.69 3.08-6.77 6.58-7.42v18.09H4.79v63.73A2.08 2.08 0 006.88 96h97.91a2.09 2.09 0 002.09-2.09v-.22zm-88.4-69.75h87.7v37.17h-87.7V23.94zM19.06 0h96.28a7.56 7.56 0 017.54 7.54v73.67a7.56 7.56 0 01-7.54 7.54H19.06a7.56 7.56 0 01-7.54-7.54V7.54A7.56 7.56 0 0119.06 0zm99.37 18.22H16.31V82a2.07 2.07 0 002.09 2h97.91a2.07 2.07 0 002.08-2V18.22zM108.16 6.54a3.73 3.73 0 11-3.72 3.73 3.73 3.73 0 013.72-3.73zm-25.23 0a3.73 3.73 0 11-3.72 3.73 3.73 3.73 0 013.72-3.73zm12.62 0a3.73 3.73 0 11-3.73 3.73 3.73 3.73 0 013.73-3.73zM72.12 74.33a3.18 3.18 0 010-6.34h35.93a3.18 3.18 0 010 6.34zm-47 0a3.18 3.18 0 010-6.34h33.27a3.18 3.18 0 010 6.34z"/></symbol><symbol viewBox="0 0 512 512" id="calendar" xmlns="http://www.w3.org/2000/svg"><g fill="currentColor"><path d="M131.5 1.2c-4.9 1.7-9.2 5.5-11.4 10.1-1.8 3.6-2.1 6.2-2.1 15.9v11.5l-15.8.6c-21.9.9-33.2 3.5-48.5 11.3-25.2 12.8-43.3 35.7-51 64.8l-2.2 8.1v304l2.3 8.9c2.4 9.7 9.1 24.6 14.2 32.1 4.6 6.6 15.4 17.9 22.2 23.2 12.8 9.8 30.7 17.2 46.9 19.3 5.9.8 58.6 1 175.4.8l167-.3 7.7-2.2c17.9-5.1 31.2-12.3 42.9-23.1 17.4-16.2 27.5-34.4 31.4-56.8 2.3-13.1 2.3-294.8 0-307.9-3.6-20.4-12.7-37.7-28-53-21-21-43.5-29.4-79.1-29.5h-9.2l-.3-12.9c-.4-12.5-.5-13.1-3.4-17.2-8.7-12.3-26.8-11.3-33.7 2-2.6 4.9-2.8 6.2-2.8 16.7V39H158V27.6c0-10.5-.2-11.8-2.8-16.7-4.5-8.7-14.7-12.8-23.7-9.7zM118 100.5c0 23 .5 26.2 5.3 31.3 10.2 11 29.7 6.6 33.7-7.6.5-2 1-13 1-24.5V79h196v20.7c0 11.5.5 22.5 1 24.5 4 14.2 23.5 18.6 33.7 7.6 4.8-5.1 5.3-8.3 5.3-31.4V78.7l14.3.6c7.9.3 16.8 1.3 20.1 2.2 15.9 4.3 30.2 16.2 37.6 31.2 4.3 9 6 17.6 6 32V157H40v-12.3c0-14.4 1.7-23 6-32C54.8 94.9 71.3 83 91.5 80c2.7-.4 9.8-.8 15.8-.9L118 79v21.5zm354 207.8c0 108.2-.1 111.6-2 119.2-5 19.4-19.9 35.3-39.1 41.6l-7.4 2.4h-335l-7.4-2.4c-8.9-2.9-20.4-10.4-26.1-16.9-6-6.7-10.7-15.7-13-24.7-1.9-7.6-2-11.1-2-119.2V197h432v111.3z"/><path d="M110.5 257.9c-6.8 3-12.5 11.3-12.5 18.1 0 6.8 5.7 15.1 12.5 18.1 3.5 1.6 6.9 1.9 27.3 1.9 25.7 0 27.9-.4 34-6.3 2-2 3.9-5.2 4.8-8.4 1.4-4.8 1.4-5.8 0-10.6-.9-3.2-2.8-6.4-4.8-8.4-6.1-5.9-8.3-6.3-34-6.3-20.4 0-23.8.3-27.3 1.9zM227.2 258.6c-11.6 5.7-14.4 20.4-5.9 30.1 6 6.8 8.2 7.3 34.7 7.3 26 0 28.5-.5 34.4-6.8 8.8-9.4 5.3-25.7-6.9-31.3-3.5-1.6-6.8-1.9-27.6-1.9-23.3 0-23.5 0-28.7 2.6zM347 257.6c-16.6 7.2-16.5 29.9.2 36.8 3 1.3 8.2 1.6 27 1.6 20.4 0 23.8-.3 27.3-1.9 6.8-3 12.5-11.3 12.5-18.1 0-6.8-5.7-15.1-12.5-18.1-3.5-1.6-6.9-1.9-27.5-1.8-18.8 0-24.2.3-27 1.5zM109.2 376.6c-11.6 5.7-14.4 20.4-5.9 30.1 5.9 6.8 8.3 7.3 34.5 7.3 18.8 0 24-.3 27-1.6 13.6-5.6 17-22.7 6.5-32.6-5.6-5.4-8.2-5.8-33.6-5.8-23.1 0-23.4 0-28.5 2.6zM229.5 375.3c-7.1 2.8-11.6 8.2-13 15.8-1.5 7.9 3.9 17.4 12 21 3.5 1.6 6.9 1.9 27.5 1.9 26.6 0 29-.6 34.8-7.5 8.3-10.1 4.7-25-7.3-30.6-3.5-1.6-6.7-1.8-27.5-1.8-15.5 0-24.5.5-26.5 1.2zM347 375.6c-16.6 7.2-16.5 29.9.2 36.8 3 1.3 8.2 1.6 27 1.6 26.2 0 28.6-.5 34.5-7.3 8.6-9.8 5.6-24.4-6.1-30.2-4.9-2.4-5.5-2.5-28.5-2.5-18.8.1-24.3.4-27.1 1.6z"/></g></symbol><symbol fill="currentColor" viewBox="0 0 96 96" id="category-title" xmlns="http://www.w3.org/2000/svg"><path d="M42.3 4.5c-6.4 2.7-9.1 11.4-5.3 17.3 1.1 1.8 3.4 4.1 5 5 2.8 1.6 3 2.1 3 7.4v5.7l-15.7.3-15.8.3-.3 13.6-.3 13.6-3.3 1.5c-9.2 4.4-8.1 18.9 1.7 22.7 7.3 2.7 14.5-1 16.8-8.7 1-3.5.9-4.5-.7-7.9-1.1-2.1-3.3-4.7-5.1-5.8l-3.2-2-.1-10.8V46h26v10.7l-.1 10.8-3.2 2c-7.2 4.5-8.4 13.6-2.6 19.4 7.7 7.7 20.2 3.2 21.6-7.7.5-4.5-2.3-9.5-6.7-12l-3-1.7V46h26v11c0 6.1-.4 11-.9 11-2.3 0-7.1 5.5-8.1 9.1-1 3.5-.8 4.7 1 8.4 3.5 7.3 11.8 9.5 18.7 5 2.6-1.8 5.3-7.1 5.3-10.6 0-3.9-3.2-9-6.6-10.7l-3.3-1.5-.3-13.6-.3-13.6-15.7-.3-15.8-.3v-5.7c0-5.3.2-5.8 3-7.4 9.1-5.2 8.8-18.5-.5-22.4-4.2-1.7-7.1-1.7-11.2.1zm10.3 8c3.4 5.2-1.5 11.2-7.1 8.7C40.1 18.7 42 10 48 10c2 0 3.5.8 4.6 2.5z"/></symbol><symbol fill="currentColor" shape-rendering="geometricPrecision" text-rendering="geometricPrecision" image-rendering="optimizeQuality" fill-rule="evenodd" clip-rule="evenodd" viewBox="0 0 512 411.22" id="category_card" xmlns="http://www.w3.org/2000/svg"><path d="M8.39 0h157.9c4.62 0 8.39 3.77 8.39 8.39v157.9c0 4.62-3.77 8.39-8.39 8.39H8.39c-4.62 0-8.39-3.77-8.39-8.39V8.39C0 3.77 3.77 0 8.39 0zm236.57 355.85h258.65c4.62 0 8.39 3.8 8.39 8.4v38.57c0 4.6-3.79 8.39-8.39 8.39H244.96c-4.6 0-8.39-3.77-8.39-8.39v-38.57c0-4.63 3.77-8.4 8.39-8.4zm0-118.61h258.65c4.62 0 8.39 3.79 8.39 8.39v38.57c0 4.6-3.79 8.4-8.39 8.4H244.96c-4.6 0-8.39-3.77-8.39-8.4v-38.57c0-4.62 3.77-8.39 8.39-8.39zm0-118.62h258.65c4.62 0 8.39 3.79 8.39 8.39v38.58c0 4.6-3.79 8.4-8.39 8.4H244.96c-4.6 0-8.39-3.78-8.39-8.4v-38.58c0-4.61 3.77-8.39 8.39-8.39zm0-118.62h258.65c4.62 0 8.39 3.8 8.39 8.39v38.58c0 4.59-3.79 8.39-8.39 8.39H244.96c-4.6 0-8.39-3.77-8.39-8.39V8.39c0-4.62 3.77-8.39 8.39-8.39zM8.39 236.53h157.9c4.62 0 8.39 3.77 8.39 8.39v157.91c0 4.61-3.77 8.39-8.39 8.39H8.39c-4.62 0-8.39-3.78-8.39-8.39V244.92c0-4.62 3.77-8.39 8.39-8.39z"/></symbol><symbol fill="currentColor" viewBox="0 0 512 512" id="document" xmlns="http://www.w3.org/2000/svg"><path d="M105.5 1C86.1 5 70.3 18.9 63.8 37.8l-2.3 6.7v423l2.3 6.6c5.7 16.6 18.5 29.4 35 35.1l6.7 2.3h301l6.7-2.3c16.3-5.7 28.6-17.8 35-34.8l2.3-5.9.3-159.2.2-159.2-64.7-.3-64.8-.3-5.5-2.6c-8.2-3.9-13.5-9-17.2-16.7l-3.3-6.7-.3-61.7-.3-61.8-92.7.1c-51 .1-94.5.5-96.7.9zM370 202c4.5 2.3 8 8 8 13s-3.5 10.7-8 13c-3.9 2-5.6 2-117.1 2H139.8l-4-2.2c-10.1-5.7-10.2-19.4-.2-25.4l3.9-2.4h113.3c111.6 0 113.3 0 117.2 2zm0 80c4.5 2.3 8 8 8 13s-3.5 10.7-8 13c-3.9 2-5.6 2-117.1 2H139.8l-4-2.2c-10.1-5.7-10.2-19.4-.2-25.4l3.9-2.4h113.3c111.6 0 113.3 0 117.2 2zm-146.4 80.6c5 3.7 6.8 7 6.8 12.4s-1.8 8.7-6.8 12.4c-2.6 2-4.1 2.1-43.2 2.4l-40.5.3-4.1-2.3c-10.1-5.7-10.2-19.3-.2-25.4l3.9-2.4 40.7.2c39.3.3 40.7.4 43.4 2.4z"/><path d="M325 61.9c0 48.6.2 55.1 1.6 56.5 1.4 1.4 8.1 1.6 59.5 1.6h58l-1.2-2.3c-2.8-5.3-8.6-11.1-56.6-56.4C340.5 17.9 328.3 7 325.8 7c-.4 0-.8 24.7-.8 54.9z"/></symbol><symbol viewBox="0 0 512 512" id="edit" xmlns="http://www.w3.org/2000/svg"><g fill="currentColor"><path d="M425.3 4c-7.8 2-11.4 3.7-18.3 8.3-4.4 2.9-232.3 229.6-236.1 234.9-2.1 2.9-32.9 112.2-32.9 116.8 0 5.6 6.5 12 12.2 12 4.4 0 113.8-30.9 116.6-32.9 1.5-1.1 54.3-53.6 117.4-116.8 83.7-83.8 115.7-116.5 118.7-121.2 7.4-11.6 10.5-27 8.2-40.7-.7-3.9-3-10.5-5.3-15.4-3.6-7.6-5.5-9.9-18.2-22.6-12.7-12.7-15-14.5-22.6-18.2-13.5-6.5-26-7.8-39.7-4.2zm29 27.2c5.5 2.7 25.8 23.1 28.8 28.8 2 3.8 2.4 6 2.4 14 0 12.1-1.8 16-13.2 27.9l-8.2 8.6-30.3-30.3-30.3-30.3 8.8-8.4c4.9-4.6 10.8-9.3 13.2-10.5 8.7-4.2 20.3-4.1 28.8.2zM416 98.5l29.5 29.5-93.3 93.2-93.2 93.3-29.5-29.5c-16.2-16.2-29.5-29.9-29.5-30.5C200 253.2 384.2 69 385.5 69c.6 0 14.3 13.3 30.5 29.5zM233.8 326.9c-3.7 1.2-64.3 17.9-64.5 17.8-.1-.1 3-11.5 6.8-25.2 3.8-13.8 7.9-28.5 9.1-32.9l2.1-7.8 23.8 23.8c13.2 13.2 23.3 24.1 22.7 24.3z"/><path d="M48 53.6C27.1 59.2 11 74.2 3.6 95l-3.1 8.5V281c0 169.3.1 177.8 1.8 183.4 3.7 12 7.7 18.7 16.7 27.7 6.3 6.3 10.4 9.5 15.7 12.1 14.6 7.3.3 6.9 211.3 6.6l189.5-.3 6.7-2.6c19.7-7.7 33.6-21.8 40.1-40.9 2.2-6.4 2.2-7.4 2.5-71 .3-57.9.2-64.8-1.3-67.6-2.1-4-6.4-6.4-11.4-6.4-3.3 0-4.9.7-7.9 3.4l-3.7 3.4-.5 63.4c-.5 63.1-.5 63.3-2.8 69-4.1 10.2-11.8 17.9-22 22l-5.7 2.3-183.4.3c-121.1.1-185.3-.1-189-.8-12-2.2-22.7-10.4-27.7-21.3l-2.9-6.2v-352l2.9-6.3c3.7-8 12.2-16.1 20.3-19.4l5.8-2.3 63-.5c70.4-.6 66.4-.1 70-7.7 2.3-4.8 1.3-9.5-3.1-13.8l-3.5-3.5-64.2.1c-53.3 0-65.1.3-69.7 1.5z"/></g></symbol><symbol fill="currentColor" id="form" viewBox="0 0 122.88 120.45" xml:space="preserve" xmlns="http://www.w3.org/2000/svg"><style>.jst0{fill-rule:evenodd;clip-rule:evenodd}</style><path class="jst0" d="M8.89 0h105.1c4.9 0 8.89 4 8.89 8.89v102.68c0 4.88-4 8.89-8.89 8.89H8.89c-4.88 0-8.89-4-8.89-8.89V8.89C-.01 4 3.99 0 8.89 0zm57.28 91.29h30.49c1.95 0 3.54 1.61 3.54 3.54v6.69c0 1.94-1.61 3.54-3.54 3.54H66.17c-1.93 0-3.54-1.59-3.54-3.54v-6.69c0-1.95 1.59-3.54 3.54-3.54zm-39.94-30.5h70.42c1.71 0 3.27.7 4.41 1.84l.01.01a6.22 6.22 0 011.83 4.41v8.85c0 1.71-.7 3.28-1.83 4.41l-.01.01a6.22 6.22 0 01-4.41 1.83H26.23c-1.71 0-3.27-.7-4.41-1.83l-.01-.01a6.22 6.22 0 01-1.83-4.41v-8.85c0-1.71.7-3.27 1.83-4.41l.01-.01a6.223 6.223 0 014.41-1.84zm70.42 5.42H26.23c-.23 0-.44.09-.59.24-.15.15-.24.36-.24.59v8.85c0 .23.09.44.24.59.15.15.36.24.59.24h70.42c.23 0 .44-.09.59-.24.15-.15.24-.36.24-.59v-8.85c0-.23-.09-.44-.24-.59a.831.831 0 00-.59-.24zM26.23 33h70.42c1.71 0 3.27.7 4.41 1.83l.01.01a6.22 6.22 0 011.83 4.41v8.85c0 1.71-.7 3.28-1.83 4.41l-.01.01a6.22 6.22 0 01-4.41 1.83H26.23c-1.71 0-3.27-.7-4.41-1.83l-.01-.01a6.22 6.22 0 01-1.83-4.41v-8.85c0-1.71.7-3.27 1.83-4.41l.01-.01A6.256 6.256 0 0126.23 33zm70.42 5.42H26.23c-.23 0-.44.09-.59.24-.15.15-.24.36-.24.59v8.85c0 .23.09.44.24.59.15.15.36.24.59.24h70.42c.23 0 .44-.09.59-.24.15-.15.24-.36.24-.59v-8.85c0-.23-.09-.44-.24-.59a.831.831 0 00-.59-.24zm18.15-11.41H8.46v82.6c0 .68.27 1.28.72 1.74.46.46 1.06.72 1.74.72H112.3c.68 0 1.28-.27 1.74-.72.46-.46.72-1.06.72-1.74v-82.6h.04zm-9.27-17.37a4.39 4.39 0 11-4.39 4.39 4.37 4.37 0 014.39-4.39zm-29.77 0c2.42 0 4.39 1.97 4.39 4.39s-1.97 4.39-4.39 4.39-4.39-1.97-4.39-4.39a4.37 4.37 0 014.39-4.39zm14.88 0c2.42 0 4.39 1.97 4.39 4.39s-1.97 4.39-4.39 4.39-4.39-1.97-4.39-4.39c0-2.43 1.96-4.39 4.39-4.39z"/></symbol><symbol viewBox="0 0 512 512" id="guide" xmlns="http://www.w3.org/2000/svg"><g fill="currentColor"><path d="M110.5 1.4c-8.4 2.1-14.7 5.7-21.1 12.1-6.5 6.5-10.5 13.6-12.3 22.3-.6 3.1-1.1 15.9-1.1 30.7V92H46v30h30v60H46v30h30v60H46v30h30v60H46v30h30v39.5c0 25.6.4 41.3 1.1 44.7 3.7 17.2 17.5 31 34.7 34.7 3.8.8 53.5 1.1 179.7 1.1H466V0L290.8.1C154 .2 114.4.4 110.5 1.4zM436 226v196l-162.2.3c-89.3.2-163.5.7-165 1.1l-2.8.8V392h30v-30h-30v-60h30v-30h-30v-60h30v-30h-30v-60h30V92h-30V66.7c.1-28.5.4-30 7.6-34.3l3.9-2.4H436v196zm0 241v15H117.8l-4-2.2c-10.1-5.7-10.2-19.4-.2-25.4l3.9-2.4H436v15z"/><path d="M274 107.5c-.8.2-4.9.9-9 1.5-35.8 5.8-69.4 30.9-86.2 64.5-8.9 17.7-12.2 32-12.3 53 0 16.3 1.1 23.9 5.6 37.7 9.7 30 31.9 55.7 60.7 70.2 8.5 4.3 21.6 8.7 31.7 10.7 10.3 2.1 34.9 1.8 45.5-.5 42.3-9.1 76.8-39.9 89.9-80.4 4.4-13.6 5.6-21.5 5.6-37.2 0-8.3-.6-17.5-1.4-21.5-9.5-47.9-45.1-84.9-92.1-95.6-7.8-1.8-33.8-3.5-38-2.4zm34.5 32.5c31.3 8.1 56 32.8 64.6 64.5 1.8 6.5 2.2 10.7 2.2 22.5s-.4 16-2.2 22.5c-8.6 31.7-32.9 56.1-64.6 64.6-10.5 2.9-32.5 3.2-42.8.6-32.8-8.2-58-32.8-66.8-65.2-3.2-11.5-3.2-33.5 0-45 9.2-34.1 36.6-59.5 70.9-66 10.4-2 28.2-1.3 38.7 1.5z"/><path d="M271 182v15h30v-30h-30v15zM271 257v30h30v-60h-30v30z"/></g></symbol><symbol viewBox="0 0 12 12" fill="currentColor" id="home" xmlns="http://www.w3.org/2000/svg"><path d="M0 4v7a1 1 0 001 1h3V8h4v4h3a1 1 0 001-1V4L6 0 0 4z"/></symbol><symbol viewBox="0 0 512 512" id="image" xmlns="http://www.w3.org/2000/svg"><path d="M45.3 17.5c-3.5.8-9.3 2.8-13 4.6C23 26.6 10.6 39 6.2 48.2-.4 61.8-.1 49.7.2 259.3l.3 190.2 2.7 7.4c6.4 17.4 19.8 30.6 37 36.2l7.3 2.4h417l7.3-2.4c17.2-5.6 30.6-18.8 37-36.2l2.7-7.4.3-190.2c.3-209.6.6-197.5-6-211.1-4.4-9.2-16.8-21.6-26-26-13.4-6.5 0-6.2-224.3-6.1-167.9 0-205.1.3-210.2 1.4zm302.8 87.4c11.7 3.7 22.6 12.2 30 23.4 17.9 27.4 7.4 65-22.2 79.6-36 17.7-77.3-6.1-80.5-46.4-2.1-26.3 17.3-52 43.9-58 8-1.9 20.2-1.2 28.8 1.4zm-162.3 113c2 1.1 5 3.3 6.7 5 1.6 1.8 25 32 52 67.3 45 58.9 49.4 64.3 54.4 67.1 6.4 3.6 14.4 4 20.7 1.1 2.2-1 11.4-9.1 20.5-18 17.5-17.1 19.4-18.4 28.5-18.4 5.9 0 13.3 4.1 17.6 9.7 8.2 10.9 61.3 87.1 63.4 91.2 4.1 7.5 2.5 14.4-4 17.5-3.1 1.5-19.1 1.6-185.8 1.6-175.5 0-182.5-.1-185.8-1.9-4.7-2.4-8-7.5-8-12 0-2 1.1-6.1 2.3-9.1 5-12 98-194.7 100.5-197.4 5.2-5.6 10.9-6.8 17-3.7z" fill="currentColor"/></symbol><symbol fill="currentColor" viewBox="0 0 512 512" id="lock" xmlns="http://www.w3.org/2000/svg"><path d="M242 .6c-20.8 2.7-40.7 10.1-58 21.7-9.6 6.4-27.3 24.1-33.7 33.7-9.2 13.7-15.5 28.2-19.5 45-1.9 7.7-2.1 12.5-2.5 49.7l-.5 41.3h-10.7c-6.4 0-13.1.6-16.6 1.5-17.2 4.5-30.5 17.9-35 35.2-2.2 8.6-2.2 238 0 246.6 4.5 17.3 17.8 30.7 35 35.2 5.2 1.3 24.4 1.5 155.5 1.5s150.3-.2 155.5-1.5c17.2-4.5 30.5-17.9 35-35.2 2.2-8.6 2.2-238 0-246.6-4.5-17.3-17.8-30.7-35-35.2-3.5-.9-10.2-1.5-16.6-1.5h-10.7l-.5-41.3c-.4-37.2-.6-42-2.5-49.7-6.2-25.7-17-45-35.1-63.1-18.5-18.5-38-29.3-63.1-35-8.3-1.9-33.1-3.3-41-2.3zm37.1 34.3c18.2 4.7 32 12.8 45.4 26.5 9.5 9.7 16.2 19.9 20.9 31.7 5.7 14.7 5.9 16.3 6.3 59.1l.4 39.8H159.9l.3-39.8c.4-36.7.6-40.3 2.5-47.3 5.1-18.4 13-31.9 26.2-44.9 15.4-15.3 30.3-22.7 55.1-27.4 5.9-1.1 27.7.3 35.1 2.3zm129.5 191.7c1.5 1.1 3.7 3.3 4.8 4.8 2.1 2.7 2.1 3.3 2.4 119.2.3 128.9.7 120.7-6.4 126l-3.7 2.9H106.3l-3.7-2.9c-7-5.3-6.6 2.6-6.6-124.5 0-79 .3-115.9 1.1-117.8 1.4-3.7 4.7-7.3 8.4-8.9 2.5-1.1 29.3-1.3 151.7-1.1 148.4.2 148.7.2 151.4 2.3z"/><path d="M248.7 278c-22.2 3.9-38.3 26.2-34.8 48.1 2.1 13.1 11.6 26.7 21.9 31.3l4.2 1.9v27.4c0 25.3.2 27.7 2 31.2 5.7 11.3 22.3 11.3 28 0 1.8-3.5 2-5.9 2-31.2v-27.4l4.2-1.9c10.3-4.6 19.8-18.2 21.9-31.3 2.4-15.2-5.1-32.6-17.7-41-9.4-6.2-21.5-8.9-31.7-7.1zm11.8 32.6c3.1 1.4 6.5 6.4 6.5 9.4 0 .7-.7 2.7-1.6 4.5-1.9 4.1-7.3 6.9-11.4 6-3.7-.8-7.7-4.8-8.5-8.5-.9-4 1.9-9.5 5.8-11.4 4-2 5.1-2 9.2 0z"/></symbol><symbol fill="currentColor" viewBox="0 0 512 512" id="logout" xmlns="http://www.w3.org/2000/svg"><path d="M48.2 3C30.4 7.7 15 20.1 7.1 36.1-.5 51.5 0 35.9 0 256c0 169.6.2 198.5 1.5 204.5C6.4 483.7 25.1 503 48.6 509c7.4 1.9 11.5 2 109.4 2h101.6l5.1-2.5c7.2-3.6 10.6-9 11.1-17.5.4-8.1-2.3-14-8.7-18.5l-4.3-3-102.1-.5-102.2-.5-4-2.2c-5-2.7-8-5.8-10-10.5-1.3-3.3-1.5-25.1-1.5-199.8 0-174.7.2-196.5 1.5-199.8 2-4.7 5-7.8 10-10.5l4-2.2 102.2-.5 102.1-.5 4.3-3c6.4-4.5 9.1-10.4 8.7-18.5-.5-8.5-3.9-13.9-11.1-17.5L259.6 1l-102 .1C60.4 1.1 55.1 1.2 48.2 3z"/><path d="M355.6 108c-13.5 4.3-19.6 20.6-11.8 31.7 1.5 2.1 23.2 24 48.2 48.8 25 24.7 45.7 45.3 45.8 45.7.2.5-56.3.8-125.5.8H186.4l-4.4 2.2c-5.5 2.9-9.5 7.9-11.2 14-2.4 9.1 2.4 19 11.2 23.5l4.4 2.3h125.9c69.2 0 125.7.3 125.5.8-.1.4-20.8 21-45.8 45.7-25 24.8-46.7 46.7-48.2 48.8-12.1 17.2 8.5 39.9 27.5 30 4-2 136.3-132.7 138.5-136.8 2.2-4 2.2-15 0-19-2.2-4.2-134.5-134.8-138.6-136.9-4-2.1-11.7-2.9-15.6-1.6z"/></symbol><symbol fill="currentColor" viewBox="0 0 325 325.375" id="pen" xmlns="http://www.w3.org/2000/svg"><path d="M114.688 284.676l-73.801-73.801 178.5-178.5 73.8 73.8zm-80.7-60.801l67.7 67.7-101.5 33.8zm281.899-140.3l-12.801 12.8-73.899-73.898 12.801-12.801c12.895-12.903 33.805-12.903 46.7 0l27.199 27.199c12.8 12.937 12.8 33.766 0 46.7zm0 0"/></symbol><symbol fill="currentColor" viewBox="0 0 29 31.41" id="phone" xmlns="http://www.w3.org/2000/svg"><path d="M1.05 1.51L6.94.04c.64-.16 1.3.2 1.56.85l2.72 6.87c.24.6.08 1.31-.39 1.72L7.4 12.52c2.04 4.7 5.6 8.62 10.04 10.87l2.81-3.72c.39-.51 1.03-.68 1.59-.42l6.34 2.94c.61.29.94 1 .79 1.69l-1.36 6.38c-.14.66-.69 1.14-1.33 1.14C11.78 31.41 0 18.68 0 2.95c0-.69.44-1.29 1.05-1.44z"/></symbol><symbol viewBox="0 0 512 512" id="post" xmlns="http://www.w3.org/2000/svg"><g fill="currentColor"><path d="M36.1 1.1C18.9 4.5 4.3 19.3 1 36.9-.4 44.3-.4 467.7 1 475.1c3.4 18 17.9 32.5 35.9 35.9 7.4 1.4 430.8 1.4 438.2 0 18-3.4 32.5-17.9 35.9-35.9 1.4-7.4 1.4-430.8 0-438.2-3.4-18-17.9-32.5-35.9-35.9-6.7-1.2-432.5-1.2-439 .1zM474 32c2.6 1.3 4.7 3.4 6 6 1.9 3.7 2 5.8 2 43v39H30V81c0-37.2.1-39.3 2-43 1.2-2.4 3.5-4.7 5.8-5.9 3.6-2 6.6-2 218-2.1 212.8 0 214.3 0 218.2 2zm8 278c0 158.5 0 160.1-2 164-1.3 2.6-3.4 4.7-6 6-3.9 2-5.4 2-218 2s-214.1 0-218-2c-2.6-1.3-4.7-3.4-6-6-2-3.9-2-5.5-2-164V150h452v160z"/><path d="M67.8 62.1C63.5 64.3 60 70.2 60 75c0 7.6 7.4 15 15 15s15-7.4 15-15c0-5-3.5-10.7-8-13-4.9-2.5-9.4-2.5-14.2.1zM127.8 62.1c-4.3 2.2-7.8 8.1-7.8 12.9 0 5 3.5 10.7 8 13 2.1 1.1 5.3 2 7 2 7.6 0 15-7.4 15-15 0-5-3.5-10.7-8-13-4.9-2.5-9.4-2.5-14.2.1zM187.8 62.1c-4.3 2.2-7.8 8.1-7.8 12.9 0 5 3.5 10.7 8 13 2.1 1.1 5.3 2 7 2 7.6 0 15-7.4 15-15 0-5-3.5-10.7-8-13-4.9-2.5-9.4-2.5-14.2.1zM67.8 182.1c-2.3 1.2-4.6 3.5-5.8 5.9-1.9 3.8-2 5.8-2 68s.1 64.2 2 68c1.3 2.6 3.4 4.7 6 6 3.8 2 5.7 2 82 2s78.2 0 82-2c2.6-1.3 4.7-3.4 6-6 1.9-3.8 2-5.8 2-68s-.1-64.2-2-68c-1.3-2.6-3.4-4.7-6-6-3.8-2-5.7-2-82.2-2-76 .1-78.4.1-82 2.1zM210 256v46H90v-92h120v46zM277.8 243.1c-4.3 2.2-7.8 8.1-7.8 12.9 0 5 3.5 10.7 8 13 3.8 2 5.7 2 83 2s79.2 0 83-2c4.5-2.3 8-8 8-13s-3.5-10.7-8-13c-3.8-2-5.7-2-83.2-2-77 .1-79.4.1-83 2.1zM277.8 304.1c-4.3 2.2-7.8 8.1-7.8 12.9 0 5 3.5 10.7 8 13 3.8 2 5.7 2 83 2s79.2 0 83-2c4.5-2.3 8-8 8-13s-3.5-10.7-8-13c-3.8-2-5.7-2-83.2-2-77 .1-79.4.1-83 2.1zM67.8 364.1c-4.3 2.2-7.8 8.1-7.8 12.9 0 5 3.5 10.7 8 13 3.9 2 5.5 2 188 2s184.1 0 188-2c4.5-2.3 8-8 8-13s-3.5-10.7-8-13c-3.9-2-5.4-2-188.2-2-181.5.1-184.4.1-188 2.1zM67.8 424.1c-4.3 2.2-7.8 8.1-7.8 12.9 0 5 3.5 10.7 8 13 3.9 2 5.5 2 188 2s184.1 0 188-2c4.5-2.3 8-8 8-13s-3.5-10.7-8-13c-3.9-2-5.4-2-188.2-2-181.5.1-184.4.1-188 2.1z"/></g></symbol><symbol fill="currentColor" viewBox="0 0 12 12" id="search" xmlns="http://www.w3.org/2000/svg"><path d="M11.72 10.3L9.18 7.78a5 5 0 10-1.4 1.41l2.53 2.54a1 1 0 001.41-1.41zm-9.7-5.28a3 3 0 116 0 3 3 0 01-6 0z"/></symbol><symbol viewBox="0 0 0 0" id="sprite" xmlns="http://www.w3.org/2000/svg"><symbol fill="currentColor" viewBox="0 0 512 512" id="tadmin" xmlns="http://www.w3.org/2000/svg"><path d="M120.4 1.9c-4.3 2.6-5.4 6.6-5.4 19.7v11.2l-3.7 1.3c-2.1.7-6 2.2-8.7 3.5l-5 2.3-9.1-8.8c-9.4-9.1-12.6-10.7-17.4-9-3.9 1.5-32.9 30.8-34.2 34.6-1.5 4.7.6 8.6 9.8 17.6l8 7.8-3.6 9-3.6 8.9H36.2c-20.8 0-21.2.6-21.2 30.5 0 29.7-.1 29.5 20.1 29.5h12.1l1.1 3.2c.7 1.7 2.4 5.7 3.8 8.7l2.6 5.6-8.7 9c-9.5 9.9-11 13.2-8.6 18.8.7 1.8 8.3 10.1 16.9 18.4C69.4 238.6 69.9 239 74 239c4 0 4.8-.5 13.6-9.2l9.4-9.2 3.3 1.2c1.9.7 3.6 1.2 3.9 1.2.3 0 .8-5.1 1.2-11.3.3-6.1 1.2-14.2 1.9-17.8l1.3-6.6-5.5-4.4c-16-12.8-25.2-31.8-25.2-52.5 0-30 17.5-54.1 46.9-64.6 3.9-1.4 9.3-2.2 17.2-2.5 9.8-.5 12.7-.2 19.5 1.6 16.8 4.6 32.4 15.9 40.2 29.1l1.7 2.9 12-.2c6.7-.1 15.4.2 19.4.6l7.2.8-2.1-5.3c-4.9-12-5.4-9.8 4.4-19.6 6.9-6.9 8.9-9.6 9.4-12.4.8-5.2-1.3-8.1-17.9-24.4-19.1-18.8-20-18.9-34.2-5.4-8.8 8.5-9.2 8.8-11.6 7.5-1.4-.8-5.3-2.4-8.7-3.6l-6.3-2.3V19.8c0-12.7 0-12.8-2.9-16L169.2.5 146.3.2c-21.1-.2-23-.1-25.9 1.7z"/><path d="M133 81.1c-27.2 7.3-43.5 35.3-36.4 62.4 2.2 8.8 9.5 20.4 15 24 2.2 1.4 2.3 1.3 7.3-8.8 13.2-26.8 34-45.8 60.8-55.6l6.3-2.3-2.1-2.7c-5.7-7.2-16.5-14-26.6-16.6-6.3-1.7-18.8-1.8-24.3-.4zm124 21.3c3.6 1.3 9 3.5 12 5 5.8 2.7 7.2 2.2 5-1.9-1.8-3.4-5.6-4.7-15-5.1l-8.5-.4 6.5 2.4zm-48 19.7c-43.3 5-73.9 40.2-77.9 89.4-3.4 42.5 11.2 89.2 37.4 119.9 10.1 12 26 22.6 38 25.5 15.3 3.8 32.6-.1 46.9-10.3 25.8-18.5 45-54 52.8-97.6 2-11.5 1.7-41.5-.5-51.8-6.6-30-21.8-52.1-44.7-65-8.4-4.7-22.6-9.1-33.1-10.2-5.2-.5-9.8-.9-10.4-.9-.5.1-4.4.5-8.5 1zm121.5 58.2c-1.7 1.3-1.7 1.7-.1 9.8 3.1 15.4 4 29.7 2.7 45.6-.6 8-.9 14.8-.7 15 .2.2 2.8-.3 5.8-1.2 8.5-2.6 22-3 31.8-1.1 23.3 4.8 41 18.3 51 39.1 2.6 5.5 5.3 12 5.8 14.5 4.3 18 1.3 38.2-7.9 53.7-3.9 6.4-14.2 17.9-19.4 21.4-1.9 1.3-3.5 2.6-3.5 2.9 0 .3 2.1 3 4.6 6 9.8 11.8 19.4 27.8 25.4 42.2 5.4 13.3 8 12.4 30.2-10 9.1-9.2 16.9-17.8 17.3-19 1.6-5.4-.3-9.1-9.9-19.1l-9.3-9.6 3.8-9 3.8-9 14-.5 14.1-.5 3.2-3.3 3.3-3.2.3-24.5c.4-33.5.9-32.7-21.2-33.5l-13.9-.5-1.7-5c-1-2.8-2.7-7-3.9-9.4l-2.3-4.3 9.5-9.7c15-15.3 14.9-16-4.6-35.9-17-17.3-20.7-20.2-25.7-20.2-4.5 0-8.7 3-18.4 12.8l-6.9 7.1-3.8-2c-2.1-1-6.3-2.8-9.4-4l-5.5-2v-12.5c0-14.2-1.2-18.4-5.9-20.8-4.1-2.2-49.7-2.4-52.6-.3z"/><path d="M345 265.6c-3.5.7-8.9 2.6-11.9 4.1l-5.4 2.8-4.6 14c-2.6 8.3-7.4 19.8-11.6 28.1l-7.1 14.2 10.5 2.7c22.3 5.8 46.7 18.2 62.9 31.8 2.4 2.1 4.8 3.7 5.4 3.7 1.8 0 10.6-7 14.9-11.8 6.3-7.2 11.6-19.1 13-29.3 1-7.2.9-9.8-.5-16.5-3.6-17.7-14.3-31.8-29.9-39.3-12.5-6-22.8-7.3-35.7-4.5zm-208 89.5c-27.7 5.8-50.3 18.1-70.6 38.4-18.5 18.4-26.5 32.3-37.9 65.5-5.6 16.5-6.6 20.5-6.6 26 .1 10.9 5.1 18.8 15.5 24.3l4.1 2.2 175.4.3c199.6.3 182.4 1 191.7-8.2 6.2-6.3 9-13.7 8.1-21.7-.8-6.7-13-41.7-18.3-52.2-20.1-40.5-60-69.7-103.9-75.8l-8.4-1.2-5.8 5.3c-12.4 11.3-25.5 19.1-38.8 23.1-10.9 3.2-28.6 3.7-39.9 1-15.8-3.8-29.1-11.1-42.3-23.3-7.2-6.7-7.6-6.8-22.3-3.7z"/></symbol><symbol viewBox="0 0 512 512" id="tarrow" xmlns="http://www.w3.org/2000/svg"><path d="M456.5 48.7c-2.7.2-11.1 1-18.5 1.9-148.7 17.2-272.1 126.1-308 271.7-6.1 24.9-8.5 42.5-10.6 76.1l-.6 9.8-38.7-38.5c-41.5-41.4-42.1-41.9-50.5-40.3-11 2.1-16.4 16.1-9.7 25.2 1.6 2.1 26 26.9 54.2 55.1 35.4 35.3 52.6 51.7 55.1 52.8 4.4 1.8 8.3 1.9 12 .2 1.6-.7 27.3-25.7 57.3-55.6 58.5-58.4 57.5-57.2 55.9-65.7-.8-4.1-4.4-8.8-8.5-10.9-3.8-2-11.8-1.9-14.9.1-1.4.9-19.9 19-41.3 40.3-21.3 21.2-38.7 37.9-38.7 37.1 0-.8.5-8.9 1-18 3.9-61.3 22.7-116.5 56.8-166.5 10.9-16 21-28.2 35.7-43.4C298.1 125 368 90.6 444 82c5.2-.6 16.8-1.4 25.7-1.8 17.6-.8 19-1.3 23.7-7.6 2.9-3.9 2.9-13.3 0-17.2-4.6-6.2-6.5-6.9-19.7-7-6.7-.1-14.4 0-17.2.3z" fill="currentColor"/></symbol><symbol viewBox="0 0 512 512" id="tbin" xmlns="http://www.w3.org/2000/svg"><g fill="currentColor"><path d="M187.1 1.1c-12.8 2.5-25.7 12.5-31.1 24.1-3.7 7.9-5 14.6-5 25.9V60h-38.9c-22.2 0-41.1.4-44.2 1-18.7 3.6-33 18.4-36.1 37.6-3 18.1 6.6 37.1 23.1 45.8l6.9 3.6.6 5.8c.4 3.1 6.5 76.3 13.6 162.7 7.2 86.3 13.4 158.7 13.9 160.8 3.6 15.5 17.7 29.5 33.5 33.2 9.1 2.2 256.1 2.2 265.2 0 15.8-3.7 29.9-17.7 33.5-33.2.5-2.1 6.7-74.5 13.9-160.8 7.1-86.4 13.2-159.6 13.6-162.7l.6-5.8 6.9-3.6c16.5-8.7 26.1-27.7 23.1-45.8-3.1-19.2-17.4-34-36.1-37.6-3.1-.6-22-1-44.2-1H361v-8.9c0-4.8-.5-11.2-1-14.2-3.4-18-17.9-32.5-35.9-35.9-6.6-1.2-130.6-1.2-137 .1zM323 32c6 3.1 8 7.8 8 19v9H181v-9c0-11 2-15.9 7.8-18.9 3.6-1.9 6-2 67-2.1 61.5 0 63.4.1 67.2 2zm120 60c4.5 2.3 8 8 8 13s-3.5 10.7-8 13c-3.9 2-5.5 2-187 2s-183.1 0-187-2c-4.5-2.3-8-8-8-13 0-4.8 3.5-10.7 7.8-12.9 3.6-2 6.5-2 187-2.1 181.8 0 183.3 0 187.2 2zm-23.6 62.2c-.2 2.4-6.3 74.7-13.4 160.6-14 169.4-12.9 159.8-19.3 164.6l-2.8 2.1H128.1l-2.8-2.1c-6.4-4.8-5.3 4.8-19.3-164.6-7.1-85.9-13.2-158.2-13.4-160.6L92 150h328l-.6 4.2z"/><path d="M158.7 182.1c-2.5 1.3-4.5 3.4-5.8 6.2l-2.1 4.3 7.6 123.4c8.5 138.1 7.6 129.9 15.5 134 5.1 2.5 9.1 2.5 14.2 0 2.7-1.4 4.6-3.4 6-6.3l2.1-4.3-7.6-123.4c-8.5-138.1-7.6-129.9-15.5-134-5-2.5-9.5-2.5-14.4.1zm90.1 0c-2.3 1.2-4.6 3.5-5.8 5.9-2 3.9-2 5.7-2 128 0 122.4 0 124.1 2 128 2.3 4.5 8 8 13 8s10.7-3.5 13-8c2-3.9 2-5.6 2-128s0-124.1-2-128c-3.7-7.3-12.7-9.9-20.2-5.9zm89.9 0c-7.7 4.1-6.8-3.7-15.3 133.9l-7.6 123.4 2.1 4.3c1.4 2.9 3.3 4.9 6 6.3 5.1 2.5 9.1 2.5 14.2 0 7.9-4.1 7 4.1 15.5-134l7.6-123.4-2.1-4.3c-3.7-7.5-12.7-10.3-20.4-6.2z"/></g></symbol><symbol fill="currentColor" id="tblog" viewBox="0 0 122.88 100.72" xmlns="http://www.w3.org/2000/svg"><defs><style>.tdcls-1{fill-rule:evenodd}</style></defs><path class="tdcls-1" d="M111.34 93.69a7.56 7.56 0 01-7.52 7H7.54A7.56 7.56 0 010 93.18V19.51c0-3.69 3.08-6.77 6.58-7.42v18.09H4.79v63.73A2.08 2.08 0 006.88 96h97.91a2.09 2.09 0 002.09-2.09v-.22zm-88.4-69.75h87.7v37.17h-87.7V23.94zM19.06 0h96.28a7.56 7.56 0 017.54 7.54v73.67a7.56 7.56 0 01-7.54 7.54H19.06a7.56 7.56 0 01-7.54-7.54V7.54A7.56 7.56 0 0119.06 0zm99.37 18.22H16.31V82a2.07 2.07 0 002.09 2h97.91a2.07 2.07 0 002.08-2V18.22zM108.16 6.54a3.73 3.73 0 11-3.72 3.73 3.73 3.73 0 013.72-3.73zm-25.23 0a3.73 3.73 0 11-3.72 3.73 3.73 3.73 0 013.72-3.73zm12.62 0a3.73 3.73 0 11-3.73 3.73 3.73 3.73 0 013.73-3.73zM72.12 74.33a3.18 3.18 0 010-6.34h35.93a3.18 3.18 0 010 6.34zm-47 0a3.18 3.18 0 010-6.34h33.27a3.18 3.18 0 010 6.34z"/></symbol><symbol fill="currentColor" viewBox="0 0 96 96" id="tcategory-title" xmlns="http://www.w3.org/2000/svg"><path d="M42.3 4.5c-6.4 2.7-9.1 11.4-5.3 17.3 1.1 1.8 3.4 4.1 5 5 2.8 1.6 3 2.1 3 7.4v5.7l-15.7.3-15.8.3-.3 13.6-.3 13.6-3.3 1.5c-9.2 4.4-8.1 18.9 1.7 22.7 7.3 2.7 14.5-1 16.8-8.7 1-3.5.9-4.5-.7-7.9-1.1-2.1-3.3-4.7-5.1-5.8l-3.2-2-.1-10.8V46h26v10.7l-.1 10.8-3.2 2c-7.2 4.5-8.4 13.6-2.6 19.4 7.7 7.7 20.2 3.2 21.6-7.7.5-4.5-2.3-9.5-6.7-12l-3-1.7V46h26v11c0 6.1-.4 11-.9 11-2.3 0-7.1 5.5-8.1 9.1-1 3.5-.8 4.7 1 8.4 3.5 7.3 11.8 9.5 18.7 5 2.6-1.8 5.3-7.1 5.3-10.6 0-3.9-3.2-9-6.6-10.7l-3.3-1.5-.3-13.6-.3-13.6-15.7-.3-15.8-.3v-5.7c0-5.3.2-5.8 3-7.4 9.1-5.2 8.8-18.5-.5-22.4-4.2-1.7-7.1-1.7-11.2.1zm10.3 8c3.4 5.2-1.5 11.2-7.1 8.7C40.1 18.7 42 10 48 10c2 0 3.5.8 4.6 2.5z"/></symbol><symbol fill="currentColor" shape-rendering="geometricPrecision" text-rendering="geometricPrecision" image-rendering="optimizeQuality" fill-rule="evenodd" clip-rule="evenodd" viewBox="0 0 512 411.22" id="tcategory_card" xmlns="http://www.w3.org/2000/svg"><path d="M8.39 0h157.9c4.62 0 8.39 3.77 8.39 8.39v157.9c0 4.62-3.77 8.39-8.39 8.39H8.39c-4.62 0-8.39-3.77-8.39-8.39V8.39C0 3.77 3.77 0 8.39 0zm236.57 355.85h258.65c4.62 0 8.39 3.8 8.39 8.4v38.57c0 4.6-3.79 8.39-8.39 8.39H244.96c-4.6 0-8.39-3.77-8.39-8.39v-38.57c0-4.63 3.77-8.4 8.39-8.4zm0-118.61h258.65c4.62 0 8.39 3.79 8.39 8.39v38.57c0 4.6-3.79 8.4-8.39 8.4H244.96c-4.6 0-8.39-3.77-8.39-8.4v-38.57c0-4.62 3.77-8.39 8.39-8.39zm0-118.62h258.65c4.62 0 8.39 3.79 8.39 8.39v38.58c0 4.6-3.79 8.4-8.39 8.4H244.96c-4.6 0-8.39-3.78-8.39-8.4v-38.58c0-4.61 3.77-8.39 8.39-8.39zm0-118.62h258.65c4.62 0 8.39 3.8 8.39 8.39v38.58c0 4.59-3.79 8.39-8.39 8.39H244.96c-4.6 0-8.39-3.77-8.39-8.39V8.39c0-4.62 3.77-8.39 8.39-8.39zM8.39 236.53h157.9c4.62 0 8.39 3.77 8.39 8.39v157.91c0 4.61-3.77 8.39-8.39 8.39H8.39c-4.62 0-8.39-3.78-8.39-8.39V244.92c0-4.62 3.77-8.39 8.39-8.39z"/></symbol><symbol fill="currentColor" viewBox="0 0 512 512" id="tdocument" xmlns="http://www.w3.org/2000/svg"><path d="M105.5 1C86.1 5 70.3 18.9 63.8 37.8l-2.3 6.7v423l2.3 6.6c5.7 16.6 18.5 29.4 35 35.1l6.7 2.3h301l6.7-2.3c16.3-5.7 28.6-17.8 35-34.8l2.3-5.9.3-159.2.2-159.2-64.7-.3-64.8-.3-5.5-2.6c-8.2-3.9-13.5-9-17.2-16.7l-3.3-6.7-.3-61.7-.3-61.8-92.7.1c-51 .1-94.5.5-96.7.9zM370 202c4.5 2.3 8 8 8 13s-3.5 10.7-8 13c-3.9 2-5.6 2-117.1 2H139.8l-4-2.2c-10.1-5.7-10.2-19.4-.2-25.4l3.9-2.4h113.3c111.6 0 113.3 0 117.2 2zm0 80c4.5 2.3 8 8 8 13s-3.5 10.7-8 13c-3.9 2-5.6 2-117.1 2H139.8l-4-2.2c-10.1-5.7-10.2-19.4-.2-25.4l3.9-2.4h113.3c111.6 0 113.3 0 117.2 2zm-146.4 80.6c5 3.7 6.8 7 6.8 12.4s-1.8 8.7-6.8 12.4c-2.6 2-4.1 2.1-43.2 2.4l-40.5.3-4.1-2.3c-10.1-5.7-10.2-19.3-.2-25.4l3.9-2.4 40.7.2c39.3.3 40.7.4 43.4 2.4z"/><path d="M325 61.9c0 48.6.2 55.1 1.6 56.5 1.4 1.4 8.1 1.6 59.5 1.6h58l-1.2-2.3c-2.8-5.3-8.6-11.1-56.6-56.4C340.5 17.9 328.3 7 325.8 7c-.4 0-.8 24.7-.8 54.9z"/></symbol><symbol viewBox="0 0 512 512" id="tedit" xmlns="http://www.w3.org/2000/svg"><g fill="currentColor"><path d="M425.3 4c-7.8 2-11.4 3.7-18.3 8.3-4.4 2.9-232.3 229.6-236.1 234.9-2.1 2.9-32.9 112.2-32.9 116.8 0 5.6 6.5 12 12.2 12 4.4 0 113.8-30.9 116.6-32.9 1.5-1.1 54.3-53.6 117.4-116.8 83.7-83.8 115.7-116.5 118.7-121.2 7.4-11.6 10.5-27 8.2-40.7-.7-3.9-3-10.5-5.3-15.4-3.6-7.6-5.5-9.9-18.2-22.6-12.7-12.7-15-14.5-22.6-18.2-13.5-6.5-26-7.8-39.7-4.2zm29 27.2c5.5 2.7 25.8 23.1 28.8 28.8 2 3.8 2.4 6 2.4 14 0 12.1-1.8 16-13.2 27.9l-8.2 8.6-30.3-30.3-30.3-30.3 8.8-8.4c4.9-4.6 10.8-9.3 13.2-10.5 8.7-4.2 20.3-4.1 28.8.2zM416 98.5l29.5 29.5-93.3 93.2-93.2 93.3-29.5-29.5c-16.2-16.2-29.5-29.9-29.5-30.5C200 253.2 384.2 69 385.5 69c.6 0 14.3 13.3 30.5 29.5zM233.8 326.9c-3.7 1.2-64.3 17.9-64.5 17.8-.1-.1 3-11.5 6.8-25.2 3.8-13.8 7.9-28.5 9.1-32.9l2.1-7.8 23.8 23.8c13.2 13.2 23.3 24.1 22.7 24.3z"/><path d="M48 53.6C27.1 59.2 11 74.2 3.6 95l-3.1 8.5V281c0 169.3.1 177.8 1.8 183.4 3.7 12 7.7 18.7 16.7 27.7 6.3 6.3 10.4 9.5 15.7 12.1 14.6 7.3.3 6.9 211.3 6.6l189.5-.3 6.7-2.6c19.7-7.7 33.6-21.8 40.1-40.9 2.2-6.4 2.2-7.4 2.5-71 .3-57.9.2-64.8-1.3-67.6-2.1-4-6.4-6.4-11.4-6.4-3.3 0-4.9.7-7.9 3.4l-3.7 3.4-.5 63.4c-.5 63.1-.5 63.3-2.8 69-4.1 10.2-11.8 17.9-22 22l-5.7 2.3-183.4.3c-121.1.1-185.3-.1-189-.8-12-2.2-22.7-10.4-27.7-21.3l-2.9-6.2v-352l2.9-6.3c3.7-8 12.2-16.1 20.3-19.4l5.8-2.3 63-.5c70.4-.6 66.4-.1 70-7.7 2.3-4.8 1.3-9.5-3.1-13.8l-3.5-3.5-64.2.1c-53.3 0-65.1.3-69.7 1.5z"/></g></symbol><symbol fill="currentColor" id="tform" viewBox="0 0 122.88 120.45" xml:space="preserve" xmlns="http://www.w3.org/2000/svg"><style>.tist0{fill-rule:evenodd;clip-rule:evenodd}</style><path class="tist0" d="M8.89 0h105.1c4.9 0 8.89 4 8.89 8.89v102.68c0 4.88-4 8.89-8.89 8.89H8.89c-4.88 0-8.89-4-8.89-8.89V8.89C-.01 4 3.99 0 8.89 0zm57.28 91.29h30.49c1.95 0 3.54 1.61 3.54 3.54v6.69c0 1.94-1.61 3.54-3.54 3.54H66.17c-1.93 0-3.54-1.59-3.54-3.54v-6.69c0-1.95 1.59-3.54 3.54-3.54zm-39.94-30.5h70.42c1.71 0 3.27.7 4.41 1.84l.01.01a6.22 6.22 0 011.83 4.41v8.85c0 1.71-.7 3.28-1.83 4.41l-.01.01a6.22 6.22 0 01-4.41 1.83H26.23c-1.71 0-3.27-.7-4.41-1.83l-.01-.01a6.22 6.22 0 01-1.83-4.41v-8.85c0-1.71.7-3.27 1.83-4.41l.01-.01a6.223 6.223 0 014.41-1.84zm70.42 5.42H26.23c-.23 0-.44.09-.59.24-.15.15-.24.36-.24.59v8.85c0 .23.09.44.24.59.15.15.36.24.59.24h70.42c.23 0 .44-.09.59-.24.15-.15.24-.36.24-.59v-8.85c0-.23-.09-.44-.24-.59a.831.831 0 00-.59-.24zM26.23 33h70.42c1.71 0 3.27.7 4.41 1.83l.01.01a6.22 6.22 0 011.83 4.41v8.85c0 1.71-.7 3.28-1.83 4.41l-.01.01a6.22 6.22 0 01-4.41 1.83H26.23c-1.71 0-3.27-.7-4.41-1.83l-.01-.01a6.22 6.22 0 01-1.83-4.41v-8.85c0-1.71.7-3.27 1.83-4.41l.01-.01A6.256 6.256 0 0126.23 33zm70.42 5.42H26.23c-.23 0-.44.09-.59.24-.15.15-.24.36-.24.59v8.85c0 .23.09.44.24.59.15.15.36.24.59.24h70.42c.23 0 .44-.09.59-.24.15-.15.24-.36.24-.59v-8.85c0-.23-.09-.44-.24-.59a.831.831 0 00-.59-.24zm18.15-11.41H8.46v82.6c0 .68.27 1.28.72 1.74.46.46 1.06.72 1.74.72H112.3c.68 0 1.28-.27 1.74-.72.46-.46.72-1.06.72-1.74v-82.6h.04zm-9.27-17.37a4.39 4.39 0 11-4.39 4.39 4.37 4.37 0 014.39-4.39zm-29.77 0c2.42 0 4.39 1.97 4.39 4.39s-1.97 4.39-4.39 4.39-4.39-1.97-4.39-4.39a4.37 4.37 0 014.39-4.39zm14.88 0c2.42 0 4.39 1.97 4.39 4.39s-1.97 4.39-4.39 4.39-4.39-1.97-4.39-4.39c0-2.43 1.96-4.39 4.39-4.39z"/></symbol><symbol viewBox="0 0 512 512" id="tguide" xmlns="http://www.w3.org/2000/svg"><g fill="currentColor"><path d="M110.5 1.4c-8.4 2.1-14.7 5.7-21.1 12.1-6.5 6.5-10.5 13.6-12.3 22.3-.6 3.1-1.1 15.9-1.1 30.7V92H46v30h30v60H46v30h30v60H46v30h30v60H46v30h30v39.5c0 25.6.4 41.3 1.1 44.7 3.7 17.2 17.5 31 34.7 34.7 3.8.8 53.5 1.1 179.7 1.1H466V0L290.8.1C154 .2 114.4.4 110.5 1.4zM436 226v196l-162.2.3c-89.3.2-163.5.7-165 1.1l-2.8.8V392h30v-30h-30v-60h30v-30h-30v-60h30v-30h-30v-60h30V92h-30V66.7c.1-28.5.4-30 7.6-34.3l3.9-2.4H436v196zm0 241v15H117.8l-4-2.2c-10.1-5.7-10.2-19.4-.2-25.4l3.9-2.4H436v15z"/><path d="M274 107.5c-.8.2-4.9.9-9 1.5-35.8 5.8-69.4 30.9-86.2 64.5-8.9 17.7-12.2 32-12.3 53 0 16.3 1.1 23.9 5.6 37.7 9.7 30 31.9 55.7 60.7 70.2 8.5 4.3 21.6 8.7 31.7 10.7 10.3 2.1 34.9 1.8 45.5-.5 42.3-9.1 76.8-39.9 89.9-80.4 4.4-13.6 5.6-21.5 5.6-37.2 0-8.3-.6-17.5-1.4-21.5-9.5-47.9-45.1-84.9-92.1-95.6-7.8-1.8-33.8-3.5-38-2.4zm34.5 32.5c31.3 8.1 56 32.8 64.6 64.5 1.8 6.5 2.2 10.7 2.2 22.5s-.4 16-2.2 22.5c-8.6 31.7-32.9 56.1-64.6 64.6-10.5 2.9-32.5 3.2-42.8.6-32.8-8.2-58-32.8-66.8-65.2-3.2-11.5-3.2-33.5 0-45 9.2-34.1 36.6-59.5 70.9-66 10.4-2 28.2-1.3 38.7 1.5z"/><path d="M271 182v15h30v-30h-30v15zm0 75v30h30v-60h-30v30z"/></g></symbol><symbol viewBox="0 0 12 12" fill="currentColor" id="thome" xmlns="http://www.w3.org/2000/svg"><path d="M0 4v7a1 1 0 001 1h3V8h4v4h3a1 1 0 001-1V4L6 0 0 4z"/></symbol><symbol viewBox="0 0 512 512" id="timage" xmlns="http://www.w3.org/2000/svg"><path d="M45.3 17.5c-3.5.8-9.3 2.8-13 4.6C23 26.6 10.6 39 6.2 48.2-.4 61.8-.1 49.7.2 259.3l.3 190.2 2.7 7.4c6.4 17.4 19.8 30.6 37 36.2l7.3 2.4h417l7.3-2.4c17.2-5.6 30.6-18.8 37-36.2l2.7-7.4.3-190.2c.3-209.6.6-197.5-6-211.1-4.4-9.2-16.8-21.6-26-26-13.4-6.5 0-6.2-224.3-6.1-167.9 0-205.1.3-210.2 1.4zm302.8 87.4c11.7 3.7 22.6 12.2 30 23.4 17.9 27.4 7.4 65-22.2 79.6-36 17.7-77.3-6.1-80.5-46.4-2.1-26.3 17.3-52 43.9-58 8-1.9 20.2-1.2 28.8 1.4zm-162.3 113c2 1.1 5 3.3 6.7 5 1.6 1.8 25 32 52 67.3 45 58.9 49.4 64.3 54.4 67.1 6.4 3.6 14.4 4 20.7 1.1 2.2-1 11.4-9.1 20.5-18 17.5-17.1 19.4-18.4 28.5-18.4 5.9 0 13.3 4.1 17.6 9.7 8.2 10.9 61.3 87.1 63.4 91.2 4.1 7.5 2.5 14.4-4 17.5-3.1 1.5-19.1 1.6-185.8 1.6-175.5 0-182.5-.1-185.8-1.9-4.7-2.4-8-7.5-8-12 0-2 1.1-6.1 2.3-9.1 5-12 98-194.7 100.5-197.4 5.2-5.6 10.9-6.8 17-3.7z" fill="currentColor"/></symbol><symbol fill="currentColor" viewBox="0 0 512 512" id="tlock" xmlns="http://www.w3.org/2000/svg"><path d="M242 .6c-20.8 2.7-40.7 10.1-58 21.7-9.6 6.4-27.3 24.1-33.7 33.7-9.2 13.7-15.5 28.2-19.5 45-1.9 7.7-2.1 12.5-2.5 49.7l-.5 41.3h-10.7c-6.4 0-13.1.6-16.6 1.5-17.2 4.5-30.5 17.9-35 35.2-2.2 8.6-2.2 238 0 246.6 4.5 17.3 17.8 30.7 35 35.2 5.2 1.3 24.4 1.5 155.5 1.5s150.3-.2 155.5-1.5c17.2-4.5 30.5-17.9 35-35.2 2.2-8.6 2.2-238 0-246.6-4.5-17.3-17.8-30.7-35-35.2-3.5-.9-10.2-1.5-16.6-1.5h-10.7l-.5-41.3c-.4-37.2-.6-42-2.5-49.7-6.2-25.7-17-45-35.1-63.1-18.5-18.5-38-29.3-63.1-35-8.3-1.9-33.1-3.3-41-2.3zm37.1 34.3c18.2 4.7 32 12.8 45.4 26.5 9.5 9.7 16.2 19.9 20.9 31.7 5.7 14.7 5.9 16.3 6.3 59.1l.4 39.8H159.9l.3-39.8c.4-36.7.6-40.3 2.5-47.3 5.1-18.4 13-31.9 26.2-44.9 15.4-15.3 30.3-22.7 55.1-27.4 5.9-1.1 27.7.3 35.1 2.3zm129.5 191.7c1.5 1.1 3.7 3.3 4.8 4.8 2.1 2.7 2.1 3.3 2.4 119.2.3 128.9.7 120.7-6.4 126l-3.7 2.9H106.3l-3.7-2.9c-7-5.3-6.6 2.6-6.6-124.5 0-79 .3-115.9 1.1-117.8 1.4-3.7 4.7-7.3 8.4-8.9 2.5-1.1 29.3-1.3 151.7-1.1 148.4.2 148.7.2 151.4 2.3z"/><path d="M248.7 278c-22.2 3.9-38.3 26.2-34.8 48.1 2.1 13.1 11.6 26.7 21.9 31.3l4.2 1.9v27.4c0 25.3.2 27.7 2 31.2 5.7 11.3 22.3 11.3 28 0 1.8-3.5 2-5.9 2-31.2v-27.4l4.2-1.9c10.3-4.6 19.8-18.2 21.9-31.3 2.4-15.2-5.1-32.6-17.7-41-9.4-6.2-21.5-8.9-31.7-7.1zm11.8 32.6c3.1 1.4 6.5 6.4 6.5 9.4 0 .7-.7 2.7-1.6 4.5-1.9 4.1-7.3 6.9-11.4 6-3.7-.8-7.7-4.8-8.5-8.5-.9-4 1.9-9.5 5.8-11.4 4-2 5.1-2 9.2 0z"/></symbol><symbol fill="currentColor" viewBox="0 0 512 512" id="tlogout" xmlns="http://www.w3.org/2000/svg"><path d="M48.2 3C30.4 7.7 15 20.1 7.1 36.1-.5 51.5 0 35.9 0 256c0 169.6.2 198.5 1.5 204.5C6.4 483.7 25.1 503 48.6 509c7.4 1.9 11.5 2 109.4 2h101.6l5.1-2.5c7.2-3.6 10.6-9 11.1-17.5.4-8.1-2.3-14-8.7-18.5l-4.3-3-102.1-.5-102.2-.5-4-2.2c-5-2.7-8-5.8-10-10.5-1.3-3.3-1.5-25.1-1.5-199.8 0-174.7.2-196.5 1.5-199.8 2-4.7 5-7.8 10-10.5l4-2.2 102.2-.5 102.1-.5 4.3-3c6.4-4.5 9.1-10.4 8.7-18.5-.5-8.5-3.9-13.9-11.1-17.5L259.6 1l-102 .1C60.4 1.1 55.1 1.2 48.2 3z"/><path d="M355.6 108c-13.5 4.3-19.6 20.6-11.8 31.7 1.5 2.1 23.2 24 48.2 48.8 25 24.7 45.7 45.3 45.8 45.7.2.5-56.3.8-125.5.8H186.4l-4.4 2.2c-5.5 2.9-9.5 7.9-11.2 14-2.4 9.1 2.4 19 11.2 23.5l4.4 2.3h125.9c69.2 0 125.7.3 125.5.8-.1.4-20.8 21-45.8 45.7-25 24.8-46.7 46.7-48.2 48.8-12.1 17.2 8.5 39.9 27.5 30 4-2 136.3-132.7 138.5-136.8 2.2-4 2.2-15 0-19-2.2-4.2-134.5-134.8-138.6-136.9-4-2.1-11.7-2.9-15.6-1.6z"/></symbol><symbol fill="currentColor" viewBox="0 0 325 325.375" id="tpen" xmlns="http://www.w3.org/2000/svg"><path d="M114.688 284.676l-73.801-73.801 178.5-178.5 73.8 73.8zm-80.7-60.801l67.7 67.7-101.5 33.8zm281.899-140.3l-12.801 12.8-73.899-73.898 12.801-12.801c12.895-12.903 33.805-12.903 46.7 0l27.199 27.199c12.8 12.937 12.8 33.766 0 46.7zm0 0"/></symbol><symbol fill="currentColor" viewBox="0 0 29 31.41" id="tphone" xmlns="http://www.w3.org/2000/svg"><path d="M1.05 1.51L6.94.04c.64-.16 1.3.2 1.56.85l2.72 6.87c.24.6.08 1.31-.39 1.72L7.4 12.52c2.04 4.7 5.6 8.62 10.04 10.87l2.81-3.72c.39-.51 1.03-.68 1.59-.42l6.34 2.94c.61.29.94 1 .79 1.69l-1.36 6.38c-.14.66-.69 1.14-1.33 1.14C11.78 31.41 0 18.68 0 2.95c0-.69.44-1.29 1.05-1.44z"/></symbol><symbol viewBox="0 0 512 512" id="tpost" xmlns="http://www.w3.org/2000/svg"><g fill="currentColor"><path d="M36.1 1.1C18.9 4.5 4.3 19.3 1 36.9-.4 44.3-.4 467.7 1 475.1c3.4 18 17.9 32.5 35.9 35.9 7.4 1.4 430.8 1.4 438.2 0 18-3.4 32.5-17.9 35.9-35.9 1.4-7.4 1.4-430.8 0-438.2-3.4-18-17.9-32.5-35.9-35.9-6.7-1.2-432.5-1.2-439 .1zM474 32c2.6 1.3 4.7 3.4 6 6 1.9 3.7 2 5.8 2 43v39H30V81c0-37.2.1-39.3 2-43 1.2-2.4 3.5-4.7 5.8-5.9 3.6-2 6.6-2 218-2.1 212.8 0 214.3 0 218.2 2zm8 278c0 158.5 0 160.1-2 164-1.3 2.6-3.4 4.7-6 6-3.9 2-5.4 2-218 2s-214.1 0-218-2c-2.6-1.3-4.7-3.4-6-6-2-3.9-2-5.5-2-164V150h452v160z"/><path d="M67.8 62.1C63.5 64.3 60 70.2 60 75c0 7.6 7.4 15 15 15s15-7.4 15-15c0-5-3.5-10.7-8-13-4.9-2.5-9.4-2.5-14.2.1zm60 0c-4.3 2.2-7.8 8.1-7.8 12.9 0 5 3.5 10.7 8 13 2.1 1.1 5.3 2 7 2 7.6 0 15-7.4 15-15 0-5-3.5-10.7-8-13-4.9-2.5-9.4-2.5-14.2.1zm60 0c-4.3 2.2-7.8 8.1-7.8 12.9 0 5 3.5 10.7 8 13 2.1 1.1 5.3 2 7 2 7.6 0 15-7.4 15-15 0-5-3.5-10.7-8-13-4.9-2.5-9.4-2.5-14.2.1zm-120 120c-2.3 1.2-4.6 3.5-5.8 5.9-1.9 3.8-2 5.8-2 68s.1 64.2 2 68c1.3 2.6 3.4 4.7 6 6 3.8 2 5.7 2 82 2s78.2 0 82-2c2.6-1.3 4.7-3.4 6-6 1.9-3.8 2-5.8 2-68s-.1-64.2-2-68c-1.3-2.6-3.4-4.7-6-6-3.8-2-5.7-2-82.2-2-76 .1-78.4.1-82 2.1zM210 256v46H90v-92h120v46zm67.8-12.9c-4.3 2.2-7.8 8.1-7.8 12.9 0 5 3.5 10.7 8 13 3.8 2 5.7 2 83 2s79.2 0 83-2c4.5-2.3 8-8 8-13s-3.5-10.7-8-13c-3.8-2-5.7-2-83.2-2-77 .1-79.4.1-83 2.1zm0 61c-4.3 2.2-7.8 8.1-7.8 12.9 0 5 3.5 10.7 8 13 3.8 2 5.7 2 83 2s79.2 0 83-2c4.5-2.3 8-8 8-13s-3.5-10.7-8-13c-3.8-2-5.7-2-83.2-2-77 .1-79.4.1-83 2.1zm-210 60c-4.3 2.2-7.8 8.1-7.8 12.9 0 5 3.5 10.7 8 13 3.9 2 5.5 2 188 2s184.1 0 188-2c4.5-2.3 8-8 8-13s-3.5-10.7-8-13c-3.9-2-5.4-2-188.2-2-181.5.1-184.4.1-188 2.1zm0 60c-4.3 2.2-7.8 8.1-7.8 12.9 0 5 3.5 10.7 8 13 3.9 2 5.5 2 188 2s184.1 0 188-2c4.5-2.3 8-8 8-13s-3.5-10.7-8-13c-3.9-2-5.4-2-188.2-2-181.5.1-184.4.1-188 2.1z"/></g></symbol><symbol fill="currentColor" viewBox="0 0 12 12" id="tsearch" xmlns="http://www.w3.org/2000/svg"><path d="M11.72 10.3L9.18 7.78a5 5 0 10-1.4 1.41l2.53 2.54a1 1 0 001.41-1.41zm-9.7-5.28a3 3 0 116 0 3 3 0 01-6 0z"/></symbol><symbol viewBox="0 0 0 0" id="tsprite" xmlns="http://www.w3.org/2000/svg"><symbol fill="currentColor" viewBox="0 0 512 512" id="tsadmin"><path d="M120.4 1.9c-4.3 2.6-5.4 6.6-5.4 19.7v11.2l-3.7 1.3c-2.1.7-6 2.2-8.7 3.5l-5 2.3-9.1-8.8c-9.4-9.1-12.6-10.7-17.4-9-3.9 1.5-32.9 30.8-34.2 34.6-1.5 4.7.6 8.6 9.8 17.6l8 7.8-3.6 9-3.6 8.9H36.2c-20.8 0-21.2.6-21.2 30.5 0 29.7-.1 29.5 20.1 29.5h12.1l1.1 3.2c.7 1.7 2.4 5.7 3.8 8.7l2.6 5.6-8.7 9c-9.5 9.9-11 13.2-8.6 18.8.7 1.8 8.3 10.1 16.9 18.4C69.4 238.6 69.9 239 74 239c4 0 4.8-.5 13.6-9.2l9.4-9.2 3.3 1.2c1.9.7 3.6 1.2 3.9 1.2.3 0 .8-5.1 1.2-11.3.3-6.1 1.2-14.2 1.9-17.8l1.3-6.6-5.5-4.4c-16-12.8-25.2-31.8-25.2-52.5 0-30 17.5-54.1 46.9-64.6 3.9-1.4 9.3-2.2 17.2-2.5 9.8-.5 12.7-.2 19.5 1.6 16.8 4.6 32.4 15.9 40.2 29.1l1.7 2.9 12-.2c6.7-.1 15.4.2 19.4.6l7.2.8-2.1-5.3c-4.9-12-5.4-9.8 4.4-19.6 6.9-6.9 8.9-9.6 9.4-12.4.8-5.2-1.3-8.1-17.9-24.4-19.1-18.8-20-18.9-34.2-5.4-8.8 8.5-9.2 8.8-11.6 7.5-1.4-.8-5.3-2.4-8.7-3.6l-6.3-2.3V19.8c0-12.7 0-12.8-2.9-16L169.2.5 146.3.2c-21.1-.2-23-.1-25.9 1.7z"/><path d="M133 81.1c-27.2 7.3-43.5 35.3-36.4 62.4 2.2 8.8 9.5 20.4 15 24 2.2 1.4 2.3 1.3 7.3-8.8 13.2-26.8 34-45.8 60.8-55.6l6.3-2.3-2.1-2.7c-5.7-7.2-16.5-14-26.6-16.6-6.3-1.7-18.8-1.8-24.3-.4zm124 21.3c3.6 1.3 9 3.5 12 5 5.8 2.7 7.2 2.2 5-1.9-1.8-3.4-5.6-4.7-15-5.1l-8.5-.4 6.5 2.4zm-48 19.7c-43.3 5-73.9 40.2-77.9 89.4-3.4 42.5 11.2 89.2 37.4 119.9 10.1 12 26 22.6 38 25.5 15.3 3.8 32.6-.1 46.9-10.3 25.8-18.5 45-54 52.8-97.6 2-11.5 1.7-41.5-.5-51.8-6.6-30-21.8-52.1-44.7-65-8.4-4.7-22.6-9.1-33.1-10.2-5.2-.5-9.8-.9-10.4-.9-.5.1-4.4.5-8.5 1zm121.5 58.2c-1.7 1.3-1.7 1.7-.1 9.8 3.1 15.4 4 29.7 2.7 45.6-.6 8-.9 14.8-.7 15 .2.2 2.8-.3 5.8-1.2 8.5-2.6 22-3 31.8-1.1 23.3 4.8 41 18.3 51 39.1 2.6 5.5 5.3 12 5.8 14.5 4.3 18 1.3 38.2-7.9 53.7-3.9 6.4-14.2 17.9-19.4 21.4-1.9 1.3-3.5 2.6-3.5 2.9 0 .3 2.1 3 4.6 6 9.8 11.8 19.4 27.8 25.4 42.2 5.4 13.3 8 12.4 30.2-10 9.1-9.2 16.9-17.8 17.3-19 1.6-5.4-.3-9.1-9.9-19.1l-9.3-9.6 3.8-9 3.8-9 14-.5 14.1-.5 3.2-3.3 3.3-3.2.3-24.5c.4-33.5.9-32.7-21.2-33.5l-13.9-.5-1.7-5c-1-2.8-2.7-7-3.9-9.4l-2.3-4.3 9.5-9.7c15-15.3 14.9-16-4.6-35.9-17-17.3-20.7-20.2-25.7-20.2-4.5 0-8.7 3-18.4 12.8l-6.9 7.1-3.8-2c-2.1-1-6.3-2.8-9.4-4l-5.5-2v-12.5c0-14.2-1.2-18.4-5.9-20.8-4.1-2.2-49.7-2.4-52.6-.3z"/><path d="M345 265.6c-3.5.7-8.9 2.6-11.9 4.1l-5.4 2.8-4.6 14c-2.6 8.3-7.4 19.8-11.6 28.1l-7.1 14.2 10.5 2.7c22.3 5.8 46.7 18.2 62.9 31.8 2.4 2.1 4.8 3.7 5.4 3.7 1.8 0 10.6-7 14.9-11.8 6.3-7.2 11.6-19.1 13-29.3 1-7.2.9-9.8-.5-16.5-3.6-17.7-14.3-31.8-29.9-39.3-12.5-6-22.8-7.3-35.7-4.5zm-208 89.5c-27.7 5.8-50.3 18.1-70.6 38.4-18.5 18.4-26.5 32.3-37.9 65.5-5.6 16.5-6.6 20.5-6.6 26 .1 10.9 5.1 18.8 15.5 24.3l4.1 2.2 175.4.3c199.6.3 182.4 1 191.7-8.2 6.2-6.3 9-13.7 8.1-21.7-.8-6.7-13-41.7-18.3-52.2-20.1-40.5-60-69.7-103.9-75.8l-8.4-1.2-5.8 5.3c-12.4 11.3-25.5 19.1-38.8 23.1-10.9 3.2-28.6 3.7-39.9 1-15.8-3.8-29.1-11.1-42.3-23.3-7.2-6.7-7.6-6.8-22.3-3.7z"/></symbol><symbol viewBox="0 0 512 512" id="tsarrow"><path d="M456.5 48.7c-2.7.2-11.1 1-18.5 1.9-148.7 17.2-272.1 126.1-308 271.7-6.1 24.9-8.5 42.5-10.6 76.1l-.6 9.8-38.7-38.5c-41.5-41.4-42.1-41.9-50.5-40.3-11 2.1-16.4 16.1-9.7 25.2 1.6 2.1 26 26.9 54.2 55.1 35.4 35.3 52.6 51.7 55.1 52.8 4.4 1.8 8.3 1.9 12 .2 1.6-.7 27.3-25.7 57.3-55.6 58.5-58.4 57.5-57.2 55.9-65.7-.8-4.1-4.4-8.8-8.5-10.9-3.8-2-11.8-1.9-14.9.1-1.4.9-19.9 19-41.3 40.3-21.3 21.2-38.7 37.9-38.7 37.1 0-.8.5-8.9 1-18 3.9-61.3 22.7-116.5 56.8-166.5 10.9-16 21-28.2 35.7-43.4C298.1 125 368 90.6 444 82c5.2-.6 16.8-1.4 25.7-1.8 17.6-.8 19-1.3 23.7-7.6 2.9-3.9 2.9-13.3 0-17.2-4.6-6.2-6.5-6.9-19.7-7-6.7-.1-14.4 0-17.2.3z" fill="currentColor"/></symbol><symbol viewBox="0 0 512 512" id="tsbin"><g fill="currentColor"><path d="M187.1 1.1c-12.8 2.5-25.7 12.5-31.1 24.1-3.7 7.9-5 14.6-5 25.9V60h-38.9c-22.2 0-41.1.4-44.2 1-18.7 3.6-33 18.4-36.1 37.6-3 18.1 6.6 37.1 23.1 45.8l6.9 3.6.6 5.8c.4 3.1 6.5 76.3 13.6 162.7 7.2 86.3 13.4 158.7 13.9 160.8 3.6 15.5 17.7 29.5 33.5 33.2 9.1 2.2 256.1 2.2 265.2 0 15.8-3.7 29.9-17.7 33.5-33.2.5-2.1 6.7-74.5 13.9-160.8 7.1-86.4 13.2-159.6 13.6-162.7l.6-5.8 6.9-3.6c16.5-8.7 26.1-27.7 23.1-45.8-3.1-19.2-17.4-34-36.1-37.6-3.1-.6-22-1-44.2-1H361v-8.9c0-4.8-.5-11.2-1-14.2-3.4-18-17.9-32.5-35.9-35.9-6.6-1.2-130.6-1.2-137 .1zM323 32c6 3.1 8 7.8 8 19v9H181v-9c0-11 2-15.9 7.8-18.9 3.6-1.9 6-2 67-2.1 61.5 0 63.4.1 67.2 2zm120 60c4.5 2.3 8 8 8 13s-3.5 10.7-8 13c-3.9 2-5.5 2-187 2s-183.1 0-187-2c-4.5-2.3-8-8-8-13 0-4.8 3.5-10.7 7.8-12.9 3.6-2 6.5-2 187-2.1 181.8 0 183.3 0 187.2 2zm-23.6 62.2c-.2 2.4-6.3 74.7-13.4 160.6-14 169.4-12.9 159.8-19.3 164.6l-2.8 2.1H128.1l-2.8-2.1c-6.4-4.8-5.3 4.8-19.3-164.6-7.1-85.9-13.2-158.2-13.4-160.6L92 150h328l-.6 4.2z"/><path d="M158.7 182.1c-2.5 1.3-4.5 3.4-5.8 6.2l-2.1 4.3 7.6 123.4c8.5 138.1 7.6 129.9 15.5 134 5.1 2.5 9.1 2.5 14.2 0 2.7-1.4 4.6-3.4 6-6.3l2.1-4.3-7.6-123.4c-8.5-138.1-7.6-129.9-15.5-134-5-2.5-9.5-2.5-14.4.1zm90.1 0c-2.3 1.2-4.6 3.5-5.8 5.9-2 3.9-2 5.7-2 128 0 122.4 0 124.1 2 128 2.3 4.5 8 8 13 8s10.7-3.5 13-8c2-3.9 2-5.6 2-128s0-124.1-2-128c-3.7-7.3-12.7-9.9-20.2-5.9zm89.9 0c-7.7 4.1-6.8-3.7-15.3 133.9l-7.6 123.4 2.1 4.3c1.4 2.9 3.3 4.9 6 6.3 5.1 2.5 9.1 2.5 14.2 0 7.9-4.1 7 4.1 15.5-134l7.6-123.4-2.1-4.3c-3.7-7.5-12.7-10.3-20.4-6.2z"/></g></symbol><symbol fill="currentColor" id="tsblog" viewBox="0 0 122.88 100.72"><defs><style>.tsdcls-1{fill-rule:evenodd}</style></defs><path class="tsdcls-1" d="M111.34 93.69a7.56 7.56 0 01-7.52 7H7.54A7.56 7.56 0 010 93.18V19.51c0-3.69 3.08-6.77 6.58-7.42v18.09H4.79v63.73A2.08 2.08 0 006.88 96h97.91a2.09 2.09 0 002.09-2.09v-.22zm-88.4-69.75h87.7v37.17h-87.7V23.94zM19.06 0h96.28a7.56 7.56 0 017.54 7.54v73.67a7.56 7.56 0 01-7.54 7.54H19.06a7.56 7.56 0 01-7.54-7.54V7.54A7.56 7.56 0 0119.06 0zm99.37 18.22H16.31V82a2.07 2.07 0 002.09 2h97.91a2.07 2.07 0 002.08-2V18.22zM108.16 6.54a3.73 3.73 0 11-3.72 3.73 3.73 3.73 0 013.72-3.73zm-25.23 0a3.73 3.73 0 11-3.72 3.73 3.73 3.73 0 013.72-3.73zm12.62 0a3.73 3.73 0 11-3.73 3.73 3.73 3.73 0 013.73-3.73zM72.12 74.33a3.18 3.18 0 010-6.34h35.93a3.18 3.18 0 010 6.34zm-47 0a3.18 3.18 0 010-6.34h33.27a3.18 3.18 0 010 6.34z"/></symbol><symbol fill="currentColor" viewBox="0 0 96 96" id="tscategory-title"><path d="M42.3 4.5c-6.4 2.7-9.1 11.4-5.3 17.3 1.1 1.8 3.4 4.1 5 5 2.8 1.6 3 2.1 3 7.4v5.7l-15.7.3-15.8.3-.3 13.6-.3 13.6-3.3 1.5c-9.2 4.4-8.1 18.9 1.7 22.7 7.3 2.7 14.5-1 16.8-8.7 1-3.5.9-4.5-.7-7.9-1.1-2.1-3.3-4.7-5.1-5.8l-3.2-2-.1-10.8V46h26v10.7l-.1 10.8-3.2 2c-7.2 4.5-8.4 13.6-2.6 19.4 7.7 7.7 20.2 3.2 21.6-7.7.5-4.5-2.3-9.5-6.7-12l-3-1.7V46h26v11c0 6.1-.4 11-.9 11-2.3 0-7.1 5.5-8.1 9.1-1 3.5-.8 4.7 1 8.4 3.5 7.3 11.8 9.5 18.7 5 2.6-1.8 5.3-7.1 5.3-10.6 0-3.9-3.2-9-6.6-10.7l-3.3-1.5-.3-13.6-.3-13.6-15.7-.3-15.8-.3v-5.7c0-5.3.2-5.8 3-7.4 9.1-5.2 8.8-18.5-.5-22.4-4.2-1.7-7.1-1.7-11.2.1zm10.3 8c3.4 5.2-1.5 11.2-7.1 8.7C40.1 18.7 42 10 48 10c2 0 3.5.8 4.6 2.5z"/></symbol><symbol fill="currentColor" shape-rendering="geometricPrecision" text-rendering="geometricPrecision" image-rendering="optimizeQuality" fill-rule="evenodd" clip-rule="evenodd" viewBox="0 0 512 411.22" id="tscategory_card"><path d="M8.39 0h157.9c4.62 0 8.39 3.77 8.39 8.39v157.9c0 4.62-3.77 8.39-8.39 8.39H8.39c-4.62 0-8.39-3.77-8.39-8.39V8.39C0 3.77 3.77 0 8.39 0zm236.57 355.85h258.65c4.62 0 8.39 3.8 8.39 8.4v38.57c0 4.6-3.79 8.39-8.39 8.39H244.96c-4.6 0-8.39-3.77-8.39-8.39v-38.57c0-4.63 3.77-8.4 8.39-8.4zm0-118.61h258.65c4.62 0 8.39 3.79 8.39 8.39v38.57c0 4.6-3.79 8.4-8.39 8.4H244.96c-4.6 0-8.39-3.77-8.39-8.4v-38.57c0-4.62 3.77-8.39 8.39-8.39zm0-118.62h258.65c4.62 0 8.39 3.79 8.39 8.39v38.58c0 4.6-3.79 8.4-8.39 8.4H244.96c-4.6 0-8.39-3.78-8.39-8.4v-38.58c0-4.61 3.77-8.39 8.39-8.39zm0-118.62h258.65c4.62 0 8.39 3.8 8.39 8.39v38.58c0 4.59-3.79 8.39-8.39 8.39H244.96c-4.6 0-8.39-3.77-8.39-8.39V8.39c0-4.62 3.77-8.39 8.39-8.39zM8.39 236.53h157.9c4.62 0 8.39 3.77 8.39 8.39v157.91c0 4.61-3.77 8.39-8.39 8.39H8.39c-4.62 0-8.39-3.78-8.39-8.39V244.92c0-4.62 3.77-8.39 8.39-8.39z"/></symbol><symbol fill="currentColor" viewBox="0 0 512 512" id="tsdocument"><path d="M105.5 1C86.1 5 70.3 18.9 63.8 37.8l-2.3 6.7v423l2.3 6.6c5.7 16.6 18.5 29.4 35 35.1l6.7 2.3h301l6.7-2.3c16.3-5.7 28.6-17.8 35-34.8l2.3-5.9.3-159.2.2-159.2-64.7-.3-64.8-.3-5.5-2.6c-8.2-3.9-13.5-9-17.2-16.7l-3.3-6.7-.3-61.7-.3-61.8-92.7.1c-51 .1-94.5.5-96.7.9zM370 202c4.5 2.3 8 8 8 13s-3.5 10.7-8 13c-3.9 2-5.6 2-117.1 2H139.8l-4-2.2c-10.1-5.7-10.2-19.4-.2-25.4l3.9-2.4h113.3c111.6 0 113.3 0 117.2 2zm0 80c4.5 2.3 8 8 8 13s-3.5 10.7-8 13c-3.9 2-5.6 2-117.1 2H139.8l-4-2.2c-10.1-5.7-10.2-19.4-.2-25.4l3.9-2.4h113.3c111.6 0 113.3 0 117.2 2zm-146.4 80.6c5 3.7 6.8 7 6.8 12.4s-1.8 8.7-6.8 12.4c-2.6 2-4.1 2.1-43.2 2.4l-40.5.3-4.1-2.3c-10.1-5.7-10.2-19.3-.2-25.4l3.9-2.4 40.7.2c39.3.3 40.7.4 43.4 2.4z"/><path d="M325 61.9c0 48.6.2 55.1 1.6 56.5 1.4 1.4 8.1 1.6 59.5 1.6h58l-1.2-2.3c-2.8-5.3-8.6-11.1-56.6-56.4C340.5 17.9 328.3 7 325.8 7c-.4 0-.8 24.7-.8 54.9z"/></symbol><symbol viewBox="0 0 512 512" id="tsedit"><g fill="currentColor"><path d="M425.3 4c-7.8 2-11.4 3.7-18.3 8.3-4.4 2.9-232.3 229.6-236.1 234.9-2.1 2.9-32.9 112.2-32.9 116.8 0 5.6 6.5 12 12.2 12 4.4 0 113.8-30.9 116.6-32.9 1.5-1.1 54.3-53.6 117.4-116.8 83.7-83.8 115.7-116.5 118.7-121.2 7.4-11.6 10.5-27 8.2-40.7-.7-3.9-3-10.5-5.3-15.4-3.6-7.6-5.5-9.9-18.2-22.6-12.7-12.7-15-14.5-22.6-18.2-13.5-6.5-26-7.8-39.7-4.2zm29 27.2c5.5 2.7 25.8 23.1 28.8 28.8 2 3.8 2.4 6 2.4 14 0 12.1-1.8 16-13.2 27.9l-8.2 8.6-30.3-30.3-30.3-30.3 8.8-8.4c4.9-4.6 10.8-9.3 13.2-10.5 8.7-4.2 20.3-4.1 28.8.2zM416 98.5l29.5 29.5-93.3 93.2-93.2 93.3-29.5-29.5c-16.2-16.2-29.5-29.9-29.5-30.5C200 253.2 384.2 69 385.5 69c.6 0 14.3 13.3 30.5 29.5zM233.8 326.9c-3.7 1.2-64.3 17.9-64.5 17.8-.1-.1 3-11.5 6.8-25.2 3.8-13.8 7.9-28.5 9.1-32.9l2.1-7.8 23.8 23.8c13.2 13.2 23.3 24.1 22.7 24.3z"/><path d="M48 53.6C27.1 59.2 11 74.2 3.6 95l-3.1 8.5V281c0 169.3.1 177.8 1.8 183.4 3.7 12 7.7 18.7 16.7 27.7 6.3 6.3 10.4 9.5 15.7 12.1 14.6 7.3.3 6.9 211.3 6.6l189.5-.3 6.7-2.6c19.7-7.7 33.6-21.8 40.1-40.9 2.2-6.4 2.2-7.4 2.5-71 .3-57.9.2-64.8-1.3-67.6-2.1-4-6.4-6.4-11.4-6.4-3.3 0-4.9.7-7.9 3.4l-3.7 3.4-.5 63.4c-.5 63.1-.5 63.3-2.8 69-4.1 10.2-11.8 17.9-22 22l-5.7 2.3-183.4.3c-121.1.1-185.3-.1-189-.8-12-2.2-22.7-10.4-27.7-21.3l-2.9-6.2v-352l2.9-6.3c3.7-8 12.2-16.1 20.3-19.4l5.8-2.3 63-.5c70.4-.6 66.4-.1 70-7.7 2.3-4.8 1.3-9.5-3.1-13.8l-3.5-3.5-64.2.1c-53.3 0-65.1.3-69.7 1.5z"/></g></symbol><symbol fill="currentColor" id="tsform" viewBox="0 0 122.88 120.45" xml:space="preserve"><style>.tsist0{fill-rule:evenodd;clip-rule:evenodd}</style><path class="tsist0" d="M8.89 0h105.1c4.9 0 8.89 4 8.89 8.89v102.68c0 4.88-4 8.89-8.89 8.89H8.89c-4.88 0-8.89-4-8.89-8.89V8.89C-.01 4 3.99 0 8.89 0zm57.28 91.29h30.49c1.95 0 3.54 1.61 3.54 3.54v6.69c0 1.94-1.61 3.54-3.54 3.54H66.17c-1.93 0-3.54-1.59-3.54-3.54v-6.69c0-1.95 1.59-3.54 3.54-3.54zm-39.94-30.5h70.42c1.71 0 3.27.7 4.41 1.84l.01.01a6.22 6.22 0 011.83 4.41v8.85c0 1.71-.7 3.28-1.83 4.41l-.01.01a6.22 6.22 0 01-4.41 1.83H26.23c-1.71 0-3.27-.7-4.41-1.83l-.01-.01a6.22 6.22 0 01-1.83-4.41v-8.85c0-1.71.7-3.27 1.83-4.41l.01-.01a6.223 6.223 0 014.41-1.84zm70.42 5.42H26.23c-.23 0-.44.09-.59.24-.15.15-.24.36-.24.59v8.85c0 .23.09.44.24.59.15.15.36.24.59.24h70.42c.23 0 .44-.09.59-.24.15-.15.24-.36.24-.59v-8.85c0-.23-.09-.44-.24-.59a.831.831 0 00-.59-.24zM26.23 33h70.42c1.71 0 3.27.7 4.41 1.83l.01.01a6.22 6.22 0 011.83 4.41v8.85c0 1.71-.7 3.28-1.83 4.41l-.01.01a6.22 6.22 0 01-4.41 1.83H26.23c-1.71 0-3.27-.7-4.41-1.83l-.01-.01a6.22 6.22 0 01-1.83-4.41v-8.85c0-1.71.7-3.27 1.83-4.41l.01-.01A6.256 6.256 0 0126.23 33zm70.42 5.42H26.23c-.23 0-.44.09-.59.24-.15.15-.24.36-.24.59v8.85c0 .23.09.44.24.59.15.15.36.24.59.24h70.42c.23 0 .44-.09.59-.24.15-.15.24-.36.24-.59v-8.85c0-.23-.09-.44-.24-.59a.831.831 0 00-.59-.24zm18.15-11.41H8.46v82.6c0 .68.27 1.28.72 1.74.46.46 1.06.72 1.74.72H112.3c.68 0 1.28-.27 1.74-.72.46-.46.72-1.06.72-1.74v-82.6h.04zm-9.27-17.37a4.39 4.39 0 11-4.39 4.39 4.37 4.37 0 014.39-4.39zm-29.77 0c2.42 0 4.39 1.97 4.39 4.39s-1.97 4.39-4.39 4.39-4.39-1.97-4.39-4.39a4.37 4.37 0 014.39-4.39zm14.88 0c2.42 0 4.39 1.97 4.39 4.39s-1.97 4.39-4.39 4.39-4.39-1.97-4.39-4.39c0-2.43 1.96-4.39 4.39-4.39z"/></symbol><symbol viewBox="0 0 12 12" fill="currentColor" id="tshome"><path d="M0 4v7a1 1 0 001 1h3V8h4v4h3a1 1 0 001-1V4L6 0 0 4z"/></symbol><symbol viewBox="0 0 512 512" id="tsimage"><path d="M45.3 17.5c-3.5.8-9.3 2.8-13 4.6C23 26.6 10.6 39 6.2 48.2-.4 61.8-.1 49.7.2 259.3l.3 190.2 2.7 7.4c6.4 17.4 19.8 30.6 37 36.2l7.3 2.4h417l7.3-2.4c17.2-5.6 30.6-18.8 37-36.2l2.7-7.4.3-190.2c.3-209.6.6-197.5-6-211.1-4.4-9.2-16.8-21.6-26-26-13.4-6.5 0-6.2-224.3-6.1-167.9 0-205.1.3-210.2 1.4zm302.8 87.4c11.7 3.7 22.6 12.2 30 23.4 17.9 27.4 7.4 65-22.2 79.6-36 17.7-77.3-6.1-80.5-46.4-2.1-26.3 17.3-52 43.9-58 8-1.9 20.2-1.2 28.8 1.4zm-162.3 113c2 1.1 5 3.3 6.7 5 1.6 1.8 25 32 52 67.3 45 58.9 49.4 64.3 54.4 67.1 6.4 3.6 14.4 4 20.7 1.1 2.2-1 11.4-9.1 20.5-18 17.5-17.1 19.4-18.4 28.5-18.4 5.9 0 13.3 4.1 17.6 9.7 8.2 10.9 61.3 87.1 63.4 91.2 4.1 7.5 2.5 14.4-4 17.5-3.1 1.5-19.1 1.6-185.8 1.6-175.5 0-182.5-.1-185.8-1.9-4.7-2.4-8-7.5-8-12 0-2 1.1-6.1 2.3-9.1 5-12 98-194.7 100.5-197.4 5.2-5.6 10.9-6.8 17-3.7z" fill="currentColor"/></symbol><symbol fill="currentColor" viewBox="0 0 512 512" id="tslock"><path d="M242 .6c-20.8 2.7-40.7 10.1-58 21.7-9.6 6.4-27.3 24.1-33.7 33.7-9.2 13.7-15.5 28.2-19.5 45-1.9 7.7-2.1 12.5-2.5 49.7l-.5 41.3h-10.7c-6.4 0-13.1.6-16.6 1.5-17.2 4.5-30.5 17.9-35 35.2-2.2 8.6-2.2 238 0 246.6 4.5 17.3 17.8 30.7 35 35.2 5.2 1.3 24.4 1.5 155.5 1.5s150.3-.2 155.5-1.5c17.2-4.5 30.5-17.9 35-35.2 2.2-8.6 2.2-238 0-246.6-4.5-17.3-17.8-30.7-35-35.2-3.5-.9-10.2-1.5-16.6-1.5h-10.7l-.5-41.3c-.4-37.2-.6-42-2.5-49.7-6.2-25.7-17-45-35.1-63.1-18.5-18.5-38-29.3-63.1-35-8.3-1.9-33.1-3.3-41-2.3zm37.1 34.3c18.2 4.7 32 12.8 45.4 26.5 9.5 9.7 16.2 19.9 20.9 31.7 5.7 14.7 5.9 16.3 6.3 59.1l.4 39.8H159.9l.3-39.8c.4-36.7.6-40.3 2.5-47.3 5.1-18.4 13-31.9 26.2-44.9 15.4-15.3 30.3-22.7 55.1-27.4 5.9-1.1 27.7.3 35.1 2.3zm129.5 191.7c1.5 1.1 3.7 3.3 4.8 4.8 2.1 2.7 2.1 3.3 2.4 119.2.3 128.9.7 120.7-6.4 126l-3.7 2.9H106.3l-3.7-2.9c-7-5.3-6.6 2.6-6.6-124.5 0-79 .3-115.9 1.1-117.8 1.4-3.7 4.7-7.3 8.4-8.9 2.5-1.1 29.3-1.3 151.7-1.1 148.4.2 148.7.2 151.4 2.3z"/><path d="M248.7 278c-22.2 3.9-38.3 26.2-34.8 48.1 2.1 13.1 11.6 26.7 21.9 31.3l4.2 1.9v27.4c0 25.3.2 27.7 2 31.2 5.7 11.3 22.3 11.3 28 0 1.8-3.5 2-5.9 2-31.2v-27.4l4.2-1.9c10.3-4.6 19.8-18.2 21.9-31.3 2.4-15.2-5.1-32.6-17.7-41-9.4-6.2-21.5-8.9-31.7-7.1zm11.8 32.6c3.1 1.4 6.5 6.4 6.5 9.4 0 .7-.7 2.7-1.6 4.5-1.9 4.1-7.3 6.9-11.4 6-3.7-.8-7.7-4.8-8.5-8.5-.9-4 1.9-9.5 5.8-11.4 4-2 5.1-2 9.2 0z"/></symbol><symbol fill="currentColor" viewBox="0 0 512 512" id="tslogout"><path d="M48.2 3C30.4 7.7 15 20.1 7.1 36.1-.5 51.5 0 35.9 0 256c0 169.6.2 198.5 1.5 204.5C6.4 483.7 25.1 503 48.6 509c7.4 1.9 11.5 2 109.4 2h101.6l5.1-2.5c7.2-3.6 10.6-9 11.1-17.5.4-8.1-2.3-14-8.7-18.5l-4.3-3-102.1-.5-102.2-.5-4-2.2c-5-2.7-8-5.8-10-10.5-1.3-3.3-1.5-25.1-1.5-199.8 0-174.7.2-196.5 1.5-199.8 2-4.7 5-7.8 10-10.5l4-2.2 102.2-.5 102.1-.5 4.3-3c6.4-4.5 9.1-10.4 8.7-18.5-.5-8.5-3.9-13.9-11.1-17.5L259.6 1l-102 .1C60.4 1.1 55.1 1.2 48.2 3z"/><path d="M355.6 108c-13.5 4.3-19.6 20.6-11.8 31.7 1.5 2.1 23.2 24 48.2 48.8 25 24.7 45.7 45.3 45.8 45.7.2.5-56.3.8-125.5.8H186.4l-4.4 2.2c-5.5 2.9-9.5 7.9-11.2 14-2.4 9.1 2.4 19 11.2 23.5l4.4 2.3h125.9c69.2 0 125.7.3 125.5.8-.1.4-20.8 21-45.8 45.7-25 24.8-46.7 46.7-48.2 48.8-12.1 17.2 8.5 39.9 27.5 30 4-2 136.3-132.7 138.5-136.8 2.2-4 2.2-15 0-19-2.2-4.2-134.5-134.8-138.6-136.9-4-2.1-11.7-2.9-15.6-1.6z"/></symbol><symbol fill="currentColor" viewBox="0 0 325 325.375" id="tspen"><path d="M114.688 284.676l-73.801-73.801 178.5-178.5 73.8 73.8zm-80.7-60.801l67.7 67.7-101.5 33.8zm281.899-140.3l-12.801 12.8-73.899-73.898 12.801-12.801c12.895-12.903 33.805-12.903 46.7 0l27.199 27.199c12.8 12.937 12.8 33.766 0 46.7zm0 0"/></symbol><symbol fill="currentColor" viewBox="0 0 29 31.41" id="tsphone"><path d="M1.05 1.51L6.94.04c.64-.16 1.3.2 1.56.85l2.72 6.87c.24.6.08 1.31-.39 1.72L7.4 12.52c2.04 4.7 5.6 8.62 10.04 10.87l2.81-3.72c.39-.51 1.03-.68 1.59-.42l6.34 2.94c.61.29.94 1 .79 1.69l-1.36 6.38c-.14.66-.69 1.14-1.33 1.14C11.78 31.41 0 18.68 0 2.95c0-.69.44-1.29 1.05-1.44z"/></symbol><symbol viewBox="0 0 512 512" id="tspost"><g fill="currentColor"><path d="M36.1 1.1C18.9 4.5 4.3 19.3 1 36.9-.4 44.3-.4 467.7 1 475.1c3.4 18 17.9 32.5 35.9 35.9 7.4 1.4 430.8 1.4 438.2 0 18-3.4 32.5-17.9 35.9-35.9 1.4-7.4 1.4-430.8 0-438.2-3.4-18-17.9-32.5-35.9-35.9-6.7-1.2-432.5-1.2-439 .1zM474 32c2.6 1.3 4.7 3.4 6 6 1.9 3.7 2 5.8 2 43v39H30V81c0-37.2.1-39.3 2-43 1.2-2.4 3.5-4.7 5.8-5.9 3.6-2 6.6-2 218-2.1 212.8 0 214.3 0 218.2 2zm8 278c0 158.5 0 160.1-2 164-1.3 2.6-3.4 4.7-6 6-3.9 2-5.4 2-218 2s-214.1 0-218-2c-2.6-1.3-4.7-3.4-6-6-2-3.9-2-5.5-2-164V150h452v160z"/><path d="M67.8 62.1C63.5 64.3 60 70.2 60 75c0 7.6 7.4 15 15 15s15-7.4 15-15c0-5-3.5-10.7-8-13-4.9-2.5-9.4-2.5-14.2.1zm60 0c-4.3 2.2-7.8 8.1-7.8 12.9 0 5 3.5 10.7 8 13 2.1 1.1 5.3 2 7 2 7.6 0 15-7.4 15-15 0-5-3.5-10.7-8-13-4.9-2.5-9.4-2.5-14.2.1zm60 0c-4.3 2.2-7.8 8.1-7.8 12.9 0 5 3.5 10.7 8 13 2.1 1.1 5.3 2 7 2 7.6 0 15-7.4 15-15 0-5-3.5-10.7-8-13-4.9-2.5-9.4-2.5-14.2.1zm-120 120c-2.3 1.2-4.6 3.5-5.8 5.9-1.9 3.8-2 5.8-2 68s.1 64.2 2 68c1.3 2.6 3.4 4.7 6 6 3.8 2 5.7 2 82 2s78.2 0 82-2c2.6-1.3 4.7-3.4 6-6 1.9-3.8 2-5.8 2-68s-.1-64.2-2-68c-1.3-2.6-3.4-4.7-6-6-3.8-2-5.7-2-82.2-2-76 .1-78.4.1-82 2.1zM210 256v46H90v-92h120v46zm67.8-12.9c-4.3 2.2-7.8 8.1-7.8 12.9 0 5 3.5 10.7 8 13 3.8 2 5.7 2 83 2s79.2 0 83-2c4.5-2.3 8-8 8-13s-3.5-10.7-8-13c-3.8-2-5.7-2-83.2-2-77 .1-79.4.1-83 2.1zm0 61c-4.3 2.2-7.8 8.1-7.8 12.9 0 5 3.5 10.7 8 13 3.8 2 5.7 2 83 2s79.2 0 83-2c4.5-2.3 8-8 8-13s-3.5-10.7-8-13c-3.8-2-5.7-2-83.2-2-77 .1-79.4.1-83 2.1zm-210 60c-4.3 2.2-7.8 8.1-7.8 12.9 0 5 3.5 10.7 8 13 3.9 2 5.5 2 188 2s184.1 0 188-2c4.5-2.3 8-8 8-13s-3.5-10.7-8-13c-3.9-2-5.4-2-188.2-2-181.5.1-184.4.1-188 2.1zm0 60c-4.3 2.2-7.8 8.1-7.8 12.9 0 5 3.5 10.7 8 13 3.9 2 5.5 2 188 2s184.1 0 188-2c4.5-2.3 8-8 8-13s-3.5-10.7-8-13c-3.9-2-5.4-2-188.2-2-181.5.1-184.4.1-188 2.1z"/></g></symbol><symbol fill="currentColor" viewBox="0 0 12 12" id="tssearch"><path d="M11.72 10.3L9.18 7.78a5 5 0 10-1.4 1.41l2.53 2.54a1 1 0 001.41-1.41zm-9.7-5.28a3 3 0 116 0 3 3 0 01-6 0z"/></symbol></symbol></symbol></svg>