<?xml version="1.0" encoding="utf-8"?>
<!-- Generator: Adobe Illustrator 22.0.0, SVG Export Plug-In . SVG Version: 6.00 Build 0)  -->
<svg version="1.1" id="Calque_1" xmlns="http://www.w3.org/2000/svg" xmlns:xlink="http://www.w3.org/1999/xlink" x="0px" y="0px"
	 viewBox="0 0 145 118.1" xml:space="preserve">
<style type="text/css">
	.st0{fill:#40332C;}
	.st1{fill:#766458;}
	.st2{fill:#625247;}
	.st3{fill:#8C7A6D;}
</style>
<path class="st0" d="M12.4,99.5c0,0-8.5-1.5-12.1,2.8c0,0-0.8,0.8,0.1,1c0.9,0.2,8.6-2.3,14.7-0.5C15.2,102.8,14.4,100.8,12.4,99.5"
	/>
<path class="st0" d="M13.4,101.6c0,0-8.6,0.5-11.1,5.5c0,0-0.6,1,0.3,0.9c0.9-0.1,6.9-3.8,13.3-3.5
	C15.9,104.5,15.6,102.5,13.4,101.6"/>
<path class="st0" d="M15,103.5c0,0-8.2,2.7-9.3,8.2c0,0-0.3,1.1,0.6,0.8c0.9-0.3,5.5-4.9,11.8-6.3C18,106.1,17.3,103.7,15,103.5"/>
<path class="st1" d="M20.5,104.9c3.1-2.3,6-7.4,7.1-10.1c3.6-8.4,4.5-17.7,7.3-26.3c2.5-7.4,6.3-13.8,10.8-20.1
	c3.2-4.4,8-9,8.8-14.6c0.7-4.9-2.1-11.4-8.1-10.9c-19.1,1.7-29.7,28.3-33.4,43.5c-2.4,9.9-4.5,26.1,0,35.9
	C15.3,106.9,18,106.8,20.5,104.9"/>
<path class="st0" d="M132.7,99.7c0,0,8.5-1.4,12,3c0,0,0.8,0.8-0.1,1c-0.9,0.1-8.5-2.3-14.7-0.7C129.8,102.9,130.7,101,132.7,99.7"
	/>
<path class="st0" d="M131.6,101.8c0,0,8.6,0.6,11,5.7c0,0,0.6,1-0.3,0.9c-0.9-0.1-6.8-3.9-13.3-3.7
	C129.1,104.7,129.4,102.6,131.6,101.8"/>
<path class="st0" d="M130,103.6c0,0,8.2,2.8,9.2,8.3c0,0,0.3,1.1-0.6,0.8c-0.9-0.3-5.5-5-11.7-6.5C127,106.2,127.7,103.8,130,103.6"
	/>
<path class="st1" d="M124.5,105c-3.1-2.3-5.9-7.5-7-10.2c-3.5-8.5-4.3-17.7-7.1-26.4c-2.4-7.4-6.1-13.9-10.6-20.2
	c-3.1-4.5-7.9-9.1-8.6-14.7c-0.6-4.9,2.2-11.4,8.2-10.8c19.1,1.9,29.4,28.7,32.9,43.8c2.3,9.9,4.2,26.1-0.4,35.9
	C129.7,107,127,106.9,124.5,105"/>
<path class="st0" d="M45.6,107.3c0,0-10.9,2-12.5,6.5c0,0-0.5,0.9,0.7,0.7c1.2-0.2,8.8-4.8,17.1-5.8
	C50.8,108.7,48.7,107.6,45.6,107.3"/>
<path class="st0" d="M48,108.9c0,0-10.6,2.6-11.6,7.1c0,0-0.3,0.9,0.8,0.6c1.1-0.3,7.1-4.7,15.2-6.1C52.4,110.5,51.2,109,48,108.9"
	/>
<path class="st0" d="M51.4,109.2c0,0-9.7,3.7-9.5,8.2c0,0-0.1,0.9,1,0.5c1-0.4,6.8-5.9,14.4-8.1C57.3,109.9,54.5,109,51.4,109.2"/>
<path class="st2" d="M58.9,108.7c1.2-2,0.2-4.4-0.3-6.4c-0.6-2.5-1.1-5.1-1.6-7.6c-1-5-1.7-10.1-1.5-15.1c0.4-8.7,7.3-18.1,1.5-26.7
	c-1.6-2.3-5-4.4-8.7-5.4c-2.7-0.8-5.5-0.7-8.2,0.2C23,53.5,24.9,69.5,27.1,79.6c0.9,4.1,11.7,32.1,27.7,31.4
	C57.2,110.8,58.3,109.7,58.9,108.7"/>
<path class="st0" d="M99.8,107.3c0,0,10.9,2,12.5,6.5c0,0,0.5,0.9-0.7,0.7c-1.2-0.2-8.8-4.8-17.1-5.8
	C94.6,108.7,96.7,107.6,99.8,107.3"/>
<path class="st0" d="M97.4,108.9c0,0,10.6,2.6,11.6,7.1c0,0,0.3,0.9-0.8,0.6c-1.1-0.3-7.1-4.7-15.2-6.1
	C93,110.5,94.2,109,97.4,108.9"/>
<path class="st0" d="M94,109.2c0,0,9.7,3.7,9.5,8.2c0,0,0.1,0.9-1,0.5c-1-0.4-6.8-5.9-14.4-8.1C88.1,109.9,90.9,109,94,109.2"/>
<path class="st2" d="M86.5,108.7c-1.2-2-0.2-4.4,0.3-6.4c0.6-2.5,1.1-5.1,1.6-7.6c1-5,1.7-10.1,1.5-15.1c-0.4-8.7-7.3-18.1-1.5-26.7
	c1.6-2.3,5-4.4,8.7-5.4c2.7-0.8,5.5-0.7,8.2,0.2c17.3,5.9,15.3,21.9,13.1,31.9c-0.9,4.1-11.7,32.1-27.7,31.4
	C88.2,110.8,87.1,109.7,86.5,108.7"/>
<path class="st3" d="M104.1,22.5c0.1-0.4,0.1-0.6,0.1-0.6l1.5,0.5c-4.1-7.9-11.8-12.9-11.8-12.9l2.2,0.4c-4-5-13.4-7.6-13.4-7.6
	l1.5-1c-3.5-1.6-19.4-1.6-22.9,0l1.5,1c0,0-9.4,2.6-13.4,7.6l2.2-0.4c0,0-7.7,5-11.8,12.9l1.5-0.5c0,0,0,0.2,0.1,0.4
	c-8.6,13.6-13.9,31.2-13.9,46.3c0,29.4,20.2,45.7,45.2,45.7c25,0,45.2-16.4,45.2-45.7C117.9,53.5,112.6,36,104.1,22.5"/>
</svg>
