<?xml version="1.0" encoding="utf-8"?>
<!-- Generator: Adobe Illustrator 22.0.0, SVG Export Plug-In . SVG Version: 6.00 Build 0)  -->
<svg version="1.1" id="Calque_1" xmlns="http://www.w3.org/2000/svg" xmlns:xlink="http://www.w3.org/1999/xlink" x="0px" y="0px"
	 viewBox="0 0 158.8 162.7" xml:space="preserve">
<style type="text/css">
	.st0{fill:#40332C;}
	.st1{fill:#766458;}
	.st2{fill:#625247;}
	.st3{fill:#8C7A6D;}
	.st4{fill:#EDD8C4;}
	.st5{fill:#F3E7DC;}
	.st6{fill:#59525C;}
	.st7{fill:#342E31;}
	.st8{fill:#40332C;}
	.st9{fill:#010101;}
	.st10{fill:#FFFFFF;}
	.st11{fill:#4F292C;}
</style>
<path class="st0" d="M10.7,14.4c0,0-8.5-1.3-10.5-6.5c0,0-0.5-1,0.4-0.9c0.9,0.1,7.4,4.9,13.8,5.2C14.3,12.1,13,13.7,10.7,14.4"/>
<path class="st0" d="M12.3,12.7c0,0-8-3.2-8.7-8.8c0,0-0.2-1.1,0.6-0.8C5,3.5,9.5,8.9,15.6,10.7C15.6,10.7,14.7,12.6,12.3,12.7"/>
<path class="st0" d="M14.4,11.5c0,0-6.9-5.2-6.2-10.7c0,0,0-1.1,0.8-0.6c0.7,0.6,3.6,6.4,9.1,9.8C18.1,9.9,16.7,12,14.4,11.5"/>
<path class="st1" d="M17.5,9.1c3.7,1.2,8,5.2,9.8,7.4c6,6.9,9.7,15.4,15,22.8c4.6,6.3,10.2,11.2,16.4,15.8
	c4.4,3.2,10.3,6.1,12.8,11.2c2.2,4.4,1.5,11.5-4.3,12.8c-18.7,4.2-36.9-17.9-45.1-31.2c-5.3-8.7-12.3-23.5-10.9-34.2
	C11.9,8.9,14.5,8.1,17.5,9.1"/>
<path class="st0" d="M66.4,144.8c0,0-10.9,2-12.5,6.5c0,0-0.5,0.9,0.7,0.7c1.2-0.2,8.8-4.8,17.1-5.8C71.7,146.2,69.6,145,66.4,144.8
	"/>
<path class="st0" d="M68.9,146.4c0,0-10.6,2.6-11.6,7.1c0,0-0.3,0.9,0.8,0.6c1.1-0.3,7.1-4.7,15.2-6.1C73.3,148,72,146.4,68.9,146.4
	"/>
<path class="st0" d="M72.2,146.7c0,0-9.7,3.7-9.5,8.2c0,0-0.1,0.9,1,0.5c1-0.4,6.8-5.9,14.4-8.1C78.1,147.3,75.4,146.4,72.2,146.7"
	/>
<path class="st2" d="M79.7,146.2c1.2-2,0.2-4.4-0.3-6.4c-0.6-2.5-1.1-5.1-1.6-7.6c-1-5-1.7-10.1-1.5-15.1c0.4-8.7,7.3-18.1,1.5-26.7
	c-1.6-2.3-5-4.4-8.7-5.4c-2.7-0.8-5.5-0.7-8.2,0.2C43.8,90.9,45.8,107,48,117c0.9,4.1,11.7,32.1,27.7,31.4
	C78.1,148.3,79.2,147.2,79.7,146.2"/>
<path class="st0" d="M120.7,144.8c0,0,10.9,2,12.5,6.5c0,0,0.5,0.9-0.7,0.7c-1.2-0.2-8.8-4.8-17.1-5.8
	C115.4,146.2,117.5,145,120.7,144.8"/>
<path class="st0" d="M118.2,146.4c0,0,10.6,2.6,11.6,7.1c0,0,0.3,0.9-0.8,0.6c-1.1-0.3-7.1-4.7-15.2-6.1
	C113.8,148,115.1,146.4,118.2,146.4"/>
<path class="st0" d="M114.9,146.7c0,0,9.7,3.7,9.5,8.2c0,0,0.1,0.9-0.9,0.5c-1-0.4-6.8-5.9-14.4-8.1
	C109,147.3,111.7,146.4,114.9,146.7"/>
<path class="st2" d="M107.4,146.2c-1.2-2-0.2-4.4,0.3-6.4c0.6-2.5,1.1-5.1,1.6-7.6c1-5,1.7-10.1,1.5-15.1
	c-0.4-8.7-7.3-18.1-1.5-26.7c1.6-2.3,5-4.4,8.7-5.4c2.7-0.8,5.5-0.7,8.2,0.2c17.3,5.9,15.3,21.9,13.1,31.9
	c-0.9,4.1-11.7,32.1-27.7,31.4C109.1,148.3,107.9,147.2,107.4,146.2"/>
<path class="st3" d="M124.9,50.6c0.1-0.4,0.1-0.6,0.1-0.6l1.5,0.5c-4.1-7.9-11.8-12.9-11.8-12.9l2.2,0.4c-4-5-13.4-7.6-13.4-7.6
	l1.5-1c-3.5-1.6-19.4-1.6-22.9,0l1.5,1c0,0-9.4,2.6-13.4,7.6l2.2-0.4c0,0-7.7,5-11.8,12.9l1.5-0.5c0,0,0,0.2,0.1,0.4
	C53.7,64,48.4,81.6,48.4,96.7c0,29.4,20.2,45.7,45.2,45.7s45.2-16.4,45.2-45.7C138.8,81.6,133.5,64.1,124.9,50.6"/>
<path class="st4" d="M121.5,123.7c0,12-12.5,18.7-28,18.7s-28-6.7-28-18.7c0-12,12.5-27.9,28-27.9S121.5,111.7,121.5,123.7"/>
<path class="st5" d="M107.8,46.7c0.2,0.4,0.6,1.8,0.3,1.8c-2,0-4-0.6-5.6-1.8c0.2,0.7,0.4,2.5,0.3,2.5c-1.9,0-4.8-1.1-5.8-3
	c-0.8,1-2,1.9-3.1,2.3c-0.2,0.1-0.2-1.5-0.1-2c-2,1.5-4.6,2.3-6.7,1.8c-0.2-0.1,0.7-1.4,1-1.9c-2.9,1.9-6.7,2.8-10,2.7
	c-0.3,0,2.6-1.7,3.8-2.6C71.2,47.4,63.8,50,63.8,57c0,9.4,13.3,23.2,29.8,23.2c16.4,0,29.8-13.8,29.8-23.2
	C123.3,50.6,117,47.8,107.8,46.7"/>
<path class="st6" d="M102.4,65.3c0-2-4-3.2-8.9-3.2c-4.9,0-8.9,1.1-8.9,3.2c0,2,4,5.1,8.9,5.1C98.5,70.3,102.4,67.3,102.4,65.3"/>
<path class="st7" d="M91.2,69c-0.1,0.2-0.8,0.1-1.6-0.2c-0.8-0.3-1.4-0.8-1.3-1c0.1-0.2,0.8-0.1,1.6,0.2
	C90.7,68.4,91.2,68.8,91.2,69"/>
<path class="st7" d="M95.7,69c0.1,0.2,0.8,0.1,1.6-0.2c0.8-0.3,1.4-0.8,1.3-1c-0.1-0.2-0.8-0.1-1.6,0.2C96.2,68.4,95.7,68.8,95.7,69
	"/>
<path class="st8" d="M76.6,66c3.5-2.3,13.5-4.8,14.4-9.6c0.5-3-4-4.7-6.1-4.9c-2.9-0.3-6-0.1-8.8,0.7c-4.3,1.1-8.9,3.3-12.2,6.6
	c0.6,4,3.3,8.5,7.4,12.4C72.8,69.1,74.6,67.3,76.6,66"/>
<path class="st8" d="M123.1,59.5c-3.3-3.7-8.3-6.2-12.9-7.4c-2.8-0.7-5.9-1-8.8-0.7c-2,0.2-6.6,2-6.1,4.9c0.9,4.8,10.9,7.4,14.4,9.6
	c2.2,1.4,4.1,3.3,5.5,5.6C119.4,67.9,122.3,63.4,123.1,59.5"/>
<path class="st9" d="M83.2,56.9c0,1.6-1.3,3-3,3c-1.6,0-3-1.3-3-3c0-1.6,1.3-3,3-3C81.9,53.9,83.2,55.3,83.2,56.9"/>
<path class="st10" d="M80,56c0,0.5-0.4,0.9-0.9,0.9c-0.5,0-0.9-0.4-0.9-0.9c0-0.5,0.4-0.9,0.9-0.9C79.6,55.1,80,55.5,80,56"/>
<path class="st10" d="M79,57.9c0,0.2-0.2,0.4-0.4,0.4s-0.4-0.2-0.4-0.4c0-0.2,0.2-0.4,0.4-0.4S79,57.7,79,57.9"/>
<path class="st9" d="M109.9,56.9c0,1.6-1.3,3-3,3c-1.6,0-3-1.3-3-3c0-1.6,1.3-3,3-3C108.5,53.9,109.9,55.3,109.9,56.9"/>
<path class="st10" d="M106.7,56c0,0.5-0.4,0.9-0.9,0.9c-0.5,0-0.9-0.4-0.9-0.9c0-0.5,0.4-0.9,0.9-0.9
	C106.3,55.1,106.7,55.5,106.7,56"/>
<path class="st10" d="M105.6,57.9c0,0.2-0.2,0.4-0.4,0.4s-0.4-0.2-0.4-0.4c0-0.2,0.2-0.4,0.4-0.4S105.6,57.7,105.6,57.9"/>
<path class="st0" d="M147.9,148.4c0,0,8.6,1,10.7,6.2c0,0,0.5,1-0.4,0.9c-0.9-0.1-7.5-4.6-14-4.7
	C144.3,150.8,145.6,149.1,147.9,148.4"/>
<path class="st0" d="M146.3,150.2c0,0,8.1,3,9,8.5c0,0,0.3,1.1-0.6,0.8s-5.5-5.6-11.7-7.2C143,152.2,143.9,150.3,146.3,150.2"/>
<path class="st0" d="M144.3,151.5c0,0,7.1,4.9,6.5,10.5c0,0,0,1.1-0.8,0.6c-0.8-0.5-3.8-6.3-9.5-9.4
	C140.6,153.1,141.9,151,144.3,151.5"/>
<path class="st1" d="M138.5,151.3c-2.3-3.1-3.6-8.8-3.9-11.7c-1-9.1,0.8-18.2,0.5-27.3c-0.2-7.8-2-15-4.6-22.4
	c-1.8-5.1-5.1-10.9-4.2-16.5c0.7-4.9,5.3-10.3,10.8-8.1c17.8,7.1,20.3,35.7,19.4,51.2c-0.5,10.2-3.2,26.3-10.4,34.3
	C143,154.6,140.4,153.8,138.5,151.3"/>
<path class="st11" d="M89.9,73.4c-0.2,0-0.4,0-0.6,0c-3.3-0.3-4.1-4.1-4.1-4.2c0-0.1,0-0.1,0.1-0.1c0.1,0,0.1,0,0.1,0.1
	c0,0,0.8,3.7,3.9,4c3.1,0.3,3.8-1.5,3.9-1.6c0-0.1,0.1-0.1,0.2-0.1c0.1,0,0.1,0.1,0.1,0.2C93.4,71.7,92.7,73.4,89.9,73.4"/>
<path class="st11" d="M96.7,73.4c-2.7,0-3.4-1.7-3.5-1.8c0-0.1,0-0.1,0.1-0.2c0.1,0,0.1,0,0.2,0.1c0,0.1,0.8,1.9,3.9,1.6
	c3.1-0.3,3.9-3.9,3.9-4c0-0.1,0.1-0.1,0.1-0.1c0.1,0,0.1,0.1,0.1,0.1c0,0-0.8,3.9-4.1,4.2C97.1,73.4,96.9,73.4,96.7,73.4"/>
</svg>
