<?xml version="1.0" encoding="utf-8"?>
<!-- Generator: Adobe Illustrator 22.0.0, SVG Export Plug-In . SVG Version: 6.00 Build 0)  -->
<svg version="1.1" id="Calque_1" xmlns="http://www.w3.org/2000/svg" xmlns:xlink="http://www.w3.org/1999/xlink" x="0px" y="0px"
	 viewBox="0 0 158.8 162.7" xml:space="preserve">
<style type="text/css">
	.st0{fill:#40332C;}
	.st1{fill:#766458;}
	.st2{fill:#625247;}
	.st3{fill:#8C7A6D;}
	.st4{fill:#EDD8C4;}
	.st5{fill:#F3E7DC;}
	.st6{fill:#59525C;}
	.st7{fill:#342E31;}
	.st8{fill:#40332C;}
	.st9{fill:#010101;}
	.st10{fill:#FFFFFF;}
	.st11{fill:#4F292C;}
</style>
<path class="st0" d="M148.1,14.4c0,0,8.5-1.3,10.5-6.5c0,0,0.5-1-0.4-0.9c-0.9,0.1-7.4,4.9-13.8,5.2
	C144.4,12.1,145.8,13.7,148.1,14.4"/>
<path class="st0" d="M146.5,12.7c0,0,8-3.2,8.7-8.8c0,0,0.2-1.1-0.6-0.8c-0.9,0.3-5.3,5.8-11.5,7.6
	C143.2,10.7,144.1,12.6,146.5,12.7"/>
<path class="st0" d="M144.4,11.5c0,0,6.9-5.2,6.2-10.7c0,0,0-1.1-0.8-0.6c-0.7,0.6-3.6,6.4-9.1,9.8C140.7,9.9,142.1,12,144.4,11.5"
	/>
<path class="st1" d="M141.3,9.1c-3.7,1.2-8,5.2-9.8,7.4c-6,6.9-9.7,15.4-15,22.8c-4.6,6.3-10.2,11.2-16.4,15.8
	c-4.4,3.2-10.3,6.1-12.8,11.2c-2.2,4.4-1.5,11.5,4.3,12.8c18.7,4.2,36.9-17.9,45.1-31.2c5.3-8.7,12.3-23.5,10.9-34.2
	C146.9,8.9,144.3,8.1,141.3,9.1"/>
<path class="st0" d="M92.4,144.8c0,0,10.9,2,12.5,6.5c0,0,0.5,0.9-0.7,0.7c-1.2-0.2-8.8-4.8-17.1-5.8
	C87.1,146.2,89.2,145,92.4,144.8"/>
<path class="st0" d="M89.9,146.4c0,0,10.6,2.6,11.6,7.1c0,0,0.3,0.9-0.8,0.6c-1.1-0.3-7.1-4.7-15.2-6.1
	C85.5,148,86.8,146.4,89.9,146.4"/>
<path class="st0" d="M86.5,146.7c0,0,9.7,3.7,9.5,8.2c0,0,0.1,0.9-1,0.5c-1-0.4-6.8-5.9-14.4-8.1C80.7,147.3,83.4,146.4,86.5,146.7"
	/>
<path class="st2" d="M79.1,146.2c-1.2-2-0.2-4.4,0.3-6.4c0.6-2.5,1.1-5.1,1.6-7.6c1-5,1.7-10.1,1.5-15.1c-0.4-8.7-7.3-18.1-1.5-26.7
	c1.6-2.3,5-4.4,8.7-5.4c2.7-0.8,5.5-0.7,8.2,0.2C115,90.9,113,107,110.8,117c-0.9,4.1-11.7,32.1-27.7,31.4
	C80.7,148.3,79.6,147.2,79.1,146.2"/>
<path class="st0" d="M38.1,144.8c0,0-10.9,2-12.5,6.5c0,0-0.5,0.9,0.7,0.7c1.2-0.2,8.8-4.8,17.1-5.8C43.3,146.2,41.2,145,38.1,144.8
	"/>
<path class="st0" d="M40.5,146.4c0,0-10.6,2.6-11.6,7.1c0,0-0.3,0.9,0.8,0.6c1.1-0.3,7.1-4.7,15.2-6.1
	C44.9,148,43.7,146.4,40.5,146.4"/>
<path class="st0" d="M43.9,146.7c0,0-9.7,3.7-9.5,8.2c0,0-0.1,0.9,0.9,0.5c1-0.4,6.8-5.9,14.4-8.1C49.8,147.3,47.1,146.4,43.9,146.7
	"/>
<path class="st2" d="M51.4,146.2c1.2-2,0.2-4.4-0.3-6.4c-0.6-2.5-1.1-5.1-1.6-7.6c-1-5-1.7-10.1-1.5-15.1c0.4-8.7,7.3-18.1,1.5-26.7
	c-1.6-2.3-5-4.4-8.7-5.4c-2.7-0.8-5.5-0.7-8.2,0.2C15.5,90.9,17.5,107,19.6,117c0.9,4.1,11.7,32.1,27.7,31.4
	C49.7,148.3,50.8,147.2,51.4,146.2"/>
<path class="st3" d="M33.9,50.6c-0.1-0.4-0.1-0.6-0.1-0.6l-1.5,0.5C36.3,42.5,44,37.5,44,37.5l-2.2,0.4c4-5,13.4-7.6,13.4-7.6
	l-1.5-1c3.5-1.6,19.4-1.6,22.9,0l-1.5,1c0,0,9.4,2.6,13.4,7.6l-2.2-0.4c0,0,7.7,5,11.8,12.9L96.6,50c0,0,0,0.2-0.1,0.4
	c8.6,13.6,13.9,31.2,13.9,46.3c0,29.4-20.2,45.7-45.2,45.7S20,126,20,96.7C20,81.6,25.3,64.1,33.9,50.6"/>
<path class="st4" d="M37.3,123.7c0,12,12.5,18.7,28,18.7s28-6.7,28-18.7c0-12-12.5-27.9-28-27.9S37.3,111.7,37.3,123.7"/>
<path class="st5" d="M51,46.7c-0.2,0.4-0.6,1.8-0.3,1.8c2,0,4-0.6,5.6-1.8c-0.2,0.7-0.4,2.5-0.3,2.5c1.9,0,4.8-1.1,5.8-3
	c0.8,1,2,1.9,3.1,2.3c0.2,0.1,0.2-1.5,0.1-2c2,1.5,4.6,2.3,6.7,1.8c0.2-0.1-0.7-1.4-1-1.9c2.9,1.9,6.7,2.8,10,2.7
	c0.3,0-2.6-1.7-3.8-2.6C87.6,47.4,95,50,95,57c0,9.4-13.3,23.2-29.8,23.2c-16.4,0-29.8-13.8-29.8-23.2C35.5,50.6,41.8,47.8,51,46.7"
	/>
<path class="st6" d="M56.3,65.3c0-2,4-3.2,8.9-3.2c4.9,0,8.9,1.1,8.9,3.2c0,2-4,5.1-8.9,5.1C60.3,70.3,56.3,67.3,56.3,65.3"/>
<path class="st7" d="M67.6,69c0.1,0.2,0.8,0.1,1.6-0.2c0.8-0.3,1.4-0.8,1.3-1c-0.1-0.2-0.8-0.1-1.6,0.2C68.1,68.4,67.5,68.8,67.6,69
	"/>
<path class="st7" d="M63,69c-0.1,0.2-0.8,0.1-1.6-0.2c-0.8-0.3-1.4-0.8-1.3-1c0.1-0.2,0.8-0.1,1.6,0.2C62.6,68.4,63.1,68.8,63,69"/>
<path class="st8" d="M82.2,66c-3.5-2.3-13.5-4.8-14.4-9.6c-0.5-3,4-4.7,6.1-4.9c2.9-0.3,6-0.1,8.8,0.7c4.3,1.1,8.9,3.3,12.2,6.6
	c-0.6,4-3.3,8.5-7.4,12.4C86,69.1,84.2,67.3,82.2,66"/>
<path class="st8" d="M35.7,59.5c3.3-3.7,8.3-6.2,12.9-7.4c2.8-0.7,5.9-1,8.8-0.7c2,0.2,6.6,2,6.1,4.9C62.5,61.2,52.5,63.7,49,66
	c-2.2,1.4-4.1,3.3-5.5,5.6C39.4,67.9,36.5,63.4,35.7,59.5"/>
<path class="st9" d="M75.6,56.9c0,1.6,1.3,3,3,3c1.6,0,3-1.3,3-3c0-1.6-1.3-3-3-3C76.9,53.9,75.6,55.3,75.6,56.9"/>
<path class="st10" d="M78.8,56c0,0.5,0.4,0.9,0.9,0.9c0.5,0,0.9-0.4,0.9-0.9c0-0.5-0.4-0.9-0.9-0.9C79.2,55.1,78.8,55.5,78.8,56"/>
<path class="st10" d="M79.8,57.9c0,0.2,0.2,0.4,0.4,0.4s0.4-0.2,0.4-0.4c0-0.2-0.2-0.4-0.4-0.4S79.8,57.7,79.8,57.9"/>
<path class="st9" d="M48.9,56.9c0,1.6,1.3,3,3,3c1.6,0,3-1.3,3-3c0-1.6-1.3-3-3-3C50.3,53.9,48.9,55.3,48.9,56.9"/>
<path class="st10" d="M52.1,56c0,0.5,0.4,0.9,0.9,0.9c0.5,0,0.9-0.4,0.9-0.9c0-0.5-0.4-0.9-0.9-0.9C52.5,55.1,52.1,55.5,52.1,56"/>
<path class="st10" d="M53.2,57.9c0,0.2,0.2,0.4,0.4,0.4s0.4-0.2,0.4-0.4c0-0.2-0.2-0.4-0.4-0.4S53.2,57.7,53.2,57.9"/>
<path class="st0" d="M10.9,148.4c0,0-8.6,1-10.7,6.2c0,0-0.5,1,0.4,0.9c0.9-0.1,7.5-4.6,14-4.7C14.5,150.8,13.2,149.1,10.9,148.4"/>
<path class="st0" d="M12.5,150.2c0,0-8.1,3-9,8.5c0,0-0.3,1.1,0.6,0.8s5.5-5.6,11.7-7.2C15.7,152.2,14.8,150.3,12.5,150.2"/>
<path class="st0" d="M14.5,151.5c0,0-7.1,4.9-6.5,10.5c0,0,0,1.1,0.8,0.6c0.8-0.5,3.8-6.3,9.5-9.4C18.2,153.1,16.8,151,14.5,151.5"
	/>
<path class="st1" d="M20.2,151.3c2.3-3.1,3.6-8.8,3.9-11.7c1-9.1-0.8-18.2-0.5-27.3c0.2-7.8,2-15,4.6-22.4
	c1.8-5.1,5.1-10.9,4.2-16.5c-0.7-4.9-5.3-10.3-10.8-8.1C3.7,72.5,1.2,101,2.1,116.5c0.5,10.2,3.2,26.3,10.4,34.3
	C15.8,154.6,18.4,153.8,20.2,151.3"/>
<path class="st11" d="M68.8,73.4c0.2,0,0.4,0,0.6,0c3.3-0.3,4.1-4.1,4.1-4.2c0-0.1,0-0.1-0.1-0.1c-0.1,0-0.1,0-0.1,0.1
	c0,0-0.8,3.7-3.9,4c-3.1,0.3-3.8-1.5-3.9-1.6c0-0.1-0.1-0.1-0.2-0.1c-0.1,0-0.1,0.1-0.1,0.2C65.4,71.7,66.1,73.4,68.8,73.4"/>
<path class="st11" d="M62.1,73.4c2.7,0,3.4-1.7,3.5-1.8c0-0.1,0-0.1-0.1-0.2c-0.1,0-0.1,0-0.2,0.1c0,0.1-0.8,1.9-3.9,1.6
	c-3.1-0.3-3.9-3.9-3.9-4c0-0.1-0.1-0.1-0.1-0.1c-0.1,0-0.1,0.1-0.1,0.1c0,0,0.8,3.9,4.1,4.2C61.7,73.4,61.9,73.4,62.1,73.4"/>
</svg>
