<?xml version="1.0" encoding="utf-8"?>
<!-- Generator: Adobe Illustrator 22.0.0, SVG Export Plug-In . SVG Version: 6.00 Build 0)  -->
<svg version="1.1" id="Calque_1" xmlns="http://www.w3.org/2000/svg" xmlns:xlink="http://www.w3.org/1999/xlink" x="0px" y="0px"
	 viewBox="0 0 123.6 146.3" xml:space="preserve">
<style type="text/css">
	.st0{fill:#40332C;}
	.st1{fill:#625247;}
	.st2{fill:#8C7A6D;}
	.st3{fill:#EDD8C4;}
	.st4{fill:#F3E7DC;}
	.st5{fill:#59525C;}
	.st6{fill:#342E31;}
	.st7{fill:#40332C;}
	.st8{fill:#010101;}
	.st9{fill:#FFFFFF;}
	.st10{fill:#766458;}
</style>
<path class="st0" d="M35,122.1c0,0-10.9,2-12.5,6.5c0,0-0.5,0.9,0.7,0.7c1.2-0.2,8.8-4.8,17.1-5.8C40.2,123.5,38.1,122.4,35,122.1"
	/>
<path class="st0" d="M37.4,123.7c0,0-10.6,2.6-11.6,7.1c0,0-0.3,0.9,0.8,0.6c1.1-0.3,7.1-4.7,15.2-6.1
	C41.8,125.3,40.6,123.8,37.4,123.7"/>
<path class="st0" d="M40.8,124c0,0-9.7,3.7-9.5,8.2c0,0-0.1,0.9,1,0.5c1-0.4,6.8-5.9,14.4-8.1C46.7,124.7,43.9,123.8,40.8,124"/>
<path class="st1" d="M48.3,123.5c1.2-2,0.2-4.4-0.3-6.4c-0.6-2.5-1.1-5.1-1.6-7.6c-1-5-1.7-10.1-1.5-15.1c0.4-8.7,7.3-18.1,1.5-26.7
	c-1.6-2.3-5-4.4-8.7-5.4c-2.7-0.8-5.5-0.7-8.2,0.2c-17.3,5.9-15.3,21.9-13.1,31.9c0.9,4.1,11.7,32.1,27.7,31.4
	C46.6,125.6,47.7,124.5,48.3,123.5"/>
<path class="st0" d="M89.3,122.1c0,0,10.9,2,12.5,6.5c0,0,0.5,0.9-0.7,0.7c-1.2-0.2-8.8-4.8-17.1-5.8
	C84,123.5,86.1,122.4,89.3,122.1"/>
<path class="st0" d="M86.8,123.7c0,0,10.6,2.6,11.6,7.1c0,0,0.3,0.9-0.8,0.6c-1.1-0.3-7.1-4.7-15.2-6.1
	C82.4,125.3,83.7,123.8,86.8,123.7"/>
<path class="st0" d="M83.4,124c0,0,9.7,3.7,9.5,8.2c0,0,0.1,0.9-0.9,0.5c-1-0.4-6.8-5.9-14.4-8.1C77.6,124.7,80.3,123.8,83.4,124"/>
<path class="st1" d="M75.9,123.5c-1.2-2-0.2-4.4,0.3-6.4c0.6-2.5,1.1-5.1,1.6-7.6c1-5,1.7-10.1,1.5-15.1c-0.4-8.7-7.3-18.1-1.5-26.7
	c1.6-2.3,5-4.4,8.7-5.4c2.7-0.8,5.5-0.7,8.2,0.2c17.3,5.9,15.3,21.9,13.1,31.9c-0.9,4.1-11.7,32.1-27.7,31.4
	C77.6,125.6,76.5,124.5,75.9,123.5"/>
<path class="st2" d="M93.5,27.9c0.1-0.4,0.1-0.6,0.1-0.6l1.5,0.5C91,19.9,83.3,14.9,83.3,14.9l2.2,0.4c-4-5-13.4-7.6-13.4-7.6l1.5-1
	c-3.5-1.6-19.4-1.6-22.9,0l1.5,1c0,0-9.4,2.6-13.4,7.6l2.2-0.4c0,0-7.7,5-11.8,12.9l1.5-0.5c0,0,0,0.2,0.1,0.4
	C22.3,41.3,16.9,58.9,16.9,74c0,29.4,20.2,45.7,45.2,45.7s45.2-16.4,45.2-45.7C107.3,59,102,41.4,93.5,27.9"/>
<path class="st3" d="M90.1,101c0,12-12.5,18.7-28,18.7s-28-6.7-28-18.7c0-12,12.5-27.9,28-27.9S90.1,89.1,90.1,101"/>
<path class="st4" d="M76.3,24.1c0.2,0.4,0.6,1.8,0.3,1.8c-2,0-4-0.6-5.6-1.8c0.2,0.7,0.4,2.5,0.3,2.5c-1.9,0-4.8-1.1-5.8-3
	c-0.8,1-2,1.9-3.1,2.3c-0.2,0.1-0.2-1.5-0.1-2c-2,1.5-4.6,2.3-6.7,1.8c-0.2-0.1,0.7-1.4,1-1.9c-2.9,1.9-6.7,2.8-10,2.7
	c-0.3,0,2.6-1.7,3.8-2.6c-10.6,0.9-18.1,3.6-18.1,10.6c0,9.4,13.3,23.2,29.8,23.2c16.4,0,29.8-13.8,29.8-23.2
	C91.9,27.9,85.6,25.2,76.3,24.1"/>
<path class="st5" d="M71,42.6c0-2-4-3.2-8.9-3.2c-4.9,0-8.9,1.1-8.9,3.2c0,2,4,5.1,8.9,5.1C67,47.7,71,44.7,71,42.6"/>
<path class="st6" d="M59.7,46.3c-0.1,0.2-0.8,0.1-1.6-0.2c-0.8-0.3-1.4-0.8-1.3-1c0.1-0.2,0.8-0.1,1.6,0.2
	C59.2,45.7,59.8,46.1,59.7,46.3"/>
<path class="st6" d="M64.3,46.3c0.1,0.2,0.8,0.1,1.6-0.2c0.8-0.3,1.4-0.8,1.3-1c-0.1-0.2-0.8-0.1-1.6,0.2
	C64.8,45.7,64.2,46.1,64.3,46.3"/>
<path class="st7" d="M45.2,43.4c3.5-2.3,13.5-4.8,14.4-9.6c0.5-3-4-4.7-6.1-4.9c-2.9-0.3-6-0.1-8.8,0.7c-4.3,1.1-8.9,3.3-12.2,6.6
	c0.6,4,3.3,8.5,7.4,12.4C41.4,46.4,43.2,44.7,45.2,43.4"/>
<path class="st7" d="M91.7,36.8c-3.3-3.7-8.3-6.2-12.9-7.4c-2.8-0.7-5.9-1-8.8-0.7c-2,0.2-6.6,2-6.1,4.9c0.9,4.8,10.9,7.4,14.4,9.6
	c2.2,1.4,4.1,3.3,5.5,5.6C88,45.2,90.8,40.8,91.7,36.8"/>
<path class="st8" d="M51.8,34.2c0,1.6-1.3,3-3,3c-1.6,0-3-1.3-3-3c0-1.6,1.3-3,3-3C50.4,31.3,51.8,32.6,51.8,34.2"/>
<path class="st9" d="M48.6,33.3c0,0.5-0.4,0.9-0.9,0.9c-0.5,0-0.9-0.4-0.9-0.9c0-0.5,0.4-0.9,0.9-0.9C48.2,32.4,48.6,32.8,48.6,33.3
	"/>
<path class="st9" d="M47.5,35.3c0,0.2-0.2,0.4-0.4,0.4s-0.4-0.2-0.4-0.4c0-0.2,0.2-0.4,0.4-0.4S47.5,35,47.5,35.3"/>
<path class="st8" d="M78.4,34.2c0,1.6-1.3,3-3,3c-1.6,0-3-1.3-3-3c0-1.6,1.3-3,3-3C77.1,31.3,78.4,32.6,78.4,34.2"/>
<path class="st9" d="M75.2,33.3c0,0.5-0.4,0.9-0.9,0.9c-0.5,0-0.9-0.4-0.9-0.9c0-0.5,0.4-0.9,0.9-0.9C74.8,32.4,75.2,32.8,75.2,33.3
	"/>
<path class="st9" d="M74.2,35.3c0,0.2-0.2,0.4-0.4,0.4s-0.4-0.2-0.4-0.4c0-0.2,0.2-0.4,0.4-0.4S74.2,35,74.2,35.3"/>
<path class="st0" d="M112.7,132c0,0,8.6,1,10.7,6.2c0,0,0.5,1-0.4,0.9c-0.9-0.1-7.5-4.6-14-4.7C109.1,134.3,110.4,132.7,112.7,132"
	/>
<path class="st0" d="M111.1,133.7c0,0,8.1,3,9,8.5c0,0,0.3,1.1-0.6,0.8c-0.9-0.3-5.5-5.6-11.7-7.2
	C107.8,135.8,108.7,133.9,111.1,133.7"/>
<path class="st0" d="M109.1,135c0,0,7.1,4.9,6.5,10.5c0,0,0,1.1-0.8,0.6c-0.8-0.5-3.8-6.3-9.5-9.4
	C105.4,136.7,106.7,134.5,109.1,135"/>
<path class="st10" d="M103.3,134.8c-2.3-3.1-3.6-8.8-3.9-11.7c-1-9.1,0.8-18.2,0.5-27.3c-0.2-7.8-2-15-4.6-22.4
	c-1.8-5.1-5.1-10.9-4.2-16.5c0.7-4.9,5.3-10.3,10.8-8.1c17.8,7.1,20.3,35.7,19.4,51.2c-0.5,10.2-3.2,26.3-10.4,34.4
	C107.8,138.2,105.2,137.4,103.3,134.8"/>
<path class="st0" d="M54.5,1.4c0,0,8.6,1,10.7,6.2c0,0,0.5,1-0.4,0.9c-0.9-0.1-7.5-4.6-14-4.7C50.9,3.7,52.2,2.1,54.5,1.4"/>
<path class="st0" d="M52.9,3.1c0,0,8.1,3,9,8.5c0,0,0.3,1.1-0.6,0.8c-0.9-0.3-5.5-5.6-11.7-7.2C49.6,5.2,50.5,3.3,52.9,3.1"/>
<path class="st0" d="M50.9,4.4c0,0,7.1,4.9,6.5,10.5c0,0,0,1.1-0.8,0.6c-0.8-0.5-3.9-6.3-9.5-9.4C47.2,6.1,48.5,4,50.9,4.4"/>
<path class="st10" d="M54.5,4.6c-0.1,3.9-2.5,9.2-4,11.6c-4.7,7.8-11.7,13.9-17.1,21.3c-4.6,6.3-7.6,13.2-10,20.5
	c-1.7,5.2-2.6,11.7-6.7,15.6c-3.6,3.4-10.5,5-13.5-0.2c-9.7-16.5,5.7-40.6,15.8-52.5c6.6-7.7,18.6-18.9,29.2-20.9
	C53-0.7,54.5,1.5,54.5,4.6"/>
</svg>
