<?xml version="1.0" encoding="utf-8"?>
<!-- Generator: Adobe Illustrator 22.0.0, SVG Export Plug-In . SVG Version: 6.00 Build 0)  -->
<svg version="1.1" id="Calque_1" xmlns="http://www.w3.org/2000/svg" xmlns:xlink="http://www.w3.org/1999/xlink" x="0px" y="0px"
	 viewBox="0 0 123.6 146.3" xml:space="preserve">
<style type="text/css">
	.st0{fill:#40332C;}
	.st1{fill:#625247;}
	.st2{fill:#8C7A6D;}
	.st3{fill:#EDD8C4;}
	.st4{fill:#F3E7DC;}
	.st5{fill:#59525C;}
	.st6{fill:#342E31;}
	.st7{fill:#40332C;}
	.st8{fill:#010101;}
	.st9{fill:#FFFFFF;}
	.st10{fill:#766458;}
</style>
<path class="st0" d="M88.6,122.1c0,0,10.9,2,12.5,6.5c0,0,0.5,0.9-0.7,0.7c-1.2-0.2-8.8-4.8-17.1-5.8
	C83.3,123.5,85.4,122.4,88.6,122.1"/>
<path class="st0" d="M86.1,123.7c0,0,10.6,2.6,11.6,7.1c0,0,0.3,0.9-0.8,0.6c-1.1-0.3-7.1-4.7-15.2-6.1
	C81.7,125.3,83,123.8,86.1,123.7"/>
<path class="st0" d="M82.8,124c0,0,9.7,3.7,9.5,8.2c0,0,0.1,0.9-1,0.5c-1-0.4-6.8-5.9-14.4-8.1C76.9,124.7,79.6,123.8,82.8,124"/>
<path class="st1" d="M75.3,123.5c-1.2-2-0.2-4.4,0.3-6.4c0.6-2.5,1.1-5.1,1.6-7.6c1-5,1.7-10.1,1.5-15.1c-0.4-8.7-7.3-18.1-1.5-26.7
	c1.6-2.3,5-4.4,8.7-5.4c2.7-0.8,5.5-0.7,8.2,0.2c17.3,5.9,15.3,21.9,13.1,31.9c-0.9,4.1-11.7,32.1-27.7,31.4
	C77,125.6,75.8,124.5,75.3,123.5"/>
<path class="st0" d="M34.3,122.1c0,0-10.9,2-12.5,6.5c0,0-0.5,0.9,0.7,0.7c1.2-0.2,8.8-4.8,17.1-5.8
	C39.6,123.5,37.5,122.4,34.3,122.1"/>
<path class="st0" d="M36.8,123.7c0,0-10.6,2.6-11.6,7.1c0,0-0.3,0.9,0.8,0.6c1.1-0.3,7.1-4.7,15.2-6.1
	C41.2,125.3,39.9,123.8,36.8,123.7"/>
<path class="st0" d="M40.1,124c0,0-9.7,3.7-9.5,8.2c0,0-0.1,0.9,0.9,0.5c1-0.4,6.8-5.9,14.4-8.1C46,124.7,43.3,123.8,40.1,124"/>
<path class="st1" d="M47.6,123.5c1.2-2,0.2-4.4-0.3-6.4c-0.6-2.5-1.1-5.1-1.6-7.6c-1-5-1.7-10.1-1.5-15.1c0.4-8.7,7.3-18.1,1.5-26.7
	c-1.6-2.3-5-4.4-8.7-5.4c-2.7-0.8-5.5-0.7-8.2,0.2c-17.3,5.9-15.3,21.9-13.1,31.9c0.9,4.1,11.7,32.1,27.7,31.4
	C46,125.6,47.1,124.5,47.6,123.5"/>
<path class="st2" d="M30.1,27.9c-0.1-0.4-0.1-0.6-0.1-0.6l-1.5,0.5c4.1-7.9,11.8-12.9,11.8-12.9L38,15.2c4-5,13.4-7.6,13.4-7.6
	l-1.5-1c3.5-1.6,19.4-1.6,22.9,0l-1.5,1c0,0,9.4,2.6,13.4,7.6l-2.2-0.4c0,0,7.7,5,11.8,12.9l-1.5-0.5c0,0,0,0.2-0.1,0.4
	c8.6,13.6,13.9,31.2,13.9,46.3c0,29.4-20.2,45.7-45.2,45.7S16.3,103.4,16.3,74C16.3,59,21.6,41.4,30.1,27.9"/>
<path class="st3" d="M33.5,101c0,12,12.5,18.7,28,18.7s28-6.7,28-18.7c0-12-12.5-27.9-28-27.9S33.5,89.1,33.5,101"/>
<path class="st4" d="M47.3,24.1c-0.2,0.4-0.6,1.8-0.3,1.8c2,0,4-0.6,5.6-1.8c-0.2,0.7-0.4,2.5-0.3,2.5c1.9,0,4.8-1.1,5.8-3
	c0.8,1,2,1.9,3.1,2.3c0.2,0.1,0.2-1.5,0.1-2c2,1.5,4.6,2.3,6.7,1.8c0.2-0.1-0.7-1.4-1-1.9c2.9,1.9,6.7,2.8,10,2.7
	c0.3,0-2.6-1.7-3.8-2.6c10.6,0.9,18.1,3.6,18.1,10.6c0,9.4-13.3,23.2-29.8,23.2c-16.4,0-29.8-13.8-29.8-23.2
	C31.7,27.9,38,25.2,47.3,24.1"/>
<path class="st5" d="M52.6,42.6c0-2,4-3.2,8.9-3.2c4.9,0,8.9,1.1,8.9,3.2c0,2-4,5.1-8.9,5.1C56.5,47.7,52.6,44.7,52.6,42.6"/>
<path class="st6" d="M63.9,46.3c0.1,0.2,0.8,0.1,1.6-0.2c0.8-0.3,1.4-0.8,1.3-1c-0.1-0.2-0.8-0.1-1.6,0.2
	C64.3,45.7,63.8,46.1,63.9,46.3"/>
<path class="st6" d="M59.3,46.3c-0.1,0.2-0.8,0.1-1.6-0.2c-0.8-0.3-1.4-0.8-1.3-1c0.1-0.2,0.8-0.1,1.6,0.2
	C58.8,45.7,59.4,46.1,59.3,46.3"/>
<path class="st7" d="M78.4,43.4c-3.5-2.3-13.5-4.8-14.4-9.6c-0.5-3,4-4.7,6.1-4.9c2.9-0.3,6-0.1,8.8,0.7c4.3,1.1,8.9,3.3,12.2,6.6
	c-0.6,4-3.3,8.5-7.4,12.4C82.2,46.4,80.4,44.7,78.4,43.4"/>
<path class="st7" d="M31.9,36.8c3.3-3.7,8.3-6.2,12.9-7.4c2.8-0.7,5.9-1,8.8-0.7c2,0.2,6.6,2,6.1,4.9c-0.9,4.8-10.9,7.4-14.4,9.6
	c-2.2,1.4-4.1,3.3-5.5,5.6C35.6,45.2,32.8,40.8,31.9,36.8"/>
<path class="st8" d="M71.8,34.2c0,1.6,1.3,3,3,3c1.6,0,3-1.3,3-3c0-1.6-1.3-3-3-3C73.1,31.3,71.8,32.6,71.8,34.2"/>
<path class="st9" d="M75,33.3c0,0.5,0.4,0.9,0.9,0.9c0.5,0,0.9-0.4,0.9-0.9c0-0.5-0.4-0.9-0.9-0.9C75.4,32.4,75,32.8,75,33.3"/>
<path class="st9" d="M76,35.3c0,0.2,0.2,0.4,0.4,0.4s0.4-0.2,0.4-0.4c0-0.2-0.2-0.4-0.4-0.4S76,35,76,35.3"/>
<path class="st8" d="M45.1,34.2c0,1.6,1.3,3,3,3c1.6,0,3-1.3,3-3c0-1.6-1.3-3-3-3C46.5,31.3,45.1,32.6,45.1,34.2"/>
<path class="st9" d="M48.3,33.3c0,0.5,0.4,0.9,0.9,0.9c0.5,0,0.9-0.4,0.9-0.9c0-0.5-0.4-0.9-0.9-0.9C48.8,32.4,48.3,32.8,48.3,33.3"
	/>
<path class="st9" d="M49.4,35.3c0,0.2,0.2,0.4,0.4,0.4s0.4-0.2,0.4-0.4c0-0.2-0.2-0.4-0.4-0.4S49.4,35,49.4,35.3"/>
<path class="st0" d="M10.9,132c0,0-8.6,1-10.7,6.2c0,0-0.5,1,0.4,0.9c0.9-0.1,7.5-4.6,14-4.7C14.5,134.3,13.2,132.7,10.9,132"/>
<path class="st0" d="M12.5,133.7c0,0-8.1,3-9,8.5c0,0-0.3,1.1,0.6,0.8c0.9-0.3,5.5-5.6,11.7-7.2C15.7,135.8,14.8,133.9,12.5,133.7"
	/>
<path class="st0" d="M14.5,135c0,0-7.1,4.9-6.5,10.5c0,0,0,1.1,0.8,0.6c0.8-0.5,3.8-6.3,9.5-9.4C18.2,136.7,16.8,134.5,14.5,135"/>
<path class="st10" d="M20.2,134.8c2.3-3.1,3.6-8.8,3.9-11.7c1-9.1-0.8-18.2-0.5-27.3c0.2-7.8,2-15,4.6-22.4
	c1.8-5.1,5.1-10.9,4.2-16.5c-0.7-4.9-5.3-10.3-10.8-8.1C3.7,56,1.2,84.5,2.1,100.1c0.5,10.2,3.2,26.3,10.4,34.4
	C15.8,138.2,18.4,137.4,20.2,134.8"/>
<path class="st0" d="M69.1,1.4c0,0-8.6,1-10.7,6.2c0,0-0.5,1,0.4,0.9c0.9-0.1,7.5-4.6,14-4.7C72.7,3.7,71.4,2.1,69.1,1.4"/>
<path class="st0" d="M70.7,3.1c0,0-8.1,3-9,8.5c0,0-0.3,1.1,0.6,0.8c0.9-0.3,5.5-5.6,11.7-7.2C73.9,5.2,73,3.3,70.7,3.1"/>
<path class="st0" d="M72.7,4.4c0,0-7.1,4.9-6.5,10.5c0,0,0,1.1,0.8,0.6c0.8-0.5,3.9-6.3,9.5-9.4C76.4,6.1,75,4,72.7,4.4"/>
<path class="st10" d="M69.1,4.6c0.1,3.9,2.5,9.2,4,11.6c4.7,7.8,11.7,13.9,17.1,21.3c4.6,6.3,7.6,13.2,10,20.5
	c1.7,5.2,2.6,11.7,6.7,15.6c3.6,3.4,10.5,5,13.5-0.2c9.7-16.5-5.7-40.6-15.8-52.5C98,13.4,86.1,2.2,75.5,0.2
	C70.6-0.7,69,1.5,69.1,4.6"/>
</svg>
