<svg version="1.1" id="Capa_1" xmlns="http://www.w3.org/2000/svg" xmlns:xlink="http://www.w3.org/1999/xlink" x="0px" y="0px"
	                    viewBox="0 0 31.666 31.666" style="enable-background:new 0 0 31.666 31.666;"
	                    xml:space="preserve">
                        <g>
	                    <path fill="currentColor" d="M11.452,31.666v-5.879h8.763v5.879h6.604V0H4.847v31.666H11.452z M20.215,2.909h3.696v3.696h-3.696V2.909z M20.215,8.282
		                h3.696v3.697h-3.696V8.282z M20.215,13.656h3.696v3.695h-3.696V13.656z M20.215,19.028h3.696v3.698h-3.696V19.028z M13.986,2.909
		                h3.697v3.696h-3.697V2.909z M13.986,8.282h3.697v3.697h-3.697V8.282z M13.986,13.656h3.697v3.695h-3.697V13.656z M13.986,19.028
		                h3.697v3.698h-3.697V19.028z M7.757,2.909h3.696v3.696H7.757V2.909z M7.757,8.282h3.696v3.697H7.757V8.282z M7.757,13.656h3.696
		                v3.695H7.757V13.656z M7.757,19.028h3.696v3.698H7.757V19.028z"/>
                        </g>
                    </svg>