<svg baseProfile="tiny" xmlns="http://www.w3.org/2000/svg" viewBox="0 0 353.53 512"><g fill="currentColor"><circle cx="168.7" cy="82.94" r="46.5"/><path fill="currentColor" d="M347.65 372.77c-69.02-86.45-64.01-80.57-67.17-83.15L248.6 159.97l91.5-124.22c7.35-9.98 5.22-24.02-4.76-31.37-9.98-7.35-24.02-5.22-31.37 4.76L211.48 134.7c-1.31.26-56.42 13.66-59.65 14.91L38.44 34.19c-8.68-8.84-22.89-8.97-31.73-.28s-8.96 22.89-.28 31.73l128.82 131.14 16.9 68.73 18.73 76.15-10.39 36.77-90.65-16.05c-14.63-2.59-28.62 7.18-31.21 21.82s7.18 28.61 21.82 31.21c123.68 21.89 115.96 20.71 119.35 20.71 11.85 0 22.57-7.85 25.89-19.61 25.7-90.99 24.1-84.69 24.48-88.12l11.09-2.73c1.12 1.64-3.49-4.21 50.38 63.26l-67.66 78.59c-9.7 11.27-8.43 28.27 2.84 37.97 11.26 9.7 28.27 8.44 37.97-2.84l82.23-95.51c8.44-9.81 8.71-24.24.63-34.36z"/></g></svg>