<svg width="0" height="0" class="hidden">
  <symbol xmlns="http://www.w3.org/2000/svg" viewBox="0 0 31.666 31.666" id="building">
    <path fill="currentColor" d="M11.452 31.666v-5.879h8.763v5.879h6.604V0H4.847v31.666h6.605zm8.763-28.757h3.696v3.696h-3.696V2.909zm0 5.373h3.696v3.697h-3.696V8.282zm0 5.374h3.696v3.695h-3.696v-3.695zm0 5.372h3.696v3.698h-3.696v-3.698zM13.986 2.909h3.697v3.696h-3.697V2.909zm0 5.373h3.697v3.697h-3.697V8.282zm0 5.374h3.697v3.695h-3.697v-3.695zm0 5.372h3.697v3.698h-3.697v-3.698zM7.757 2.909h3.696v3.696H7.757V2.909zm0 5.373h3.696v3.697H7.757V8.282zm0 5.374h3.696v3.695H7.757v-3.695zm0 5.372h3.696v3.698H7.757v-3.698z"></path>
  </symbol>
  <symbol baseProfile="tiny" xmlns="http://www.w3.org/2000/svg" viewBox="0 0 353.53 512" id="happy">
    <g fill="currentColor">
      <circle cx="168.7" cy="82.94" r="46.5"></circle>
      <path d="M347.65 372.77c-69.02-86.45-64.01-80.57-67.17-83.15L248.6 159.97l91.5-124.22c7.35-9.98 5.22-24.02-4.76-31.37-9.98-7.35-24.02-5.22-31.37 4.76L211.48 134.7c-1.31.26-56.42 13.66-59.65 14.91L38.44 34.19c-8.68-8.84-22.89-8.97-31.73-.28s-8.96 22.89-.28 31.73l128.82 131.14 16.9 68.73 18.73 76.15-10.39 36.77-90.65-16.05c-14.63-2.59-28.62 7.18-31.21 21.82s7.18 28.61 21.82 31.21c123.68 21.89 115.96 20.71 119.35 20.71 11.85 0 22.57-7.85 25.89-19.61 25.7-90.99 24.1-84.69 24.48-88.12l11.09-2.73c1.12 1.64-3.49-4.21 50.38 63.26l-67.66 78.59c-9.7 11.27-8.43 28.27 2.84 37.97 11.26 9.7 28.27 8.44 37.97-2.84l82.23-95.51c8.44-9.81 8.71-24.24.63-34.36z"></path>
    </g>
  </symbol>
  <symbol xmlns="http://www.w3.org/2000/svg" viewBox="0 0 484.027 484.027" id="partners">
    <path fill="currentColor" d="M399.685 183.158c35.355 0 63.785-28.517 63.785-63.699 0-35.204-28.452-63.763-63.785-63.763-35.139 0-63.612 28.538-63.612 63.763 0 35.16 28.473 63.699 63.612 63.699zm51.144 10.375H348.67c-15.164 0-27.934 11.713-31.86 27.46l-60.657 124.183c-.863-.065-1.596-.496-2.481-.496H230.29c-.863 0-1.618.453-2.438.496l-60.657-124.161c-3.904-15.747-16.653-27.481-31.838-27.481H33.133C14.862 193.533 0 210.294 0 230.851v197.48h168.511V316.228l36.8 68.034c3.559 11.821 13.288 20.384 25.001 20.384h23.383c11.713 0 21.463-8.564 25.044-20.384l36.778-68.034v112.103h168.511V230.85c-.023-20.556-14.907-37.317-33.199-37.317zm-366.53-10.375c35.139 0 63.612-28.517 63.612-63.699.022-35.225-28.452-63.763-63.612-63.763-35.311 0-63.785 28.538-63.785 63.763 0 35.16 28.473 63.699 63.785 63.699z"></path>
  </symbol>
  <symbol xmlns="http://www.w3.org/2000/svg" fill="none" viewBox="0 0 12 12" id="home">
    <path fill="currentColor" d="M0 4v7a1 1 0 001 1h3V8h4v4h3a1 1 0 001-1V4L6 0 0 4z"></path>
  </symbol>
  <symbol xmlns="http://www.w3.org/2000/svg" viewBox="0 0 325 325.375" id="pen">
    <path fill="currentColor" d="M114.688 284.676l-73.801-73.801 178.5-178.5 73.8 73.8zm-80.7-60.801l67.7 67.7-101.5 33.8zm281.899-140.3l-12.801 12.8-73.899-73.898 12.801-12.801c12.895-12.903 33.805-12.903 46.7 0l27.199 27.199c12.8 12.937 12.8 33.766 0 46.7zm0 0"></path>
  </symbol>
  <symbol baseProfile="tiny" xmlns="http://www.w3.org/2000/svg" viewBox="0 0 29 31.41" id="phone">
    <path fill="currentColor" d="M1.05 1.51L6.94.04c.64-.16 1.3.2 1.56.85l2.72 6.87c.24.6.08 1.31-.39 1.72L7.4 12.52c2.04 4.7 5.6 8.62 10.04 10.87l2.81-3.72c.39-.51 1.03-.68 1.59-.42l6.34 2.94c.61.29.94 1 .79 1.69l-1.36 6.38c-.14.66-.69 1.14-1.33 1.14C11.78 31.41 0 18.68 0 2.95c0-.69.44-1.29 1.05-1.44z"></path>
  </symbol>
  <symbol xmlns="http://www.w3.org/2000/svg" fill="none" viewBox="0 0 12 12" id="search">
    <path d="M11.72 10.3L9.18 7.78a5 5 0 10-1.4 1.41l2.53 2.54a1 1 0 001.41-1.41zm-9.7-5.28a3 3 0 116 0 3 3 0 01-6 0z" fill="currentColor"></path>
  </symbol>
</svg>