<?xml version="1.0" encoding="utf-8"?><svg xmlns="http://www.w3.org/2000/svg"
                                           xmlns:xlink="http://www.w3.org/1999/xlink"><symbol fill="#F0F5FF"
                                                                                              id="blog"
                                                                                              viewBox="0 0 122.88 100.72" xmlns="http://www.w3.org/2000/svg"><defs><style>.acls-1{fill-rule:evenodd}</style></defs><path class="acls-1" d="M111.34 93.69a7.56 7.56 0 01-7.52 7H7.54A7.56 7.56 0 010 93.18V19.51c0-3.69 3.08-6.77 6.58-7.42v18.09H4.79v63.73A2.08 2.08 0 006.88 96h97.91a2.09 2.09 0 002.09-2.09v-.22zm-88.4-69.75h87.7v37.17h-87.7V23.94zM19.06 0h96.28a7.56 7.56 0 017.54 7.54v73.67a7.56 7.56 0 01-7.54 7.54H19.06a7.56 7.56 0 01-7.54-7.54V7.54A7.56 7.56 0 0119.06 0zm99.37 18.22H16.31V82a2.07 2.07 0 002.09 2h97.91a2.07 2.07 0 002.08-2V18.22zM108.16 6.54a3.73 3.73 0 11-3.72 3.73 3.73 3.73 0 013.72-3.73zm-25.23 0a3.73 3.73 0 11-3.72 3.73 3.73 3.73 0 013.72-3.73zm12.62 0a3.73 3.73 0 11-3.73 3.73 3.73 3.73 0 013.73-3.73zM72.12 74.33a3.18 3.18 0 010-6.34h35.93a3.18 3.18 0 010 6.34zm-47 0a3.18 3.18 0 010-6.34h33.27a3.18 3.18 0 010 6.34z"/></symbol><symbol viewBox="0 0 12 12" fill="currentColor" id="home" xmlns="http://www.w3.org/2000/svg"><path d="M0 4v7a1 1 0 001 1h3V8h4v4h3a1 1 0 001-1V4L6 0 0 4z"/></symbol><symbol fill="currentColor" viewBox="0 0 325 325.375" id="pen" xmlns="http://www.w3.org/2000/svg"><path d="M114.688 284.676l-73.801-73.801 178.5-178.5 73.8 73.8zm-80.7-60.801l67.7 67.7-101.5 33.8zm281.899-140.3l-12.801 12.8-73.899-73.898 12.801-12.801c12.895-12.903 33.805-12.903 46.7 0l27.199 27.199c12.8 12.937 12.8 33.766 0 46.7zm0 0"/></symbol><symbol fill="currentColor" viewBox="0 0 29 31.41" id="phone" xmlns="http://www.w3.org/2000/svg"><path d="M1.05 1.51L6.94.04c.64-.16 1.3.2 1.56.85l2.72 6.87c.24.6.08 1.31-.39 1.72L7.4 12.52c2.04 4.7 5.6 8.62 10.04 10.87l2.81-3.72c.39-.51 1.03-.68 1.59-.42l6.34 2.94c.61.29.94 1 .79 1.69l-1.36 6.38c-.14.66-.69 1.14-1.33 1.14C11.78 31.41 0 18.68 0 2.95c0-.69.44-1.29 1.05-1.44z"/></symbol><symbol fill="currentColor" viewBox="0 0 512 512" id="post" xmlns="http://www.w3.org/2000/svg"><path d="M36.1 1.1C18.9 4.5 4.3 19.3 1 36.9-.4 44.3-.4 467.7 1 475.1c3.4 18 17.9 32.5 35.9 35.9 7.4 1.4 430.8 1.4 438.2 0 18-3.4 32.5-17.9 35.9-35.9 1.4-7.4 1.4-430.8 0-438.2-3.4-18-17.9-32.5-35.9-35.9-6.7-1.2-432.5-1.2-439 .1zM474 32c2.6 1.3 4.7 3.4 6 6 1.9 3.7 2 5.8 2 43v39H30V81c0-37.2.1-39.3 2-43 1.2-2.4 3.5-4.7 5.8-5.9 3.6-2 6.6-2 218-2.1 212.8 0 214.3 0 218.2 2zm8 278c0 158.5 0 160.1-2 164-1.3 2.6-3.4 4.7-6 6-3.9 2-5.4 2-218 2s-214.1 0-218-2c-2.6-1.3-4.7-3.4-6-6-2-3.9-2-5.5-2-164V150h452v160z"/><path d="M67.8 62.1C63.5 64.3 60 70.2 60 75c0 7.6 7.4 15 15 15s15-7.4 15-15c0-5-3.5-10.7-8-13-4.9-2.5-9.4-2.5-14.2.1zM127.8 62.1c-4.3 2.2-7.8 8.1-7.8 12.9 0 5 3.5 10.7 8 13 2.1 1.1 5.3 2 7 2 7.6 0 15-7.4 15-15 0-5-3.5-10.7-8-13-4.9-2.5-9.4-2.5-14.2.1zM187.8 62.1c-4.3 2.2-7.8 8.1-7.8 12.9 0 5 3.5 10.7 8 13 2.1 1.1 5.3 2 7 2 7.6 0 15-7.4 15-15 0-5-3.5-10.7-8-13-4.9-2.5-9.4-2.5-14.2.1zM67.8 182.1c-2.3 1.2-4.6 3.5-5.8 5.9-1.9 3.8-2 5.8-2 68s.1 64.2 2 68c1.3 2.6 3.4 4.7 6 6 3.8 2 5.7 2 82 2s78.2 0 82-2c2.6-1.3 4.7-3.4 6-6 1.9-3.8 2-5.8 2-68s-.1-64.2-2-68c-1.3-2.6-3.4-4.7-6-6-3.8-2-5.7-2-82.2-2-76 .1-78.4.1-82 2.1zM210 256v46H90v-92h120v46zM277.8 243.1c-4.3 2.2-7.8 8.1-7.8 12.9 0 5 3.5 10.7 8 13 3.8 2 5.7 2 83 2s79.2 0 83-2c4.5-2.3 8-8 8-13s-3.5-10.7-8-13c-3.8-2-5.7-2-83.2-2-77 .1-79.4.1-83 2.1zM277.8 304.1c-4.3 2.2-7.8 8.1-7.8 12.9 0 5 3.5 10.7 8 13 3.8 2 5.7 2 83 2s79.2 0 83-2c4.5-2.3 8-8 8-13s-3.5-10.7-8-13c-3.8-2-5.7-2-83.2-2-77 .1-79.4.1-83 2.1zM67.8 364.1c-4.3 2.2-7.8 8.1-7.8 12.9 0 5 3.5 10.7 8 13 3.9 2 5.5 2 188 2s184.1 0 188-2c4.5-2.3 8-8 8-13s-3.5-10.7-8-13c-3.9-2-5.4-2-188.2-2-181.5.1-184.4.1-188 2.1zM67.8 424.1c-4.3 2.2-7.8 8.1-7.8 12.9 0 5 3.5 10.7 8 13 3.9 2 5.5 2 188 2s184.1 0 188-2c4.5-2.3 8-8 8-13s-3.5-10.7-8-13c-3.9-2-5.4-2-188.2-2-181.5.1-184.4.1-188 2.1z"/></symbol><symbol fill="currentColor" viewBox="0 0 12 12" id="search" xmlns="http://www.w3.org/2000/svg"><path d="M11.72 10.3L9.18 7.78a5 5 0 10-1.4 1.41l2.53 2.54a1 1 0 001.41-1.41zm-9.7-5.28a3 3 0 116 0 3 3 0 01-6 0z"/></symbol></svg>