<?xml version="1.0" encoding="UTF-8"?>
<svg xmlns="http://www.w3.org/2000/svg" xmlns:xlink="http://www.w3.org/1999/xlink" width="48px" height="48px" viewBox="0 0 48 48" version="1.1">
<g id="surface1">
<path style=" stroke:none;fill-rule:nonzero;fill:rgb(87.843137%,0%,47.843137%);fill-opacity:1;" d="M 45.742188 25.9375 C 42.449219 28.984375 38.425781 30.285156 33.996094 30.507812 C 28.480469 30.785156 23.40625 29.328125 18.730469 26.484375 C 18.503906 26.347656 17.769531 25.9375 17.628906 25.917969 C 17.75 26.210938 17.839844 26.433594 17.941406 26.65625 C 20.535156 32.789062 26.414062 36.402344 33.453125 36.179688 C 40.578125 35.957031 45.585938 30.234375 47.421875 25.660156 C 47.738281 24.875 48 23.589844 48 23.484375 C 47.964844 23.519531 46.808594 24.804688 46.738281 24.875 C 46.441406 25.25 46.09375 25.609375 45.742188 25.9375 Z M 45.742188 25.9375 "/>
<path style=" stroke:none;fill-rule:nonzero;fill:rgb(52.156863%,9.019608%,49.411765%);fill-opacity:1;" d="M 21.988281 35.425781 C 16.246094 32.292969 12.9375 27.390625 11.292969 21.277344 C 11.257812 21.140625 10.957031 20.128906 10.921875 20.058594 C 8.332031 24.925781 9.242188 32.273438 14.914062 36.625 C 20.359375 40.789062 27.695312 40.035156 31.527344 36.917969 C 27.308594 37.394531 24.945312 37.054688 21.988281 35.425781 Z M 21.988281 35.425781 "/>
<path style=" stroke:none;fill-rule:nonzero;fill:rgb(0%,25.098039%,56.078431%);fill-opacity:1;" d="M 6.808594 23.675781 C 6.84375 19.339844 8.351562 15.46875 10.992188 11.90625 C 6.863281 12.882812 1.75 17.40625 2.378906 24.429688 C 2.921875 30.304688 7.738281 34.191406 11.972656 34.84375 C 8.121094 31.914062 6.773438 28.042969 6.808594 23.675781 Z M 6.808594 23.675781 "/>
<path style=" stroke:none;fill-rule:nonzero;fill:rgb(0%,54.901961%,81.176471%);fill-opacity:1;" d="M 3.222656 8.632812 C -0.457031 12.453125 -0.0351562 18.039062 1.628906 20.179688 C 1.347656 13.773438 7.878906 7.710938 16.386719 7.109375 C 12.570312 4.402344 6.582031 5.15625 3.222656 8.632812 Z M 3.222656 8.632812 "/>
<path style=" stroke:none;fill-rule:nonzero;fill:rgb(0%,58.431373%,54.509804%);fill-opacity:1;" d="M 13.917969 0.0507812 C 10.539062 0.378906 6.949219 3.015625 6.738281 5.226562 C 12.742188 1.148438 18.046875 3.117188 23.105469 7.144531 C 22.511719 3.289062 19.449219 0.496094 15.335938 0.0507812 Z M 13.917969 0.0507812 "/>
<path style=" stroke:none;fill-rule:nonzero;fill:rgb(30.588235%,65.490196%,16.078431%);fill-opacity:1;" d="M 20.289062 0.496094 C 25.03125 1.628906 27.535156 5.84375 26.957031 11.597656 C 28.988281 10.160156 29.621094 6.5625 28.304688 3.957031 C 26.851562 1.078125 23.492188 -0.410156 20.289062 0.496094 Z M 20.289062 0.496094 "/>
<path style=" stroke:none;fill-rule:nonzero;fill:rgb(5.098039%,18.823529%,50.980392%);fill-opacity:1;" d="M 22.40625 13.671875 C 22.160156 13.671875 22.023438 13.824219 21.953125 13.996094 L 18.519531 22.476562 C 18.484375 22.527344 18.484375 22.628906 18.484375 22.679688 C 18.484375 22.921875 18.695312 23.144531 18.957031 23.144531 C 19.203125 23.144531 19.359375 22.988281 19.414062 22.816406 L 20.445312 20.300781 L 24.367188 20.300781 L 25.382812 22.835938 C 25.453125 23.007812 25.609375 23.144531 25.839844 23.144531 C 26.136719 23.144531 26.328125 22.921875 26.328125 22.679688 C 26.328125 22.648438 26.3125 22.542969 26.292969 22.476562 L 22.863281 13.996094 C 22.808594 13.824219 22.652344 13.671875 22.40625 13.671875 Z M 20.761719 19.441406 L 22.425781 15.246094 L 24.085938 19.441406 Z M 20.761719 19.441406 "/>
<path style=" stroke:none;fill-rule:nonzero;fill:rgb(5.098039%,18.823529%,50.980392%);fill-opacity:1;" d="M 33.804688 16.394531 C 33.804688 14.921875 32.683594 13.773438 31.125 13.773438 L 28.324219 13.773438 C 28.0625 13.773438 27.851562 13.980469 27.851562 14.234375 L 27.851562 22.664062 C 27.851562 22.921875 28.0625 23.125 28.324219 23.125 C 28.585938 23.125 28.796875 22.921875 28.796875 22.664062 L 28.796875 19.015625 L 30.214844 19.015625 L 33.066406 22.902344 C 33.171875 23.074219 33.332031 23.125 33.46875 23.125 C 33.734375 23.125 33.941406 22.921875 33.941406 22.664062 C 33.941406 22.5625 33.90625 22.457031 33.839844 22.371094 L 31.265625 19.015625 C 32.804688 18.964844 33.804688 17.816406 33.804688 16.394531 Z M 31.140625 18.175781 L 28.796875 18.175781 L 28.796875 14.628906 L 31.089844 14.628906 C 32.105469 14.628906 32.824219 15.382812 32.824219 16.410156 C 32.839844 17.386719 32.121094 18.175781 31.140625 18.175781 Z M 31.140625 18.175781 "/>
<path style=" stroke:none;fill-rule:nonzero;fill:rgb(21.568627%,65.882353%,85.882353%);fill-opacity:1;" d="M 36.042969 13.671875 C 35.589844 13.671875 35.238281 14.03125 35.238281 14.457031 L 35.238281 19.992188 C 35.238281 21.550781 35.9375 23.210938 38.773438 23.210938 C 41.609375 23.210938 42.3125 21.566406 42.3125 19.992188 L 42.3125 14.457031 C 42.3125 14.011719 41.941406 13.671875 41.503906 13.671875 C 41.050781 13.671875 40.699219 14.03125 40.699219 14.457031 L 40.699219 19.992188 C 40.699219 20.832031 40.386719 21.808594 38.792969 21.808594 C 37.199219 21.808594 36.882812 20.832031 36.882812 19.992188 L 36.882812 14.457031 C 36.867188 14.03125 36.5 13.671875 36.042969 13.671875 Z M 36.042969 13.671875 "/>
<path style=" stroke:none;fill-rule:nonzero;fill:rgb(21.568627%,65.882353%,85.882353%);fill-opacity:1;" d="M 46.265625 23.144531 C 46.703125 23.144531 47.070312 22.785156 47.070312 22.355469 L 47.070312 14.457031 C 47.070312 14.03125 46.703125 13.671875 46.265625 13.671875 C 46.058594 13.671875 45.933594 13.738281 45.777344 13.839844 L 43.765625 15.109375 C 43.570312 15.230469 43.429688 15.46875 43.429688 15.742188 C 43.429688 16.15625 43.78125 16.496094 44.203125 16.496094 C 44.375 16.496094 44.535156 16.445312 44.65625 16.34375 L 45.460938 15.8125 L 45.460938 22.355469 C 45.460938 22.785156 45.828125 23.144531 46.265625 23.144531 Z M 46.265625 23.144531 "/>
<path style=" stroke:none;fill-rule:nonzero;fill:rgb(5.098039%,18.823529%,50.980392%);fill-opacity:1;" d="M 0 46.644531 C 0 46.75 0.0859375 46.835938 0.191406 46.835938 C 0.296875 46.835938 0.351562 46.765625 0.386719 46.699219 L 0.824219 45.636719 L 2.484375 45.636719 L 2.90625 46.699219 C 2.941406 46.765625 2.992188 46.835938 3.097656 46.835938 C 3.222656 46.835938 3.308594 46.75 3.308594 46.644531 C 3.308594 46.628906 3.308594 46.59375 3.292969 46.5625 L 1.839844 42.980469 C 1.804688 42.910156 1.75 42.84375 1.644531 42.84375 C 1.539062 42.84375 1.488281 42.910156 1.453125 42.980469 L 0 46.5625 C 0 46.578125 0 46.613281 0 46.644531 Z M 1.664062 43.496094 L 2.363281 45.277344 L 0.960938 45.277344 Z M 1.664062 43.496094 "/>
<path style=" stroke:none;fill-rule:nonzero;fill:rgb(5.098039%,18.823529%,50.980392%);fill-opacity:1;" d="M 4.65625 44.503906 C 4.761719 44.503906 4.832031 44.4375 4.832031 44.332031 C 4.832031 44.230469 4.761719 44.164062 4.65625 44.164062 L 4.269531 44.164062 L 4.269531 43.546875 C 4.269531 43.441406 4.183594 43.355469 4.078125 43.355469 C 3.972656 43.355469 3.886719 43.441406 3.886719 43.546875 L 3.886719 44.164062 L 3.660156 44.164062 C 3.554688 44.164062 3.484375 44.230469 3.484375 44.332031 C 3.484375 44.4375 3.554688 44.503906 3.660156 44.503906 L 3.886719 44.503906 L 3.886719 46.117188 C 3.886719 46.542969 4.148438 46.851562 4.605469 46.851562 C 4.707031 46.851562 4.796875 46.785156 4.796875 46.679688 C 4.796875 46.578125 4.707031 46.507812 4.605469 46.507812 C 4.410156 46.507812 4.253906 46.371094 4.253906 46.132812 L 4.253906 44.523438 Z M 4.65625 44.503906 "/>
<path style=" stroke:none;fill-rule:nonzero;fill:rgb(5.098039%,18.823529%,50.980392%);fill-opacity:1;" d="M 7.40625 46.835938 C 7.511719 46.835938 7.597656 46.75 7.597656 46.644531 L 7.597656 45.105469 C 7.597656 44.609375 7.421875 44.078125 6.511719 44.078125 C 6.125 44.078125 5.828125 44.265625 5.722656 44.488281 L 5.722656 42.84375 C 5.722656 42.742188 5.636719 42.65625 5.53125 42.65625 C 5.425781 42.65625 5.339844 42.742188 5.339844 42.84375 L 5.339844 46.644531 C 5.339844 46.75 5.425781 46.835938 5.53125 46.835938 C 5.636719 46.835938 5.722656 46.75 5.722656 46.644531 L 5.722656 45.207031 C 5.722656 44.746094 5.917969 44.386719 6.511719 44.386719 C 7.089844 44.386719 7.230469 44.695312 7.230469 45.15625 L 7.230469 46.628906 C 7.230469 46.75 7.300781 46.835938 7.40625 46.835938 Z M 7.40625 46.835938 "/>
<path style=" stroke:none;fill-rule:nonzero;fill:rgb(5.098039%,18.823529%,50.980392%);fill-opacity:1;" d="M 9.171875 43.75 L 9.75 43.1875 C 9.820312 43.117188 9.820312 43.050781 9.734375 42.964844 C 9.644531 42.878906 9.558594 42.910156 9.503906 42.964844 L 8.980469 43.597656 C 8.945312 43.648438 8.929688 43.71875 8.996094 43.769531 C 9.066406 43.820312 9.121094 43.800781 9.171875 43.75 Z M 9.171875 43.75 "/>
<path style=" stroke:none;fill-rule:nonzero;fill:rgb(5.098039%,18.823529%,50.980392%);fill-opacity:1;" d="M 10.433594 45.207031 C 10.433594 44.8125 10.242188 44.078125 9.296875 44.078125 C 8.523438 44.078125 8.070312 44.574219 8.070312 45.464844 C 8.070312 46.441406 8.558594 46.867188 9.347656 46.867188 C 9.875 46.867188 10.1875 46.628906 10.277344 46.542969 C 10.3125 46.507812 10.347656 46.476562 10.347656 46.40625 C 10.347656 46.320312 10.277344 46.234375 10.171875 46.234375 C 10.117188 46.234375 10.101562 46.253906 10.066406 46.269531 C 9.90625 46.390625 9.699219 46.527344 9.347656 46.527344 C 8.789062 46.527344 8.457031 46.148438 8.457031 45.585938 L 10.1875 45.585938 C 10.433594 45.566406 10.433594 45.378906 10.433594 45.207031 Z M 8.457031 45.242188 C 8.488281 44.726562 8.769531 44.402344 9.296875 44.402344 C 9.90625 44.402344 10.046875 44.832031 10.046875 45.242188 Z M 8.457031 45.242188 "/>
<path style=" stroke:none;fill-rule:nonzero;fill:rgb(5.098039%,18.823529%,50.980392%);fill-opacity:1;" d="M 13.023438 46.835938 C 13.128906 46.835938 13.214844 46.75 13.214844 46.644531 L 13.214844 45.105469 C 13.214844 44.609375 13.042969 44.078125 12.132812 44.078125 C 11.746094 44.078125 11.449219 44.265625 11.34375 44.488281 L 11.34375 44.300781 C 11.34375 44.195312 11.257812 44.109375 11.152344 44.109375 C 11.046875 44.109375 10.957031 44.195312 10.957031 44.300781 L 10.957031 46.644531 C 10.957031 46.75 11.046875 46.835938 11.152344 46.835938 C 11.257812 46.835938 11.34375 46.75 11.34375 46.644531 L 11.34375 45.207031 C 11.34375 44.746094 11.535156 44.386719 12.132812 44.386719 C 12.707031 44.386719 12.847656 44.695312 12.847656 45.15625 L 12.847656 46.628906 C 12.847656 46.75 12.917969 46.835938 13.023438 46.835938 Z M 13.023438 46.835938 "/>
<path style=" stroke:none;fill-rule:nonzero;fill:rgb(5.098039%,18.823529%,50.980392%);fill-opacity:1;" d="M 16.050781 45.207031 C 16.050781 44.8125 15.859375 44.078125 14.914062 44.078125 C 14.144531 44.078125 13.6875 44.574219 13.6875 45.464844 C 13.6875 46.441406 14.179688 46.867188 14.96875 46.867188 C 15.492188 46.867188 15.808594 46.628906 15.894531 46.542969 C 15.929688 46.507812 15.964844 46.476562 15.964844 46.40625 C 15.964844 46.320312 15.894531 46.234375 15.789062 46.234375 C 15.738281 46.234375 15.71875 46.253906 15.683594 46.269531 C 15.527344 46.390625 15.316406 46.527344 14.96875 46.527344 C 14.40625 46.527344 14.074219 46.148438 14.074219 45.585938 L 15.808594 45.585938 C 16.050781 45.566406 16.050781 45.378906 16.050781 45.207031 Z M 14.074219 45.242188 C 14.109375 44.726562 14.390625 44.402344 14.914062 44.402344 C 15.527344 44.402344 15.667969 44.832031 15.667969 45.242188 Z M 14.074219 45.242188 "/>
<path style=" stroke:none;fill-rule:nonzero;fill:rgb(5.098039%,18.823529%,50.980392%);fill-opacity:1;" d="M 14.792969 43.75 L 15.371094 43.1875 C 15.441406 43.117188 15.441406 43.050781 15.351562 42.964844 C 15.265625 42.878906 15.175781 42.910156 15.125 42.964844 L 14.597656 43.597656 C 14.566406 43.648438 14.546875 43.71875 14.617188 43.769531 C 14.6875 43.820312 14.738281 43.800781 14.792969 43.75 Z M 14.792969 43.75 "/>
<path style=" stroke:none;fill-rule:nonzero;fill:rgb(5.098039%,18.823529%,50.980392%);fill-opacity:1;" d="M 18.75 45.207031 C 18.75 44.8125 18.574219 44.078125 17.609375 44.078125 C 16.839844 44.078125 16.386719 44.574219 16.386719 45.464844 C 16.386719 46.441406 16.875 46.867188 17.664062 46.867188 C 18.1875 46.867188 18.503906 46.628906 18.589844 46.542969 C 18.625 46.507812 18.660156 46.476562 18.660156 46.40625 C 18.660156 46.320312 18.589844 46.234375 18.484375 46.234375 C 18.433594 46.234375 18.414062 46.253906 18.378906 46.269531 C 18.207031 46.390625 18.011719 46.527344 17.664062 46.527344 C 17.101562 46.527344 16.769531 46.148438 16.769531 45.585938 L 18.503906 45.585938 C 18.75 45.566406 18.75 45.378906 18.75 45.207031 Z M 16.789062 45.242188 C 16.824219 44.726562 17.101562 44.402344 17.628906 44.402344 C 18.242188 44.402344 18.378906 44.832031 18.378906 45.242188 Z M 16.789062 45.242188 "/>
<path style=" stroke:none;fill-rule:nonzero;fill:rgb(5.098039%,18.823529%,50.980392%);fill-opacity:1;" d="M 22.703125 43.992188 C 22.703125 43.375 22.230469 42.878906 21.566406 42.878906 L 20.375 42.878906 C 20.269531 42.878906 20.183594 42.964844 20.183594 43.066406 L 20.183594 46.628906 C 20.183594 46.730469 20.269531 46.816406 20.375 46.816406 C 20.480469 46.816406 20.570312 46.730469 20.570312 46.628906 L 20.570312 45.085938 L 21.164062 45.085938 L 22.371094 46.730469 C 22.425781 46.800781 22.476562 46.816406 22.546875 46.816406 C 22.652344 46.816406 22.738281 46.730469 22.738281 46.628906 C 22.738281 46.59375 22.722656 46.542969 22.703125 46.507812 L 21.621094 45.085938 C 22.285156 45.070312 22.703125 44.589844 22.703125 43.992188 Z M 21.585938 44.746094 L 20.585938 44.746094 L 20.585938 43.238281 L 21.566406 43.238281 C 21.988281 43.238281 22.300781 43.5625 22.300781 43.992188 C 22.300781 44.402344 22.003906 44.746094 21.585938 44.746094 Z M 21.585938 44.746094 "/>
<path style=" stroke:none;fill-rule:nonzero;fill:rgb(5.098039%,18.823529%,50.980392%);fill-opacity:1;" d="M 23.105469 45.464844 C 23.105469 46.421875 23.597656 46.867188 24.351562 46.867188 C 25.121094 46.867188 25.59375 46.421875 25.59375 45.464844 C 25.59375 44.503906 25.121094 44.078125 24.351562 44.078125 C 23.578125 44.078125 23.105469 44.503906 23.105469 45.464844 Z M 25.207031 45.464844 C 25.207031 46.199219 24.894531 46.527344 24.351562 46.527344 C 23.808594 46.527344 23.492188 46.199219 23.492188 45.464844 C 23.492188 44.726562 23.808594 44.402344 24.351562 44.402344 C 24.894531 44.402344 25.207031 44.726562 25.207031 45.464844 Z M 25.207031 45.464844 "/>
<path style=" stroke:none;fill-rule:nonzero;fill:rgb(5.098039%,18.823529%,50.980392%);fill-opacity:1;" d="M 25.875 47.605469 C 25.769531 47.605469 25.699219 47.675781 25.699219 47.777344 C 25.699219 47.878906 25.769531 47.949219 25.875 47.949219 C 26.433594 47.949219 26.75 47.65625 26.976562 47.089844 L 28.148438 44.367188 C 28.148438 44.351562 28.167969 44.332031 28.167969 44.28125 C 28.167969 44.179688 28.078125 44.09375 27.972656 44.09375 C 27.867188 44.09375 27.816406 44.164062 27.796875 44.214844 L 26.957031 46.21875 L 26.117188 44.214844 C 26.101562 44.164062 26.046875 44.09375 25.941406 44.09375 C 25.839844 44.09375 25.75 44.179688 25.75 44.28125 C 25.75 44.316406 25.769531 44.351562 25.769531 44.367188 L 26.765625 46.679688 C 26.519531 47.261719 26.378906 47.605469 25.875 47.605469 Z M 25.875 47.605469 "/>
<path style=" stroke:none;fill-rule:nonzero;fill:rgb(5.098039%,18.823529%,50.980392%);fill-opacity:1;" d="M 30.460938 46.835938 C 30.566406 46.835938 30.632812 46.75 30.632812 46.664062 L 30.632812 45.070312 C 30.632812 44.472656 30.25 44.078125 29.566406 44.078125 C 29.058594 44.078125 28.742188 44.28125 28.585938 44.539062 C 28.570312 44.574219 28.550781 44.589844 28.550781 44.640625 C 28.550781 44.726562 28.621094 44.8125 28.726562 44.8125 C 28.777344 44.8125 28.8125 44.796875 28.882812 44.726562 C 29.058594 44.523438 29.25 44.4375 29.566406 44.4375 C 30.003906 44.4375 30.265625 44.675781 30.265625 45.070312 L 30.265625 45.222656 L 29.425781 45.222656 C 28.777344 45.222656 28.394531 45.53125 28.394531 46.046875 C 28.394531 46.578125 28.796875 46.886719 29.425781 46.886719 C 29.777344 46.886719 30.125 46.730469 30.285156 46.476562 L 30.285156 46.679688 C 30.285156 46.75 30.355469 46.835938 30.460938 46.835938 Z M 29.460938 46.527344 C 29.007812 46.527344 28.777344 46.339844 28.777344 46.03125 C 28.777344 45.6875 29.042969 45.53125 29.425781 45.53125 L 30.265625 45.53125 L 30.265625 45.773438 C 30.285156 46.285156 29.882812 46.527344 29.460938 46.527344 Z M 29.460938 46.527344 "/>
<path style=" stroke:none;fill-rule:nonzero;fill:rgb(5.098039%,18.823529%,50.980392%);fill-opacity:1;" d="M 31.492188 42.65625 C 31.386719 42.65625 31.300781 42.742188 31.300781 42.84375 L 31.300781 46.167969 C 31.300781 46.613281 31.527344 46.851562 31.914062 46.851562 C 32 46.851562 32.085938 46.785156 32.085938 46.679688 C 32.085938 46.578125 32 46.507812 31.914062 46.507812 C 31.753906 46.507812 31.667969 46.40625 31.667969 46.183594 L 31.667969 42.859375 C 31.683594 42.742188 31.597656 42.65625 31.492188 42.65625 Z M 31.492188 42.65625 "/>
<path style=" stroke:none;fill-rule:nonzero;fill:rgb(21.568627%,65.882353%,85.882353%);fill-opacity:1;" d="M 33.644531 42.828125 C 33.539062 42.828125 33.453125 42.910156 33.453125 43.015625 L 33.453125 45.585938 C 33.453125 46.21875 33.734375 46.851562 34.851562 46.851562 C 35.972656 46.851562 36.234375 46.21875 36.234375 45.585938 L 36.234375 43.015625 C 36.234375 42.910156 36.148438 42.828125 36.042969 42.828125 C 35.9375 42.828125 35.851562 42.910156 35.851562 43.015625 L 35.851562 45.585938 C 35.851562 46.046875 35.675781 46.492188 34.871094 46.492188 C 34.046875 46.492188 33.875 46.046875 33.875 45.585938 L 33.875 43.015625 C 33.855469 42.929688 33.75 42.828125 33.644531 42.828125 Z M 33.644531 42.828125 "/>
<path style=" stroke:none;fill-rule:nonzero;fill:rgb(21.568627%,65.882353%,85.882353%);fill-opacity:1;" d="M 38.039062 44.402344 C 38.425781 44.402344 38.582031 44.574219 38.6875 44.675781 C 38.722656 44.726562 38.773438 44.746094 38.828125 44.746094 C 38.914062 44.746094 39.003906 44.675781 39.003906 44.574219 C 39.003906 44.539062 38.984375 44.503906 38.96875 44.472656 C 38.878906 44.332031 38.582031 44.078125 38.058594 44.078125 C 37.285156 44.078125 36.832031 44.523438 36.832031 45.464844 C 36.832031 46.421875 37.285156 46.867188 38.058594 46.867188 C 38.546875 46.867188 38.828125 46.664062 38.949219 46.5625 C 39.003906 46.507812 39.019531 46.476562 39.019531 46.40625 C 39.019531 46.320312 38.949219 46.234375 38.84375 46.234375 C 38.808594 46.234375 38.773438 46.253906 38.738281 46.269531 C 38.597656 46.371094 38.390625 46.527344 38.058594 46.527344 C 37.515625 46.527344 37.214844 46.183594 37.214844 45.464844 C 37.199219 44.746094 37.496094 44.402344 38.039062 44.402344 Z M 38.039062 44.402344 "/>
<path style=" stroke:none;fill-rule:nonzero;fill:rgb(21.568627%,65.882353%,85.882353%);fill-opacity:1;" d="M 40.59375 44.402344 C 40.980469 44.402344 41.136719 44.574219 41.242188 44.675781 C 41.277344 44.726562 41.332031 44.746094 41.382812 44.746094 C 41.46875 44.746094 41.558594 44.675781 41.558594 44.574219 C 41.558594 44.539062 41.539062 44.503906 41.523438 44.472656 C 41.433594 44.332031 41.136719 44.078125 40.613281 44.078125 C 39.84375 44.078125 39.386719 44.523438 39.386719 45.464844 C 39.386719 46.421875 39.84375 46.867188 40.613281 46.867188 C 41.101562 46.867188 41.382812 46.664062 41.503906 46.5625 C 41.558594 46.507812 41.574219 46.476562 41.574219 46.40625 C 41.574219 46.320312 41.503906 46.234375 41.402344 46.234375 C 41.367188 46.234375 41.332031 46.253906 41.296875 46.269531 C 41.15625 46.371094 40.945312 46.527344 40.613281 46.527344 C 40.070312 46.527344 39.773438 46.183594 39.773438 45.464844 C 39.753906 44.746094 40.050781 44.402344 40.59375 44.402344 Z M 40.59375 44.402344 "/>
<path style=" stroke:none;fill-rule:nonzero;fill:rgb(21.568627%,65.882353%,85.882353%);fill-opacity:1;" d="M 42.242188 42.65625 C 42.136719 42.65625 42.046875 42.742188 42.046875 42.84375 L 42.046875 46.167969 C 42.046875 46.613281 42.277344 46.851562 42.660156 46.851562 C 42.75 46.851562 42.835938 46.785156 42.835938 46.679688 C 42.835938 46.578125 42.75 46.507812 42.660156 46.507812 C 42.503906 46.507812 42.414062 46.40625 42.414062 46.183594 L 42.414062 42.859375 C 42.433594 42.742188 42.347656 42.65625 42.242188 42.65625 Z M 42.242188 42.65625 "/>
<path style=" stroke:none;fill-rule:nonzero;fill:rgb(21.568627%,65.882353%,85.882353%);fill-opacity:1;" d="M 45.480469 45.207031 C 45.480469 44.8125 45.304688 44.078125 44.339844 44.078125 C 43.570312 44.078125 43.117188 44.574219 43.117188 45.464844 C 43.117188 46.441406 43.605469 46.867188 44.394531 46.867188 C 44.917969 46.867188 45.234375 46.628906 45.320312 46.542969 C 45.355469 46.507812 45.390625 46.476562 45.390625 46.40625 C 45.390625 46.320312 45.320312 46.234375 45.214844 46.234375 C 45.164062 46.234375 45.148438 46.253906 45.113281 46.269531 C 44.9375 46.390625 44.742188 46.527344 44.394531 46.527344 C 43.832031 46.527344 43.5 46.148438 43.5 45.585938 L 45.234375 45.585938 C 45.480469 45.566406 45.480469 45.378906 45.480469 45.207031 Z M 43.5 45.242188 C 43.535156 44.726562 43.816406 44.402344 44.339844 44.402344 C 44.953125 44.402344 45.09375 44.832031 45.09375 45.242188 Z M 43.5 45.242188 "/>
<path style=" stroke:none;fill-rule:nonzero;fill:rgb(21.568627%,65.882353%,85.882353%);fill-opacity:1;" d="M 47.789062 46.835938 C 47.894531 46.835938 47.984375 46.75 47.984375 46.644531 L 47.984375 43.03125 C 47.984375 42.929688 47.894531 42.84375 47.789062 42.84375 C 47.753906 42.84375 47.71875 42.859375 47.667969 42.878906 L 46.738281 43.511719 C 46.6875 43.546875 46.652344 43.613281 46.652344 43.664062 C 46.652344 43.769531 46.738281 43.855469 46.84375 43.855469 C 46.878906 43.855469 46.914062 43.835938 46.949219 43.820312 L 47.578125 43.375 L 47.578125 46.644531 C 47.597656 46.75 47.683594 46.835938 47.789062 46.835938 Z M 47.789062 46.835938 "/>
</g>
</svg>
